{
copyright = "Copyright (c) 2022 by Thanos Poulakidas. All rights reserved.";
designer = "Thanos Poulakidas";
familyName = Geom;
customParameters = (
{
name = glyphOrder;
value = (
.notdef,
uni0000,
uni000D,
space,
quotedbl,
numbersign,
dollar,
percent,
ampersand,
quotesingle,
parenleft,
parenright,
asterisk,
plus,
comma,
hyphen,
period,
slash,
zero,
one,
two,
three,
four,
five,
six,
seven,
eight,
nine,
colon,
semicolon,
less,
equal,
greater,
question,
at,
A,
B,
C,
D,
E,
F,
G,
H,
I,
J,
K,
L,
M,
N,
O,
P,
Q,
R,
S,
T,
U,
V,
W,
X,
Y,
Z,
bracketleft,
backslash,
bracketright,
asciicircum,
underscore,
grave,
a,
b,
c,
d,
e,
f,
g,
h,
i,
j,
k,
l,
m,
n,
o,
p,
q,
r,
s,
t,
u,
v,
w,
x,
y,
z,
braceleft,
bar,
braceright,
asciitilde,
Euro,
quotesinglbase,
florin,
quotedblbase,
ellipsis,
dagger,
daggerdbl,
circumflex,
perthousand,
guilsinglleft,
quoteleft,
quoteright,
quotedblleft,
quotedblright,
bullet,
endash,
emdash,
tilde,
trademark,
guilsinglright,
exclamdown,
cent,
sterling,
currency,
yen,
brokenbar,
section,
dieresis,
copyright,
ordfeminine,
guillemotleft,
logicalnot,
registered,
degree,
plusminus,
acute,
paragraph,
cedilla,
ordmasculine,
guillemotright,
onequarter,
onehalf,
threequarters,
questiondown,
germandbls,
divide,
oslash,
fraction,
fi,
fl,
breve,
dotaccent,
ring,
hungarumlaut,
ogonek,
caron,
dotlessi,
greaterequal,
radical,
notequal,
product,
summation,
lessequal,
uni02C9,
lozenge,
minus,
uni2215,
approxequal,
integral,
uni2113,
partialdiff,
uni2206,
infinity,
uni2126,
uni2219,
estimated,
exclam,
Alpha,
Epsilon,
Eta,
Iota,
Kappa,
Mu,
Nu,
Omicron,
Chi,
Tau,
Rho,
Upsilon,
uni0394,
uni03A9,
Lambda,
Beta,
Zeta,
Pi,
Xi,
Sigma,
Psi,
omicron,
kappa,
nu,
tonos,
Alphatonos,
Epsilontonos,
Etatonos,
Iotatonos,
Omicrontonos,
Upsilontonos,
Gamma,
Theta,
Iotadieresis,
Upsilondieresis,
dieresistonos,
alpha,
rho,
iota,
eta,
gamma,
upsilon,
beta,
pi,
uni03BC,
tau,
Phi,
chi,
sigma,
theta,
lambda,
psi,
epsilon,
delta,
alphatonos,
etatonos,
iotatonos,
omicrontonos,
upsilontonos,

glyphs = (
{
glyphname = .notdef;
layers = (
{
hints = (
{
horizontal = 1;
place = "{0, 57}";
type = Stem;
},
{
horizontal = 1;
place = "{663, 57}";
type = Stem;
},
{
place = "{-8, 70}";
type = Stem;
},
{
place = "{451, 70}";
type = Stem;
}
);
layerId = "D00CCA55-2E43-4B58-A869-D5AA99E7DC06";
paths = (
{
closed = 1;
nodes = (
"-8 0 LINE",
"521 0 LINE",
"521 720 LINE",
"-8 720 LINE"
);
},
{
closed = 1;
nodes = (
"257 421 LINE",
"94 663 LINE",
"418 663 LINE"
);
},
{
closed = 1;
nodes = (
"62 594 LINE",
"217 360 LINE",
"62 128 LINE"
);
},
{
closed = 1;
nodes = (
"296 360 LINE",
"451 593 LINE",
"451 128 LINE"
);
},
{
closed = 1;
nodes = (
"94 57 LINE",
"257 300 LINE",
"418 57 LINE"
);
}
);
width = 515;
}
);
},
{
glyphname = quotedbl;
layers = (
{
hints = (
{
place = "{30, 483}";
type = Stem;
},
{
horizontal = 1;
place = "{341, 359}";
type = Stem;
},
{
horizontal = 1;
place = "{700, -20}";
target = down;
type = TopGhost;
}
);
layerId = "D00CCA55-2E43-4B58-A869-D5AA99E7DC06";
paths = (
{
closed = 1;
nodes = (
"129 341 LINE",
"256 697 LINE",
"256 700 LINE",
"52 700 LINE",
"30 341 LINE"
);
},
{
closed = 1;
nodes = (
"286 341 LINE",
"386 341 LINE",
"513 697 LINE",
"513 700 LINE",
"309 700 LINE"
);
}
);
width = 542;
}
);
unicode = 0022;
},
{
glyphname = numbersign;
layers = (
{
hints = (
{
horizontal = 1;
place = "{0, 21}";
target = up;
type = BottomGhost;
},
{
horizontal = 1;
place = "{135, 161}";
type = Stem;
},
{
horizontal = 1;
place = "{408, 161}";
type = Stem;
},
{
horizontal = 1;
place = "{700, -20}";
target = down;
type = TopGhost;
},
{
place = "{39, 647}";
type = Stem;
}
);
layerId = "D00CCA55-2E43-4B58-A869-D5AA99E7DC06";
paths = (
{
closed = 1;
nodes = (
"94 0 LINE",
"239 0 LINE",
"262 135 LINE",
"389 135 LINE",
"365 0 LINE",
"510 0 LINE",
"534 135 LINE",
"653 135 LINE",
"653 296 LINE",
"561 296 LINE",
"580 408 LINE",
"686 408 LINE",
"686 569 LINE",
"608 569 LINE",
"630 700 LINE",
"485 700 LINE",
"463 569 LINE",
"336 569 LINE",
"359 700 LINE",
"214 700 LINE",
"192 569 LINE",
"72 569 LINE",
"72 408 LINE",
"164 408 LINE",
"145 296 LINE",
"39 296 LINE",
"39 135 LINE",
"117 135 LINE"
);
},
{
closed = 1;
nodes = (
"439 412 LINE",
"419 292 LINE",
"285 292 LINE",
"306 412 LINE"
);
}
);
width = 724;
}
);
unicode = 0023;
},
{
glyphname = dollar;
layers = (
{
hints = (
{
place = "{76, 176}";
type = Stem;
},
{
place = "{313, 104}";
type = Stem;
},
{
place = "{319, 94}";
type = Stem;
},
{
place = "{480, 173}";
type = Stem;
},
{
horizontal = 1;
place = "{0, 21}";
target = up;
type = BottomGhost;
},
{
horizontal = 1;
place = "{555, 203}";
type = Stem;
},
{
horizontal = 1;
place = "{701, -20}";
target = down;
type = TopGhost;
}
);
layerId = "D00CCA55-2E43-4B58-A869-D5AA99E7DC06";
paths = (
{
closed = 1;
nodes = (
"313 -98 LINE",
"417 -98 LINE",
"417 0 LINE",
"558 13 OFFCURVE",
"653 89 OFFCURVE",
"653 212 CURVE SMOOTH",
"653 335 OFFCURVE",
"573 393 OFFCURVE",
"414 430 CURVE",
"414 555 LINE",
"458 547 OFFCURVE",
"495 530 OFFCURVE",
"527 491 CURVE",
"624 599 LINE",
"576 652 OFFCURVE",
"502 689 OFFCURVE",
"419 698 CURVE",
"419 758 LINE",
"315 758 LINE",
"315 701 LINE",
"163 690 OFFCURVE",
"76 607 OFFCURVE",
"76 490 CURVE SMOOTH",
"76 366 OFFCURVE",
"159 309 OFFCURVE",
"319 272 CURVE",
"319 145 LINE",
"263 152 OFFCURVE",
"203 186 OFFCURVE",
"164 234 CURVE",
"53 115 LINE",
"129 40 OFFCURVE",
"224 2 OFFCURVE",
"313 2 CURVE"
);
},
{
closed = 1;
nodes = (
"252 530 OFFCURVE",
"271 551 OFFCURVE",
"320 555 CURVE",
"320 447 LINE",
"265 462 OFFCURVE",
"252 482 OFFCURVE",
"252 505 CURVE SMOOTH"
);
},
{
closed = 1;
nodes = (
"480 172 OFFCURVE",
"460 151 OFFCURVE",
"413 146 CURVE",
"413 256 LINE",
"465 240 OFFCURVE",
"480 222 OFFCURVE",
"480 199 CURVE SMOOTH"
);
}
);
width = 700;
}
);
unicode = 0024;
},
{
glyphname = percent;
layers = (
{
hints = (
{
place = "{27, 122}";
type = Stem;
},
{
place = "{266, 122}";
type = Stem;
},
{
place = "{495, 122}";
type = Stem;
},
{
place = "{734, 122}";
type = Stem;
},
{
horizontal = 1;
place = "{-10, 110}";
type = Stem;
},
{
horizontal = 1;
place = "{0, 21}";
target = up;
type = BottomGhost;
},
{
horizontal = 1;
place = "{257, 110}";
type = Stem;
},
{
horizontal = 1;
place = "{333, 110}";
type = Stem;
},
{
horizontal = 1;
place = "{600, 110}";
type = Stem;
},
{
horizontal = 1;
place = "{700, -20}";
target = down;
type = TopGhost;
}
);
layerId = "D00CCA55-2E43-4B58-A869-D5AA99E7DC06";
paths = (
{
closed = 1;
nodes = (
"388 624 OFFCURVE",
"316 710 OFFCURVE",
"208 710 CURVE SMOOTH",
"99 710 OFFCURVE",
"27 625 OFFCURVE",
"27 522 CURVE SMOOTH",
"27 419 OFFCURVE",
"99 333 OFFCURVE",
"207 333 CURVE SMOOTH",
"315 333 OFFCURVE",
"388 419 OFFCURVE",
"388 523 CURVE SMOOTH"
);
},
{
closed = 1;
nodes = (
"779 700 LINE",
"644 700 LINE",
"104 0 LINE",
"239 0 LINE"
);
},
{
closed = 1;
nodes = (
"266 478 OFFCURVE",
"243 443 OFFCURVE",
"208 443 CURVE SMOOTH",
"175 443 OFFCURVE",
"149 478 OFFCURVE",
"149 523 CURVE SMOOTH",
"149 567 OFFCURVE",
"172 600 OFFCURVE",
"207 600 CURVE SMOOTH",
"242 600 OFFCURVE",
"266 566 OFFCURVE",
"266 522 CURVE SMOOTH"
);
},
{
closed = 1;
nodes = (
"856 284 OFFCURVE",
"784 367 OFFCURVE",
"676 367 CURVE SMOOTH",
"567 367 OFFCURVE",
"495 282 OFFCURVE",
"495 179 CURVE SMOOTH",
"495 77 OFFCURVE",
"567 -10 OFFCURVE",
"675 -10 CURVE SMOOTH",
"783 -10 OFFCURVE",
"856 79 OFFCURVE",
"856 180 CURVE SMOOTH"
);
},
{
closed = 1;
nodes = (
"734 135 OFFCURVE",
"711 100 OFFCURVE",
"676 100 CURVE SMOOTH",
"643 100 OFFCURVE",
"617 136 OFFCURVE",
"617 180 CURVE SMOOTH",
"617 225 OFFCURVE",
"639 257 OFFCURVE",
"675 257 CURVE SMOOTH",
"710 257 OFFCURVE",
"734 224 OFFCURVE",
"734 179 CURVE SMOOTH"
);
}
);
width = 885;
}
);
unicode = 0025;
},
{
glyphname = ampersand;
layers = (
{
hints = (
{
place = "{32, 194}";
type = Stem;
},
{
place = "{128, 164}";
type = Stem;
},
{
place = "{402, 154}";
type = Stem;
},
{
horizontal = 1;
place = "{-12, 143}";
type = Stem;
},
{
horizontal = 1;
place = "{-5, 21}";
target = up;
type = BottomGhost;
},
{
horizontal = 1;
place = "{586, 133}";
type = Stem;
}
);
layerId = "D00CCA55-2E43-4B58-A869-D5AA99E7DC06";
paths = (
{
closed = 1;
nodes = (
"563 385 LINE",
"542 345 OFFCURVE",
"520 307 OFFCURVE",
"497 274 CURVE",
"419 355 LINE",
"502 394 OFFCURVE",
"556 452 OFFCURVE",
"556 537 CURVE SMOOTH",
"556 641 OFFCURVE",
"476 719 OFFCURVE",
"348 719 CURVE SMOOTH",
"211 719 OFFCURVE",
"128 630 OFFCURVE",
"128 529 CURVE SMOOTH",
"128 482 OFFCURVE",
"142 435 OFFCURVE",
"174 388 CURVE",
"78 345 OFFCURVE",
"32 280 OFFCURVE",
"32 192 CURVE SMOOTH",
"32 63 OFFCURVE",
"139 -12 OFFCURVE",
"282 -12 CURVE SMOOTH",
"363 -12 OFFCURVE",
"430 14 OFFCURVE",
"490 59 CURVE",
"550 -5 LINE",
"725 34 LINE",
"599 173 LINE",
"632 218 OFFCURVE",
"669 288 OFFCURVE",
"698 341 CURVE"
);
},
{
closed = 1;
nodes = (
"380 586 OFFCURVE",
"402 565 OFFCURVE",
"402 530 CURVE SMOOTH",
"402 495 OFFCURVE",
"379 467 OFFCURVE",
"328 442 CURVE",
"304 473 OFFCURVE",
"292 495 OFFCURVE",
"292 522 CURVE SMOOTH",
"292 561 OFFCURVE",
"315 586 OFFCURVE",
"348 586 CURVE SMOOTH"
);
},
{
closed = 1;
nodes = (
"391 161 LINE",
"364 142 OFFCURVE",
"336 131 OFFCURVE",
"308 131 CURVE SMOOTH",
"260 131 OFFCURVE",
"226 159 OFFCURVE",
"226 200 CURVE SMOOTH",
"226 231 OFFCURVE",
"241 257 OFFCURVE",
"276 278 CURVE"
);
}
);
width = 734;
}
);
unicode = 0026;
},
{
glyphname = quotesingle;
layers = (
{
hints = (
{
horizontal = 1;
place = "{700, -20}";
target = down;
type = TopGhost;
},
{
place = "{30, 230}";
type = Stem;
}
);
layerId = "D00CCA55-2E43-4B58-A869-D5AA99E7DC06";
paths = (
{
closed = 1;
nodes = (
"30 341 LINE",
"133 341 LINE",
"260 697 LINE",
"260 700 LINE",
"52 700 LINE"
);
}
);
width = 289;
}
);
unicode = 0027;
},
{
glyphname = parenleft;
layers = (
{
hints = (
{
horizontal = 1;
place = "{706, -20}";
target = down;
type = TopGhost;
},
{
place = "{60, 186}";
type = Stem;
}
);
layerId = "D00CCA55-2E43-4B58-A869-D5AA99E7DC06";
paths = (
{
closed = 1;
nodes = (
"246 418 OFFCURVE",
"302 508 OFFCURVE",
"431 597 CURVE",
"336 706 LINE",
"171 613 OFFCURVE",
"60 491 OFFCURVE",
"60 287 CURVE SMOOTH",
"60 83 OFFCURVE",
"161 -42 OFFCURVE",
"332 -130 CURVE",
"431 -23 LINE",
"302 66 OFFCURVE",
"246 156 OFFCURVE",
"246 287 CURVE SMOOTH"
);
}
);
width = 475;
}
);
unicode = 0028;
},
{
glyphname = parenright;
layers = (
{
hints = (
{
horizontal = 1;
place = "{706, -20}";
target = down;
type = TopGhost;
},
{
place = "{228, 186}";
type = Stem;
}
);
layerId = "D00CCA55-2E43-4B58-A869-D5AA99E7DC06";
paths = (
{
closed = 1;
nodes = (
"228 156 OFFCURVE",
"172 66 OFFCURVE",
"43 -23 CURVE",
"142 -130 LINE",
"317 -40 OFFCURVE",
"414 84 OFFCURVE",
"414 287 CURVE SMOOTH",
"414 489 OFFCURVE",
"313 613 OFFCURVE",
"138 706 CURVE",
"43 597 LINE",
"172 508 OFFCURVE",
"228 418 OFFCURVE",
"228 287 CURVE SMOOTH"
);
}
);
width = 475;
}
);
unicode = 0029;
},
{
glyphname = asterisk;
layers = (
{
hints = (
{
horizontal = 1;
place = "{552, -20}";
target = down;
type = TopGhost;
},
{
horizontal = 1;
place = "{554, -20}";
target = down;
type = TopGhost;
},
{
horizontal = 1;
place = "{710, -20}";
target = down;
type = TopGhost;
},
{
place = "{182, 82}";
type = Stem;
}
);
layerId = "D00CCA55-2E43-4B58-A869-D5AA99E7DC06";
paths = (
{
closed = 1;
nodes = (
"157 554 LINE",
"31 510 LINE",
"55 435 LINE",
"182 478 LINE",
"182 340 LINE",
"264 340 LINE",
"264 476 LINE",
"388 435 LINE",
"413 510 LINE",
"290 552 LINE",
"365 663 LINE",
"299 710 LINE",
"222 602 LINE",
"145 710 LINE",
"79 663 LINE"
);
}
);
width = 443;
}
);
unicode = 002A;
},
{
glyphname = plus;
layers = (
{
hints = (
{
horizontal = 1;
place = "{268, 168}";
type = Stem;
},
{
place = "{211, 174}";
type = Stem;
}
);
layerId = "D00CCA55-2E43-4B58-A869-D5AA99E7DC06";
paths = (
{
closed = 1;
nodes = (
"385 608 LINE",
"211 608 LINE",
"211 436 LINE",
"42 436 LINE",
"42 268 LINE",
"211 268 LINE",
"211 96 LINE",
"385 96 LINE",
"385 268 LINE",
"554 268 LINE",
"554 436 LINE",
"385 436 LINE"
);
}
);
width = 595;
}
);
unicode = 002B;
},
{
glyphname = comma;
layers = (
{
hints = (
{
horizontal = 1;
place = "{-164, 361}";
type = Stem;
},
{
place = "{-5, 233}";
type = Stem;
}
);
layerId = "D00CCA55-2E43-4B58-A869-D5AA99E7DC06";
paths = (
{
closed = 1;
nodes = (
"228 197 LINE",
"57 197 LINE",
"-5 -164 LINE",
"125 -164 LINE"
);
}
);
width = 259;
}
);
unicode = 002C;
},
{
glyphname = hyphen;
layers = (
{
hints = (
{
horizontal = 1;
place = "{229, 167}";
type = Stem;
},
{
place = "{32, 328}";
type = Stem;
}
);
layerId = "D00CCA55-2E43-4B58-A869-D5AA99E7DC06";
paths = (
{
closed = 1;
nodes = (
"360 396 LINE",
"32 396 LINE",
"32 229 LINE",
"360 229 LINE"
);
}
);
width = 393;
}
);
unicode = 002D;
},
{
glyphname = period;
layers = (
{
hints = (
{
place = "{51, 225}";
type = Stem;
},
{
horizontal = 1;
place = "{-13, 219}";
type = Stem;
},
{
horizontal = 1;
place = "{-13, 21}";
target = up;
type = BottomGhost;
}
);
layerId = "D00CCA55-2E43-4B58-A869-D5AA99E7DC06";
paths = (
{
closed = 1;
nodes = (
"51 25 OFFCURVE",
"100 -13 OFFCURVE",
"163 -13 CURVE SMOOTH",
"227 -13 OFFCURVE",
"276 25 OFFCURVE",
"276 97 CURVE SMOOTH",
"276 169 OFFCURVE",
"227 206 OFFCURVE",
"163 206 CURVE SMOOTH",
"100 206 OFFCURVE",
"51 169 OFFCURVE",
"51 97 CURVE SMOOTH"
);
}
);
width = 305;
}
);
unicode = 002E;
},
{
glyphname = slash;
layers = (
{
hints = (
{
horizontal = 1;
place = "{-128, 926}";
type = Stem;
},
{
place = "{25, 597}";
type = Stem;
}
);
layerId = "D00CCA55-2E43-4B58-A869-D5AA99E7DC06";
paths = (
{
closed = 1;
nodes = (
"622 798 LINE",
"468 798 LINE",
"25 -128 LINE",
"179 -128 LINE"
);
}
);
width = 623;
}
);
unicode = 002F;
},
{
glyphname = zero;
layers = (
{
hints = (
{
horizontal = 1;
place = "{-14, 172}";
type = Stem;
},
{
horizontal = 1;
place = "{542, 172}";
type = Stem;
},
{
place = "{32, 195}";
type = Stem;
},
{
place = "{485, 195}";
type = Stem;
}
);
layerId = "D00CCA55-2E43-4B58-A869-D5AA99E7DC06";
paths = (
{
closed = 1;
nodes = (
"158 714 OFFCURVE",
"32 548 OFFCURVE",
"32 350 CURVE SMOOTH",
"32 152 OFFCURVE",
"155 -14 OFFCURVE",
"355 -14 CURVE SMOOTH",
"555 -14 OFFCURVE",
"680 155 OFFCURVE",
"680 352 CURVE SMOOTH",
"680 550 OFFCURVE",
"556 714 OFFCURVE",
"357 714 CURVE SMOOTH"
);
},
{
closed = 1;
nodes = (
"432 542 OFFCURVE",
"485 461 OFFCURVE",
"485 350 CURVE SMOOTH",
"485 239 OFFCURVE",
"435 158 OFFCURVE",
"357 158 CURVE SMOOTH",
"280 158 OFFCURVE",
"227 240 OFFCURVE",
"227 352 CURVE SMOOTH",
"227 464 OFFCURVE",
"278 542 OFFCURVE",
"355 542 CURVE SMOOTH"
);
}
);
width = 712;
}
);
unicode = 0030;
},
{
glyphname = one;
layers = (
{
hints = (
{
horizontal = 1;
place = "{0, 21}";
target = up;
type = BottomGhost;
},
{
horizontal = 1;
place = "{524, 181}";
type = Stem;
},
{
place = "{236, 191}";
type = Stem;
}
);
layerId = "D00CCA55-2E43-4B58-A869-D5AA99E7DC06";
paths = (
{
closed = 1;
nodes = (
"427 705 LINE",
"81 705 LINE",
"81 524 LINE",
"236 524 LINE",
"236 0 LINE",
"427 0 LINE"
);
}
);
width = 598;
}
);
unicode = 0031;
},
{
glyphname = two;
layers = (
{
hints = (
{
horizontal = 1;
place = "{0, 158}";
type = Stem;
},
{
horizontal = 1;
place = "{543, 169}";
type = Stem;
},
{
place = "{47, 177}";
type = Stem;
},
{
place = "{395, 195}";
type = Stem;
}
);
layerId = "D00CCA55-2E43-4B58-A869-D5AA99E7DC06";
paths = (
{
closed = 1;
nodes = (
"176 712 OFFCURVE",
"47 622 OFFCURVE",
"47 453 CURVE",
"224 453 LINE",
"224 517 OFFCURVE",
"272 543 OFFCURVE",
"317 543 CURVE SMOOTH",
"363 543 OFFCURVE",
"395 516 OFFCURVE",
"395 472 CURVE SMOOTH",
"395 437 OFFCURVE",
"375 389 OFFCURVE",
"323 328 CURVE SMOOTH",
"43 0 LINE",
"597 0 LINE",
"597 158 LINE",
"409 158 LINE",
"472 242 LINE SMOOTH",
"549 343 OFFCURVE",
"590 406 OFFCURVE",
"590 489 CURVE SMOOTH",
"590 621 OFFCURVE",
"485 712 OFFCURVE",
"322 712 CURVE SMOOTH"
);
}
);
width = 650;
}
);
unicode = 0032;
},
{
glyphname = three;
layers = (
{
hints = (
{
place = "{417, 189}";
type = Stem;
},
{
horizontal = 1;
place = "{-14, 166}";
type = Stem;
},
{
horizontal = 1;
place = "{543, 157}";
type = Stem;
},
{
horizontal = 1;
place = "{561, 139}";
type = Stem;
}
);
layerId = "D00CCA55-2E43-4B58-A869-D5AA99E7DC06";
paths = (
{
closed = 1;
nodes = (
"592 561 LINE",
"592 700 LINE",
"86 700 LINE",
"86 543 LINE",
"354 543 LINE",
"193 398 LINE",
"221 297 LINE",
"303 297 LINE SMOOTH",
"376 297 OFFCURVE",
"417 270 OFFCURVE",
"417 225 CURVE SMOOTH",
"417 182 OFFCURVE",
"381 152 OFFCURVE",
"322 152 CURVE SMOOTH",
"271 152 OFFCURVE",
"218 175 OFFCURVE",
"173 219 CURVE",
"38 110 LINE",
"106 34 OFFCURVE",
"206 -14 OFFCURVE",
"333 -14 CURVE SMOOTH",
"498 -14 OFFCURVE",
"606 80 OFFCURVE",
"606 221 CURVE SMOOTH",
"606 340 OFFCURVE",
"525 397 OFFCURVE",
"425 418 CURVE"
);
}
);
width = 663;
}
);
unicode = 0033;
},
{
glyphname = four;
layers = (
{
hints = (
{
horizontal = 1;
place = "{0, 21}";
target = up;
type = BottomGhost;
},
{
horizontal = 1;
place = "{136, 145}";
type = Stem;
},
{
horizontal = 1;
place = "{705, -20}";
target = down;
type = TopGhost;
},
{
place = "{399, 188}";
type = Stem;
}
);
layerId = "D00CCA55-2E43-4B58-A869-D5AA99E7DC06";
paths = (
{
closed = 1;
nodes = (
"391 705 LINE",
"28 274 LINE",
"60 136 LINE",
"399 136 LINE",
"399 0 LINE",
"587 0 LINE",
"587 136 LINE",
"676 136 LINE",
"676 281 LINE",
"587 281 LINE",
"587 705 LINE"
);
},
{
closed = 1;
nodes = (
"399 281 LINE",
"232 281 LINE",
"399 481 LINE"
);
}
);
width = 699;
}
);
unicode = 0034;
},
{
glyphname = five;
layers = (
{
hints = (
{
horizontal = 1;
place = "{-14, 165}";
type = Stem;
},
{
horizontal = 1;
place = "{316, 143}";
type = Stem;
},
{
horizontal = 1;
place = "{540, 160}";
type = Stem;
},
{
place = "{108, 160}";
type = Stem;
},
{
place = "{428, 189}";
type = Stem;
}
);
layerId = "D00CCA55-2E43-4B58-A869-D5AA99E7DC06";
paths = (
{
closed = 1;
nodes = (
"213 281 LINE",
"246 301 OFFCURVE",
"282 316 OFFCURVE",
"325 316 CURVE SMOOTH",
"386 316 OFFCURVE",
"428 286 OFFCURVE",
"428 235 CURVE SMOOTH",
"428 184 OFFCURVE",
"389 151 OFFCURVE",
"325 151 CURVE SMOOTH",
"265 151 OFFCURVE",
"212 179 OFFCURVE",
"155 227 CURVE",
"44 97 LINE",
"117 29 OFFCURVE",
"203 -14 OFFCURVE",
"328 -14 CURVE SMOOTH",
"499 -14 OFFCURVE",
"617 81 OFFCURVE",
"617 237 CURVE SMOOTH",
"617 389 OFFCURVE",
"502 459 OFFCURVE",
"377 459 CURVE SMOOTH",
"330 459 OFFCURVE",
"297 449 OFFCURVE",
"265 434 CURVE",
"271 540 LINE",
"586 540 LINE",
"586 700 LINE",
"118 700 LINE",
"98 345 LINE"
);
}
);
width = 666;
}
);
unicode = 0035;
},
{
glyphname = six;
layers = (
{
hints = (
{
horizontal = 1;
place = "{-14, 151}";
type = Stem;
},
{
horizontal = 1;
place = "{319, 139}";
type = Stem;
},
{
horizontal = 1;
place = "{706, -20}";
target = down;
type = TopGhost;
},
{
place = "{30, 196}";
type = Stem;
},
{
place = "{422, 189}";
type = Stem;
}
);
layerId = "D00CCA55-2E43-4B58-A869-D5AA99E7DC06";
paths = (
{
closed = 1;
nodes = (
"288 706 LINE",
"160 515 LINE SMOOTH",
"59 363 OFFCURVE",
"30 297 OFFCURVE",
"30 222 CURVE SMOOTH",
"30 84 OFFCURVE",
"144 -14 OFFCURVE",
"329 -14 CURVE SMOOTH",
"489 -14 OFFCURVE",
"611 83 OFFCURVE",
"611 240 CURVE SMOOTH",
"611 380 OFFCURVE",
"533 458 OFFCURVE",
"410 458 CURVE SMOOTH",
"341 458 OFFCURVE",
"316 441 OFFCURVE",
"281 414 CURVE",
"491 706 LINE"
);
},
{
closed = 1;
nodes = (
"226 280 OFFCURVE",
"262 319 OFFCURVE",
"323 319 CURVE SMOOTH",
"384 319 OFFCURVE",
"422 280 OFFCURVE",
"422 229 CURVE SMOOTH",
"422 177 OFFCURVE",
"386 137 OFFCURVE",
"325 137 CURVE SMOOTH",
"264 137 OFFCURVE",
"226 179 OFFCURVE",
"226 230 CURVE SMOOTH"
);
}
);
width = 637;
}
);
unicode = 0036;
},
{
glyphname = seven;
layers = (
{
hints = (
{
horizontal = 1;
place = "{0, 21}";
target = up;
type = BottomGhost;
},
{
horizontal = 1;
place = "{537, 163}";
type = Stem;
},
{
place = "{48, 539}";
type = Stem;
}
);
layerId = "D00CCA55-2E43-4B58-A869-D5AA99E7DC06";
paths = (
{
closed = 1;
nodes = (
"587 554 LINE",
"587 700 LINE",
"48 700 LINE",
"48 537 LINE",
"372 537 LINE",
"64 0 LINE",
"278 0 LINE"
);
}
);
width = 636;
}
);
unicode = 0037;
},
{
glyphname = eight;
layers = (
{
hints = (
{
place = "{31, 187}";
type = Stem;
},
{
place = "{55, 178}";
type = Stem;
},
{
place = "{405, 178}";
type = Stem;
},
{
place = "{420, 187}";
type = Stem;
},
{
horizontal = 1;
place = "{-12, 145}";
type = Stem;
},
{
horizontal = 1;
place = "{290, 126}";
type = Stem;
},
{
horizontal = 1;
place = "{567, 145}";
type = Stem;
}
);
layerId = "D00CCA55-2E43-4B58-A869-D5AA99E7DC06";
paths = (
{
closed = 1;
nodes = (
"583 628 OFFCURVE",
"476 712 OFFCURVE",
"319 712 CURVE SMOOTH",
"162 712 OFFCURVE",
"55 628 OFFCURVE",
"55 516 CURVE SMOOTH",
"55 440 OFFCURVE",
"96 394 OFFCURVE",
"151 363 CURVE",
"75 331 OFFCURVE",
"31 274 OFFCURVE",
"31 195 CURVE SMOOTH",
"31 72 OFFCURVE",
"151 -12 OFFCURVE",
"319 -12 CURVE SMOOTH",
"487 -12 OFFCURVE",
"607 71 OFFCURVE",
"607 196 CURVE SMOOTH",
"607 272 OFFCURVE",
"559 330 OFFCURVE",
"487 363 CURVE",
"542 394 OFFCURVE",
"583 440 OFFCURVE",
"583 516 CURVE SMOOTH"
);
},
{
closed = 1;
nodes = (
"233 534 OFFCURVE",
"266 567 OFFCURVE",
"319 567 CURVE SMOOTH",
"372 567 OFFCURVE",
"405 533 OFFCURVE",
"405 493 CURVE SMOOTH",
"405 453 OFFCURVE",
"371 416 OFFCURVE",
"319 416 CURVE SMOOTH",
"267 416 OFFCURVE",
"233 454 OFFCURVE",
"233 494 CURVE SMOOTH"
);
},
{
closed = 1;
nodes = (
"218 259 OFFCURVE",
"260 290 OFFCURVE",
"319 290 CURVE SMOOTH",
"378 290 OFFCURVE",
"420 259 OFFCURVE",
"420 214 CURVE SMOOTH",
"420 172 OFFCURVE",
"384 133 OFFCURVE",
"319 133 CURVE SMOOTH",
"254 133 OFFCURVE",
"218 172 OFFCURVE",
"218 214 CURVE SMOOTH"
);
}
);
width = 637;
}
);
unicode = 0038;
},
{
glyphname = nine;
layers = (
{
hints = (
{
horizontal = 1;
place = "{0, 21}";
target = up;
type = BottomGhost;
},
{
horizontal = 1;
place = "{248, 139}";
type = Stem;
},
{
horizontal = 1;
place = "{569, 151}";
type = Stem;
},
{
place = "{27, 189}";
type = Stem;
},
{
place = "{412, 196}";
type = Stem;
}
);
layerId = "D00CCA55-2E43-4B58-A869-D5AA99E7DC06";
paths = (
{
closed = 1;
nodes = (
"350 0 LINE",
"528 277 LINE SMOOTH",
"592 378 OFFCURVE",
"608 433 OFFCURVE",
"608 484 CURVE SMOOTH",
"608 622 OFFCURVE",
"496 720 OFFCURVE",
"305 720 CURVE SMOOTH",
"152 720 OFFCURVE",
"27 624 OFFCURVE",
"27 468 CURVE SMOOTH",
"27 328 OFFCURVE",
"105 248 OFFCURVE",
"228 248 CURVE SMOOTH",
"288 248 OFFCURVE",
"320 264 OFFCURVE",
"357 292 CURVE",
"147 0 LINE"
);
},
{
closed = 1;
nodes = (
"412 427 OFFCURVE",
"376 387 OFFCURVE",
"315 387 CURVE SMOOTH",
"254 387 OFFCURVE",
"216 429 OFFCURVE",
"216 479 CURVE SMOOTH",
"216 530 OFFCURVE",
"252 569 OFFCURVE",
"313 569 CURVE SMOOTH",
"374 569 OFFCURVE",
"412 529 OFFCURVE",
"412 478 CURVE SMOOTH"
);
}
);
width = 642;
}
);
unicode = 0039;
},
{
glyphname = colon;
layers = (
{
hints = (
{
place = "{52, 225}";
type = Stem;
},
{
horizontal = 1;
place = "{-13, 219}";
type = Stem;
},
{
horizontal = 1;
place = "{-13, 21}";
target = up;
type = BottomGhost;
},
{
horizontal = 1;
place = "{333, 219}";
type = Stem;
},
{
horizontal = 1;
place = "{552, -20}";
target = down;
type = TopGhost;
}
);
layerId = "D00CCA55-2E43-4B58-A869-D5AA99E7DC06";
paths = (
{
closed = 1;
nodes = (
"52 371 OFFCURVE",
"101 333 OFFCURVE",
"164 333 CURVE SMOOTH",
"228 333 OFFCURVE",
"277 371 OFFCURVE",
"277 443 CURVE SMOOTH",
"277 515 OFFCURVE",
"228 552 OFFCURVE",
"164 552 CURVE SMOOTH",
"101 552 OFFCURVE",
"52 515 OFFCURVE",
"52 443 CURVE SMOOTH"
);
},
{
closed = 1;
nodes = (
"52 25 OFFCURVE",
"101 -13 OFFCURVE",
"164 -13 CURVE SMOOTH",
"228 -13 OFFCURVE",
"277 25 OFFCURVE",
"277 97 CURVE SMOOTH",
"277 169 OFFCURVE",
"228 206 OFFCURVE",
"164 206 CURVE SMOOTH",
"101 206 OFFCURVE",
"52 169 OFFCURVE",
"52 97 CURVE SMOOTH"
);
}
);
width = 307;
}
);
unicode = 003A;
},
{
glyphname = semicolon;
layers = (
{
hints = (
{
place = "{20, 225}";
type = Stem;
},
{
horizontal = 1;
place = "{333, 219}";
type = Stem;
},
{
horizontal = 1;
place = "{552, -20}";
target = down;
type = TopGhost;
}
);
layerId = "D00CCA55-2E43-4B58-A869-D5AA99E7DC06";
paths = (
{
closed = 1;
nodes = (
"20 371 OFFCURVE",
"69 333 OFFCURVE",
"132 333 CURVE SMOOTH",
"196 333 OFFCURVE",
"245 371 OFFCURVE",
"245 443 CURVE SMOOTH",
"245 515 OFFCURVE",
"196 552 OFFCURVE",
"132 552 CURVE SMOOTH",
"69 552 OFFCURVE",
"20 515 OFFCURVE",
"20 443 CURVE SMOOTH"
);
},
{
closed = 1;
nodes = (
"229 197 LINE",
"58 197 LINE",
"-4 -164 LINE",
"126 -164 LINE"
);
}
);
width = 271;
}
);
unicode = 003B;
},
{
glyphname = less;
layers = (
{
hints = (
{
horizontal = 1;
place = "{65, 573}";
type = Stem;
},
{
place = "{57, 497}";
type = Stem;
}
);
layerId = "D00CCA55-2E43-4B58-A869-D5AA99E7DC06";
paths = (
{
closed = 1;
nodes = (
"554 638 LINE",
"57 440 LINE",
"57 263 LINE",
"554 65 LINE",
"554 243 LINE",
"227 352 LINE",
"554 461 LINE"
);
}
);
width = 610;
}
);
unicode = 003C;
},
{
glyphname = equal;
layers = (
{
hints = (
{
horizontal = 1;
place = "{134, 167}";
type = Stem;
},
{
horizontal = 1;
place = "{403, 167}";
type = Stem;
},
{
place = "{42, 491}";
type = Stem;
}
);
layerId = "D00CCA55-2E43-4B58-A869-D5AA99E7DC06";
paths = (
{
closed = 1;
nodes = (
"42 570 LINE",
"42 403 LINE",
"533 403 LINE",
"533 570 LINE"
);
},
{
closed = 1;
nodes = (
"42 301 LINE",
"42 134 LINE",
"533 134 LINE",
"533 301 LINE"
);
}
);
width = 575;
}
);
unicode = 003D;
},
{
glyphname = greater;
layers = (
{
hints = (
{
horizontal = 1;
place = "{65, 573}";
type = Stem;
},
{
place = "{57, 497}";
type = Stem;
}
);
layerId = "D00CCA55-2E43-4B58-A869-D5AA99E7DC06";
paths = (
{
closed = 1;
nodes = (
"57 460 LINE",
"384 351 LINE",
"57 242 LINE",
"57 65 LINE",
"554 263 LINE",
"554 440 LINE",
"57 638 LINE"
);
}
);
width = 610;
}
);
unicode = 003E;
},
{
glyphname = question;
layers = (
{
hints = (
{
place = "{155, 215}";
type = Stem;
},
{
place = "{168, 174}";
type = Stem;
},
{
place = "{308, 191}";
type = Stem;
},
{
horizontal = 1;
place = "{-13, 193}";
type = Stem;
},
{
horizontal = 1;
place = "{547, 162}";
type = Stem;
}
);
layerId = "D00CCA55-2E43-4B58-A869-D5AA99E7DC06";
paths = (
{
closed = 1;
nodes = (
"266 547 OFFCURVE",
"308 531 OFFCURVE",
"308 494 CURVE SMOOTH",
"308 465 OFFCURVE",
"282 437 OFFCURVE",
"255 417 CURVE",
"212 382 OFFCURVE",
"168 342 OFFCURVE",
"168 261 CURVE SMOOTH",
"168 218 LINE",
"342 218 LINE",
"342 249 LINE SMOOTH",
"342 287 OFFCURVE",
"353 298 OFFCURVE",
"386 325 CURVE",
"452 375 OFFCURVE",
"499 416 OFFCURVE",
"499 506 CURVE SMOOTH",
"499 637 OFFCURVE",
"386 709 OFFCURVE",
"263 709 CURVE SMOOTH",
"179 709 OFFCURVE",
"101 680 OFFCURVE",
"49 613 CURVE",
"49 455 LINE",
"90 493 OFFCURVE",
"155 547 OFFCURVE",
"228 547 CURVE SMOOTH"
);
},
{
closed = 1;
nodes = (
"155 20 OFFCURVE",
"202 -13 OFFCURVE",
"262 -13 CURVE SMOOTH",
"322 -13 OFFCURVE",
"370 20 OFFCURVE",
"370 84 CURVE SMOOTH",
"370 148 OFFCURVE",
"322 180 OFFCURVE",
"262 180 CURVE SMOOTH",
"202 180 OFFCURVE",
"155 148 OFFCURVE",
"155 84 CURVE SMOOTH"
);
}
);
width = 536;
}
);
unicode = 003F;
},
{
glyphname = at;
layers = (
{
hints = (
{
place = "{57, 52}";
type = Stem;
},
{
place = "{234, 160}";
type = Stem;
},
{
place = "{563, 145}";
type = Stem;
},
{
place = "{879, 52}";
type = Stem;
},
{
horizontal = 1;
place = "{-162, 50}";
type = Stem;
},
{
horizontal = 1;
place = "{57, 65}";
type = Stem;
},
{
horizontal = 1;
place = "{59, 135}";
type = Stem;
},
{
horizontal = 1;
place = "{385, 135}";
type = Stem;
},
{
horizontal = 1;
place = "{667, 47}";
type = Stem;
}
);
layerId = "D00CCA55-2E43-4B58-A869-D5AA99E7DC06";
paths = (
{
closed = 1;
nodes = (
"748 -55 LINE",
"672 -99 OFFCURVE",
"599 -112 OFFCURVE",
"503 -112 CURVE SMOOTH",
"265 -112 OFFCURVE",
"109 52 OFFCURVE",
"109 275 CURVE SMOOTH",
"109 496 OFFCURVE",
"268 667 OFFCURVE",
"500 667 CURVE SMOOTH",
"728 667 OFFCURVE",
"879 517 OFFCURVE",
"879 325 CURVE SMOOTH",
"879 192 OFFCURVE",
"836 122 OFFCURVE",
"771 122 CURVE SMOOTH",
"712 122 OFFCURVE",
"708 184 OFFCURVE",
"708 200 CURVE SMOOTH",
"708 208 OFFCURVE",
"709 216 OFFCURVE",
"710 225 CURVE",
"756 483 LINE",
"601 507 LINE",
"589 446 LINE",
"562 487 OFFCURVE",
"520 520 OFFCURVE",
"455 520 CURVE SMOOTH",
"336 520 OFFCURVE",
"234 403 OFFCURVE",
"234 260 CURVE SMOOTH",
"234 138 OFFCURVE",
"313 59 OFFCURVE",
"417 59 CURVE SMOOTH",
"480 59 OFFCURVE",
"525 89 OFFCURVE",
"564 133 CURVE",
"588 92 OFFCURVE",
"634 57 OFFCURVE",
"718 57 CURVE SMOOTH",
"827 57 OFFCURVE",
"931 144 OFFCURVE",
"931 325 CURVE SMOOTH",
"931 537 OFFCURVE",
"748 714 OFFCURVE",
"500 714 CURVE SMOOTH",
"248 714 OFFCURVE",
"57 516 OFFCURVE",
"57 275 CURVE SMOOTH",
"57 32 OFFCURVE",
"245 -162 OFFCURVE",
"503 -162 CURVE SMOOTH",
"607 -162 OFFCURVE",
"691 -134 OFFCURVE",
"768 -87 CURVE"
);
},
{
closed = 1;
nodes = (
"533 385 OFFCURVE",
"563 356 OFFCURVE",
"563 309 CURVE SMOOTH",
"563 245 OFFCURVE",
"520 194 OFFCURVE",
"467 194 CURVE SMOOTH",
"424 194 OFFCURVE",
"394 221 OFFCURVE",
"394 272 CURVE SMOOTH",
"394 335 OFFCURVE",
"437 385 OFFCURVE",
"490 385 CURVE SMOOTH"
);
}
);
width = 978;
}
);
unicode = 0040;
},
{
glyphname = A;
layers = (
{
hints = (
{
horizontal = 1;
place = "{0, 21}";
target = up;
type = BottomGhost;
},
{
horizontal = 1;
place = "{125, 151}";
type = Stem;
},
{
horizontal = 1;
place = "{705, -20}";
target = down;
type = TopGhost;
},
{
place = "{15, 783}";
type = Stem;
}
);
layerId = "D00CCA55-2E43-4B58-A869-D5AA99E7DC06";
paths = (
{
closed = 1;
nodes = (
"539 125 LINE",
"590 0 LINE",
"798 0 LINE",
"500 705 LINE",
"313 705 LINE",
"15 0 LINE",
"219 0 LINE",
"269 125 LINE"
);
},
{
closed = 1;
nodes = (
"405 475 LINE",
"483 276 LINE",
"326 276 LINE"
);
}
);
width = 823;
}
);
unicode = 0041;
},
{
glyphname = B;
layers = (
{
hints = (
{
place = "{65, 189}";
type = Stem;
},
{
place = "{466, 194}";
type = Stem;
},
{
place = "{497, 194}";
type = Stem;
},
{
horizontal = 1;
place = "{0, 156}";
type = Stem;
},
{
horizontal = 1;
place = "{285, 136}";
type = Stem;
},
{
horizontal = 1;
place = "{544, 156}";
type = Stem;
}
);
layerId = "D00CCA55-2E43-4B58-A869-D5AA99E7DC06";
paths = (
{
closed = 1;
nodes = (
"65 0 LINE",
"424 0 LINE SMOOTH",
"593 0 OFFCURVE",
"691 75 OFFCURVE",
"691 195 CURVE SMOOTH",
"691 289 OFFCURVE",
"637 340 OFFCURVE",
"552 366 CURVE",
"615 393 OFFCURVE",
"660 443 OFFCURVE",
"660 524 CURVE SMOOTH",
"660 635 OFFCURVE",
"569 700 OFFCURVE",
"422 700 CURVE SMOOTH",
"65 700 LINE"
);
},
{
closed = 1;
nodes = (
"254 544 LINE",
"379 544 LINE SMOOTH",
"436 544 OFFCURVE",
"466 523 OFFCURVE",
"466 484 CURVE SMOOTH",
"466 443 OFFCURVE",
"434 421 OFFCURVE",
"375 421 CURVE SMOOTH",
"254 421 LINE"
);
},
{
closed = 1;
nodes = (
"254 285 LINE",
"401 285 LINE SMOOTH",
"465 285 OFFCURVE",
"497 260 OFFCURVE",
"497 222 CURVE SMOOTH",
"497 181 OFFCURVE",
"462 156 OFFCURVE",
"403 156 CURVE SMOOTH",
"254 156 LINE"
);
}
);
width = 730;
}
);
unicode = 0042;
},
{
glyphname = C;
layers = (
{
hints = (
{
horizontal = 1;
place = "{-14, 177}";
type = Stem;
},
{
horizontal = 1;
place = "{537, 177}";
type = Stem;
},
{
place = "{36, 200}";
type = Stem;
}
);
layerId = "D00CCA55-2E43-4B58-A869-D5AA99E7DC06";
paths = (
{
closed = 1;
nodes = (
"621 248 LINE",
"560 192 OFFCURVE",
"497 163 OFFCURVE",
"423 163 CURVE SMOOTH",
"304 163 OFFCURVE",
"236 245 OFFCURVE",
"236 352 CURVE SMOOTH",
"236 454 OFFCURVE",
"305 537 OFFCURVE",
"423 537 CURVE SMOOTH",
"502 537 OFFCURVE",
"571 502 OFFCURVE",
"616 455 CURVE",
"616 652 LINE",
"561 691 OFFCURVE",
"493 714 OFFCURVE",
"405 714 CURVE SMOOTH",
"193 714 OFFCURVE",
"36 554 OFFCURVE",
"36 350 CURVE SMOOTH",
"36 141 OFFCURVE",
"197 -14 OFFCURVE",
"397 -14 CURVE SMOOTH",
"485 -14 OFFCURVE",
"556 9 OFFCURVE",
"621 54 CURVE"
);
}
);
width = 648;
}
);
unicode = 0043;
},
{
glyphname = D;
layers = (
{
hints = (
{
horizontal = 1;
place = "{0, 172}";
type = Stem;
},
{
horizontal = 1;
place = "{528, 172}";
type = Stem;
},
{
place = "{65, 194}";
type = Stem;
},
{
place = "{531, 199}";
type = Stem;
}
);
layerId = "D00CCA55-2E43-4B58-A869-D5AA99E7DC06";
paths = (
{
closed = 1;
nodes = (
"65 0 LINE",
"331 0 LINE SMOOTH",
"583 0 OFFCURVE",
"730 152 OFFCURVE",
"730 354 CURVE SMOOTH",
"730 557 OFFCURVE",
"586 700 OFFCURVE",
"335 700 CURVE SMOOTH",
"65 700 LINE"
);
},
{
closed = 1;
nodes = (
"259 528 LINE",
"338 528 LINE SMOOTH",
"453 528 OFFCURVE",
"531 463 OFFCURVE",
"531 351 CURVE SMOOTH",
"531 238 OFFCURVE",
"454 172 OFFCURVE",
"338 172 CURVE SMOOTH",
"259 172 LINE"
);
}
);
width = 766;
}
);
unicode = 0044;
},
{
glyphname = E;
layers = (
{
hints = (
{
horizontal = 1;
place = "{0, 165}";
type = Stem;
},
{
horizontal = 1;
place = "{276, 153}";
type = Stem;
},
{
horizontal = 1;
place = "{535, 165}";
type = Stem;
},
{
place = "{65, 192}";
type = Stem;
}
);
layerId = "D00CCA55-2E43-4B58-A869-D5AA99E7DC06";
paths = (
{
closed = 1;
nodes = (
"257 276 LINE",
"593 276 LINE",
"593 429 LINE",
"257 429 LINE",
"257 535 LINE",
"628 535 LINE",
"628 700 LINE",
"65 700 LINE",
"65 0 LINE",
"633 0 LINE",
"633 165 LINE",
"257 165 LINE"
);
}
);
width = 673;
}
);
unicode = 0045;
},
{
glyphname = F;
layers = (
{
hints = (
{
horizontal = 1;
place = "{0, 21}";
target = up;
type = BottomGhost;
},
{
horizontal = 1;
place = "{250, 161}";
type = Stem;
},
{
horizontal = 1;
place = "{530, 170}";
type = Stem;
},
{
place = "{65, 194}";
type = Stem;
}
);
layerId = "D00CCA55-2E43-4B58-A869-D5AA99E7DC06";
paths = (
{
closed = 1;
nodes = (
"259 250 LINE",
"590 250 LINE",
"590 411 LINE",
"259 411 LINE",
"259 530 LINE",
"625 530 LINE",
"625 700 LINE",
"65 700 LINE",
"65 0 LINE",
"259 0 LINE"
);
}
);
width = 678;
}
);
unicode = 0046;
},
{
glyphname = G;
layers = (
{
hints = (
{
place = "{36, 199}";
type = Stem;
},
{
place = "{399, 204}";
type = Stem;
},
{
place = "{537, 184}";
type = Stem;
},
{
horizontal = 1;
place = "{-14, 167}";
type = Stem;
},
{
horizontal = 1;
place = "{267, 142}";
type = Stem;
},
{
horizontal = 1;
place = "{541, 173}";
type = Stem;
}
);
layerId = "D00CCA55-2E43-4B58-A869-D5AA99E7DC06";
paths = (
{
closed = 1;
nodes = (
"537 267 LINE",
"537 183 OFFCURVE",
"461 153 OFFCURVE",
"407 153 CURVE SMOOTH",
"313 153 OFFCURVE",
"235 234 OFFCURVE",
"235 349 CURVE SMOOTH",
"235 456 OFFCURVE",
"313 541 OFFCURVE",
"424 541 CURVE SMOOTH",
"489 541 OFFCURVE",
"552 518 OFFCURVE",
"603 475 CURVE",
"603 680 LINE",
"554 701 OFFCURVE",
"481 714 OFFCURVE",
"413 714 CURVE SMOOTH",
"196 714 OFFCURVE",
"36 554 OFFCURVE",
"36 350 CURVE SMOOTH",
"36 138 OFFCURVE",
"199 -14 OFFCURVE",
"397 -14 CURVE SMOOTH",
"552 -14 OFFCURVE",
"721 68 OFFCURVE",
"721 369 CURVE SMOOTH",
"721 409 LINE",
"399 409 LINE",
"399 267 LINE"
);
}
);
width = 774;
}
);
unicode = 0047;
},
{
glyphname = H;
layers = (
{
hints = (
{
horizontal = 1;
place = "{0, 21}";
target = up;
type = BottomGhost;
},
{
horizontal = 1;
place = "{266, 172}";
type = Stem;
},
{
horizontal = 1;
place = "{700, -20}";
target = down;
type = TopGhost;
},
{
place = "{65, 194}";
type = Stem;
},
{
place = "{508, 194}";
type = Stem;
}
);
layerId = "D00CCA55-2E43-4B58-A869-D5AA99E7DC06";
paths = (
{
closed = 1;
nodes = (
"65 0 LINE",
"259 0 LINE",
"259 266 LINE",
"508 266 LINE",
"508 0 LINE",
"702 0 LINE",
"702 700 LINE",
"508 700 LINE",
"508 438 LINE",
"259 438 LINE",
"259 700 LINE",
"65 700 LINE"
);
}
);
width = 766;
}
);
unicode = 0048;
},
{
glyphname = I;
layers = (
{
hints = (
{
horizontal = 1;
place = "{0, 21}";
target = up;
type = BottomGhost;
},
{
horizontal = 1;
place = "{700, -20}";
target = down;
type = TopGhost;
},
{
place = "{65, 195}";
type = Stem;
}
);
layerId = "D00CCA55-2E43-4B58-A869-D5AA99E7DC06";
paths = (
{
closed = 1;
nodes = (
"260 700 LINE",
"65 700 LINE",
"65 0 LINE",
"260 0 LINE"
);
}
);
width = 324;
}
);
unicode = 0049;
},
{
glyphname = J;
layers = (
{
hints = (
{
horizontal = 1;
place = "{-12, 171}";
type = Stem;
},
{
horizontal = 1;
place = "{700, -20}";
target = down;
type = TopGhost;
},
{
place = "{226, 193}";
type = Stem;
}
);
layerId = "D00CCA55-2E43-4B58-A869-D5AA99E7DC06";
paths = (
{
closed = 1;
nodes = (
"-3 41 LINE",
"24 22 OFFCURVE",
"49 8 OFFCURVE",
"77 0 CURVE SMOOTH",
"92 -5 OFFCURVE",
"104 -8 OFFCURVE",
"119 -9 CURVE SMOOTH",
"126 -10 OFFCURVE",
"133 -11 OFFCURVE",
"140 -11 CURVE",
"142 -12 OFFCURVE",
"144 -12 OFFCURVE",
"146 -12 CURVE",
"161 -12 LINE SMOOTH",
"310 -12 OFFCURVE",
"402 73 OFFCURVE",
"417 216 CURVE SMOOTH",
"418 229 OFFCURVE",
"419 241 OFFCURVE",
"419 256 CURVE SMOOTH",
"419 700 LINE",
"226 700 LINE",
"226 257 LINE SMOOTH",
"226 192 OFFCURVE",
"187 159 OFFCURVE",
"136 159 CURVE SMOOTH",
"113 159 OFFCURVE",
"93 164 OFFCURVE",
"74 175 CURVE SMOOTH",
"46 190 OFFCURVE",
"21 212 OFFCURVE",
"-3 235 CURVE"
);
}
);
width = 478;
}
);
unicode = 004A;
},
{
glyphname = K;
layers = (
{
hints = (
{
horizontal = 1;
place = "{0, 21}";
target = up;
type = BottomGhost;
},
{
horizontal = 1;
place = "{700, -20}";
target = down;
type = TopGhost;
},
{
place = "{65, 194}";
type = Stem;
}
);
layerId = "D00CCA55-2E43-4B58-A869-D5AA99E7DC06";
paths = (
{
closed = 1;
nodes = (
"259 700 LINE",
"65 700 LINE",
"65 0 LINE",
"259 0 LINE",
"259 368 LINE",
"506 0 LINE",
"739 0 LINE",
"465 399 LINE",
"730 700 LINE",
"500 700 LINE",
"259 416 LINE"
);
}
);
width = 739;
}
);
unicode = 004B;
},
{
glyphname = L;
layers = (
{
hints = (
{
horizontal = 1;
place = "{0, 170}";
type = Stem;
},
{
horizontal = 1;
place = "{700, -20}";
target = down;
type = TopGhost;
},
{
place = "{65, 194}";
type = Stem;
}
);
layerId = "D00CCA55-2E43-4B58-A869-D5AA99E7DC06";
paths = (
{
closed = 1;
nodes = (
"259 700 LINE",
"65 700 LINE",
"65 0 LINE",
"598 0 LINE",
"598 170 LINE",
"259 170 LINE"
);
}
);
width = 625;
}
);
unicode = 004C;
},
{
glyphname = M;
layers = (
{
hints = (
{
horizontal = 1;
place = "{0, 21}";
target = up;
type = BottomGhost;
},
{
horizontal = 1;
place = "{700, -20}";
target = down;
type = TopGhost;
},
{
place = "{50, 190}";
type = Stem;
},
{
place = "{601, 193}";
type = Stem;
}
);
layerId = "D00CCA55-2E43-4B58-A869-D5AA99E7DC06";
paths = (
{
closed = 1;
nodes = (
"420 128 LINE",
"601 402 LINE",
"601 0 LINE",
"794 0 LINE",
"794 700 LINE",
"589 700 LINE",
"422 429 LINE",
"255 700 LINE",
"50 700 LINE",
"50 0 LINE",
"240 0 LINE",
"240 400 LINE"
);
}
);
width = 845;
}
);
unicode = 004D;
},
{
glyphname = N;
layers = (
{
hints = (
{
horizontal = 1;
place = "{0, 21}";
target = up;
type = BottomGhost;
},
{
horizontal = 1;
place = "{700, -20}";
target = down;
type = TopGhost;
},
{
place = "{65, 192}";
type = Stem;
},
{
place = "{534, 192}";
type = Stem;
}
);
layerId = "D00CCA55-2E43-4B58-A869-D5AA99E7DC06";
paths = (
{
closed = 1;
nodes = (
"246 700 LINE",
"65 700 LINE",
"65 0 LINE",
"257 0 LINE",
"257 384 LINE",
"556 0 LINE",
"726 0 LINE",
"726 700 LINE",
"534 700 LINE",
"534 330 LINE"
);
}
);
width = 792;
}
);
unicode = 004E;
},
{
glyphname = O;
layers = (
{
hints = (
{
horizontal = 1;
place = "{-14, 175}";
type = Stem;
},
{
horizontal = 1;
place = "{539, 175}";
type = Stem;
},
{
place = "{36, 199}";
type = Stem;
},
{
place = "{591, 199}";
type = Stem;
}
);
layerId = "D00CCA55-2E43-4B58-A869-D5AA99E7DC06";
paths = (
{
closed = 1;
nodes = (
"790 552 OFFCURVE",
"629 714 OFFCURVE",
"413 714 CURVE SMOOTH",
"197 714 OFFCURVE",
"36 551 OFFCURVE",
"36 350 CURVE SMOOTH",
"36 149 OFFCURVE",
"196 -14 OFFCURVE",
"412 -14 CURVE SMOOTH",
"627 -14 OFFCURVE",
"790 151 OFFCURVE",
"790 352 CURVE SMOOTH"
);
},
{
closed = 1;
nodes = (
"591 250 OFFCURVE",
"520 161 OFFCURVE",
"413 161 CURVE SMOOTH",
"308 161 OFFCURVE",
"235 251 OFFCURVE",
"235 352 CURVE SMOOTH",
"235 453 OFFCURVE",
"306 539 OFFCURVE",
"412 539 CURVE SMOOTH",
"519 539 OFFCURVE",
"591 450 OFFCURVE",
"591 350 CURVE SMOOTH"
);
}
);
width = 826;
}
);
unicode = 004F;
},
{
glyphname = P;
layers = (
{
hints = (
{
horizontal = 1;
place = "{0, 21}";
target = up;
type = BottomGhost;
},
{
horizontal = 1;
place = "{200, 152}";
type = Stem;
},
{
horizontal = 1;
place = "{537, 163}";
type = Stem;
},
{
place = "{65, 194}";
type = Stem;
},
{
place = "{462, 194}";
type = Stem;
}
);
layerId = "D00CCA55-2E43-4B58-A869-D5AA99E7DC06";
paths = (
{
closed = 1;
nodes = (
"65 0 LINE",
"259 0 LINE",
"259 200 LINE",
"355 200 LINE SMOOTH",
"529 200 OFFCURVE",
"656 289 OFFCURVE",
"656 454 CURVE SMOOTH",
"656 610 OFFCURVE",
"542 700 OFFCURVE",
"365 700 CURVE SMOOTH",
"65 700 LINE"
);
},
{
closed = 1;
nodes = (
"259 537 LINE",
"350 537 LINE SMOOTH",
"421 537 OFFCURVE",
"462 505 OFFCURVE",
"462 445 CURVE SMOOTH",
"462 389 OFFCURVE",
"420 352 OFFCURVE",
"351 352 CURVE SMOOTH",
"259 352 LINE"
);
}
);
width = 685;
}
);
unicode = 0050;
},
{
glyphname = Q;
layers = (
{
hints = (
{
horizontal = 1;
place = "{-14, 175}";
type = Stem;
},
{
horizontal = 1;
place = "{539, 175}";
type = Stem;
},
{
place = "{36, 199}";
type = Stem;
},
{
place = "{591, 199}";
type = Stem;
}
);
layerId = "D00CCA55-2E43-4B58-A869-D5AA99E7DC06";
paths = (
{
closed = 1;
nodes = (
"846 -148 LINE",
"846 52 LINE",
"736 163 LINE",
"775 220 OFFCURVE",
"790 275 OFFCURVE",
"790 350 CURVE SMOOTH",
"790 553 OFFCURVE",
"629 714 OFFCURVE",
"413 714 CURVE SMOOTH",
"197 714 OFFCURVE",
"36 551 OFFCURVE",
"36 350 CURVE SMOOTH",
"36 147 OFFCURVE",
"196 -14 OFFCURVE",
"412 -14 CURVE SMOOTH",
"496 -14 OFFCURVE",
"589 13 OFFCURVE",
"634 55 CURVE"
);
},
{
closed = 1;
nodes = (
"591 247 OFFCURVE",
"520 161 OFFCURVE",
"413 161 CURVE SMOOTH",
"308 161 OFFCURVE",
"235 250 OFFCURVE",
"235 350 CURVE SMOOTH",
"235 453 OFFCURVE",
"306 539 OFFCURVE",
"412 539 CURVE SMOOTH",
"519 539 OFFCURVE",
"591 450 OFFCURVE",
"591 350 CURVE SMOOTH"
);
}
);
width = 880;
}
);
unicode = 0051;
},
{
glyphname = R;
layers = (
{
hints = (
{
horizontal = 1;
place = "{0, 21}";
target = up;
type = BottomGhost;
},
{
horizontal = 1;
place = "{212, 152}";
type = Stem;
},
{
horizontal = 1;
place = "{532, 168}";
type = Stem;
},
{
place = "{65, 195}";
type = Stem;
},
{
place = "{491, 195}";
type = Stem;
}
);
layerId = "D00CCA55-2E43-4B58-A869-D5AA99E7DC06";
paths = (
{
closed = 1;
nodes = (
"260 0 LINE",
"260 212 LINE",
"345 212 LINE",
"485 0 LINE",
"709 0 LINE",
"542 244 LINE",
"630 281 OFFCURVE",
"686 353 OFFCURVE",
"686 461 CURVE SMOOTH",
"686 605 OFFCURVE",
"591 700 OFFCURVE",
"396 700 CURVE SMOOTH",
"65 700 LINE",
"65 0 LINE"
);
},
{
closed = 1;
nodes = (
"260 364 LINE",
"260 532 LINE",
"386 532 LINE SMOOTH",
"451 532 OFFCURVE",
"491 505 OFFCURVE",
"491 449 CURVE SMOOTH",
"491 398 OFFCURVE",
"453 364 OFFCURVE",
"387 364 CURVE SMOOTH"
);
}
);
width = 727;
}
);
unicode = 0052;
},
{
glyphname = S;
layers = (
{
hints = (
{
horizontal = 1;
place = "{-12, 161}";
type = Stem;
},
{
horizontal = 1;
place = "{556, 156}";
type = Stem;
},
{
place = "{75, 196}";
type = Stem;
},
{
place = "{457, 195}";
type = Stem;
}
);
layerId = "D00CCA55-2E43-4B58-A869-D5AA99E7DC06";
paths = (
{
closed = 1;
nodes = (
"254 149 OFFCURVE",
"128 206 OFFCURVE",
"42 278 CURVE",
"42 104 LINE",
"130 24 OFFCURVE",
"253 -12 OFFCURVE",
"370 -12 CURVE SMOOTH",
"526 -12 OFFCURVE",
"635 59 OFFCURVE",
"651 181 CURVE SMOOTH",
"652 190 OFFCURVE",
"652 200 OFFCURVE",
"652 209 CURVE SMOOTH",
"652 322 OFFCURVE",
"575 387 OFFCURVE",
"470 416 CURVE SMOOTH",
"436 425 OFFCURVE",
"404 434 OFFCURVE",
"375 441 CURVE SMOOTH",
"316 456 OFFCURVE",
"271 470 OFFCURVE",
"271 506 CURVE SMOOTH",
"271 530 OFFCURVE",
"297 556 OFFCURVE",
"361 556 CURVE SMOOTH",
"452 556 OFFCURVE",
"563 503 OFFCURVE",
"634 442 CURVE",
"634 619 LINE",
"558 680 OFFCURVE",
"466 712 OFFCURVE",
"346 712 CURVE SMOOTH",
"205 712 OFFCURVE",
"75 640 OFFCURVE",
"75 488 CURVE SMOOTH",
"75 231 OFFCURVE",
"457 302 OFFCURVE",
"457 197 CURVE SMOOTH",
"457 152 OFFCURVE",
"400 149 OFFCURVE",
"367 149 CURVE SMOOTH"
);
}
);
width = 691;
}
);
unicode = 0053;
},
{
glyphname = T;
layers = (
{
hints = (
{
horizontal = 1;
place = "{0, 21}";
target = up;
type = BottomGhost;
},
{
horizontal = 1;
place = "{530, 170}";
type = Stem;
},
{
place = "{232, 194}";
type = Stem;
}
);
layerId = "D00CCA55-2E43-4B58-A869-D5AA99E7DC06";
paths = (
{
closed = 1;
nodes = (
"426 530 LINE",
"636 530 LINE",
"636 700 LINE",
"22 700 LINE",
"22 530 LINE",
"232 530 LINE",
"232 0 LINE",
"426 0 LINE"
);
}
);
width = 658;
}
);
unicode = 0054;
},
{
glyphname = U;
layers = (
{
hints = (
{
horizontal = 1;
place = "{-13, 175}";
type = Stem;
},
{
horizontal = 1;
place = "{700, -20}";
target = down;
type = TopGhost;
},
{
place = "{64, 197}";
type = Stem;
},
{
place = "{519, 197}";
type = Stem;
}
);
layerId = "D00CCA55-2E43-4B58-A869-D5AA99E7DC06";
paths = (
{
closed = 1;
nodes = (
"587 -13 OFFCURVE",
"716 86 OFFCURVE",
"716 312 CURVE SMOOTH",
"716 700 LINE",
"519 700 LINE",
"519 306 LINE SMOOTH",
"519 207 OFFCURVE",
"469 162 OFFCURVE",
"390 162 CURVE SMOOTH",
"311 162 OFFCURVE",
"261 210 OFFCURVE",
"261 311 CURVE SMOOTH",
"261 700 LINE",
"64 700 LINE",
"64 307 LINE SMOOTH",
"64 87 OFFCURVE",
"188 -13 OFFCURVE",
"388 -13 CURVE SMOOTH"
);
}
);
width = 780;
}
);
unicode = 0055;
},
{
glyphname = V;
layers = (
{
hints = (
{
horizontal = 1;
place = "{-5, 21}";
target = up;
type = BottomGhost;
},
{
horizontal = 1;
place = "{700, -20}";
target = down;
type = TopGhost;
},
{
place = "{13, 748}";
type = Stem;
}
);
layerId = "D00CCA55-2E43-4B58-A869-D5AA99E7DC06";
paths = (
{
closed = 1;
nodes = (
"13 700 LINE",
"297 -5 LINE",
"477 -5 LINE",
"761 700 LINE",
"548 700 LINE",
"389 257 LINE",
"230 700 LINE"
);
}
);
width = 773;
}
);
unicode = 0056;
},
{
glyphname = W;
layers = (
{
hints = (
{
horizontal = 1;
place = "{-5, 21}";
target = up;
type = BottomGhost;
},
{
horizontal = 1;
place = "{700, -20}";
target = down;
type = TopGhost;
},
{
horizontal = 1;
place = "{702, -20}";
target = down;
type = TopGhost;
},
{
place = "{16, 1087}";
type = Stem;
}
);
layerId = "D00CCA55-2E43-4B58-A869-D5AA99E7DC06";
paths = (
{
closed = 1;
nodes = (
"221 700 LINE",
"16 700 LINE",
"250 -5 LINE",
"419 -5 LINE",
"559 398 LINE",
"700 -5 LINE",
"869 -5 LINE",
"1103 700 LINE",
"902 700 LINE",
"780 295 LINE",
"645 702 LINE",
"478 702 LINE",
"343 295 LINE"
);
}
);
width = 1119;
}
);
unicode = 0057;
},
{
glyphname = X;
layers = (
{
hints = (
{
horizontal = 1;
place = "{0, 21}";
target = up;
type = BottomGhost;
},
{
horizontal = 1;
place = "{700, -20}";
target = down;
type = TopGhost;
},
{
place = "{14, 710}";
type = Stem;
}
);
layerId = "D00CCA55-2E43-4B58-A869-D5AA99E7DC06";
paths = (
{
closed = 1;
nodes = (
"24 700 LINE",
"254 356 LINE",
"14 0 LINE",
"232 0 LINE",
"367 211 LINE",
"501 0 LINE",
"724 0 LINE",
"484 358 LINE",
"714 700 LINE",
"496 700 LINE",
"371 503 LINE",
"247 700 LINE"
);
}
);
width = 737;
}
);
unicode = 0058;
},
{
glyphname = Y;
layers = (
{
hints = (
{
horizontal = 1;
place = "{0, 21}";
target = up;
type = BottomGhost;
},
{
horizontal = 1;
place = "{700, -20}";
target = down;
type = TopGhost;
},
{
place = "{273, 195}";
type = Stem;
}
);
layerId = "D00CCA55-2E43-4B58-A869-D5AA99E7DC06";
paths = (
{
closed = 1;
nodes = (
"468 265 LINE",
"734 700 LINE",
"517 700 LINE",
"372 445 LINE",
"228 700 LINE",
"7 700 LINE",
"273 262 LINE",
"273 0 LINE",
"468 0 LINE"
);
}
);
width = 743;
}
);
unicode = 0059;
},
{
glyphname = Z;
layers = (
{
hints = (
{
horizontal = 1;
place = "{0, 164}";
type = Stem;
},
{
horizontal = 1;
place = "{536, 164}";
type = Stem;
},
{
place = "{22, 619}";
type = Stem;
}
);
layerId = "D00CCA55-2E43-4B58-A869-D5AA99E7DC06";
paths = (
{
closed = 1;
nodes = (
"641 559 LINE",
"641 700 LINE",
"34 700 LINE",
"34 536 LINE",
"373 536 LINE",
"22 141 LINE",
"22 0 LINE",
"641 0 LINE",
"641 164 LINE",
"290 164 LINE"
);
}
);
width = 673;
}
);
unicode = 005A;
},
{
glyphname = bracketleft;
layers = (
{
hints = (
{
horizontal = 1;
place = "{-130, 129}";
type = Stem;
},
{
horizontal = 1;
place = "{571, 129}";
type = Stem;
},
{
place = "{66, 170}";
type = Stem;
}
);
layerId = "D00CCA55-2E43-4B58-A869-D5AA99E7DC06";
paths = (
{
closed = 1;
nodes = (
"412 700 LINE",
"66 700 LINE",
"66 -130 LINE",
"412 -130 LINE",
"412 -1 LINE",
"236 -1 LINE",
"236 571 LINE",
"412 571 LINE"
);
}
);
width = 467;
}
);
unicode = 005B;
},
{
glyphname = backslash;
layers = (
{
hints = (
{
horizontal = 1;
place = "{-128, 926}";
type = Stem;
},
{
place = "{17, 574}";
type = Stem;
}
);
layerId = "D00CCA55-2E43-4B58-A869-D5AA99E7DC06";
paths = (
{
closed = 1;
nodes = (
"449 -128 LINE",
"591 -103 LINE",
"160 798 LINE",
"17 776 LINE"
);
}
);
width = 616;
}
);
unicode = 005C;
},
{
glyphname = bracketright;
layers = (
{
hints = (
{
horizontal = 1;
place = "{-130, 129}";
type = Stem;
},
{
horizontal = 1;
place = "{571, 129}";
type = Stem;
},
{
place = "{230, 170}";
type = Stem;
}
);
layerId = "D00CCA55-2E43-4B58-A869-D5AA99E7DC06";
paths = (
{
closed = 1;
nodes = (
"54 -130 LINE",
"400 -130 LINE",
"400 700 LINE",
"54 700 LINE",
"54 571 LINE",
"230 571 LINE",
"230 -1 LINE",
"54 -1 LINE"
);
}
);
width = 466;
}
);
unicode = 005D;
},
{
glyphname = asciicircum;
layers = (
{
hints = (
{
place = "{37, 416}";
type = Stem;
},
{
horizontal = 1;
place = "{493, 206}";
type = Stem;
},
{
horizontal = 1;
place = "{590, 109}";
type = Stem;
}
);
layerId = "D00CCA55-2E43-4B58-A869-D5AA99E7DC06";
paths = (
{
closed = 1;
nodes = (
"37 493 LINE",
"168 493 LINE",
"244 590 LINE",
"320 493 LINE",
"453 493 LINE",
"309 699 LINE",
"181 699 LINE"
);
}
);
width = 488;
}
);
unicode = 005E;
},
{
glyphname = underscore;
layers = (
{
hints = (
{
horizontal = 1;
place = "{-160, 116}";
type = Stem;
},
{
place = "{0, 604}";
type = Stem;
}
);
layerId = "D00CCA55-2E43-4B58-A869-D5AA99E7DC06";
paths = (
{
closed = 1;
nodes = (
"0 -160 LINE",
"604 -160 LINE",
"604 -44 LINE",
"0 -44 LINE"
);
}
);
width = 604;
}
);
unicode = 005F;
},
{
glyphname = grave;
layers = (
{
hints = (
{
horizontal = 1;
place = "{715, -20}";
target = down;
type = TopGhost;
},
{
place = "{-4, 281}";
type = Stem;
}
);
layerId = "D00CCA55-2E43-4B58-A869-D5AA99E7DC06";
paths = (
{
closed = 1;
nodes = (
"143 587 LINE",
"277 587 LINE",
"173 772 LINE",
"-4 715 LINE"
);
}
);
width = 339;
}
);
unicode = 0060;
},
{
glyphname = a;
layers = (
{
hints = (
{
horizontal = 1;
place = "{-12, 119}";
type = Stem;
},
{
horizontal = 1;
place = "{235, 92}";
type = Stem;
},
{
horizontal = 1;
place = "{404, 145}";
type = Stem;
},
{
place = "{27, 185}";
type = Stem;
},
{
place = "{371, 185}";
type = Stem;
}
);
layerId = "D00CCA55-2E43-4B58-A869-D5AA99E7DC06";
paths = (
{
closed = 1;
nodes = (
"556 -12 LINE",
"556 311 LINE SMOOTH",
"556 466 OFFCURVE",
"476 549 OFFCURVE",
"288 549 CURVE SMOOTH",
"200 549 OFFCURVE",
"137 532 OFFCURVE",
"74 507 CURVE",
"74 373 LINE",
"134 396 OFFCURVE",
"185 404 OFFCURVE",
"238 404 CURVE SMOOTH",
"327 404 OFFCURVE",
"371 378 OFFCURVE",
"371 315 CURVE SMOOTH",
"371 306 LINE",
"340 317 OFFCURVE",
"291 327 OFFCURVE",
"239 327 CURVE SMOOTH",
"114 327 OFFCURVE",
"27 269 OFFCURVE",
"27 157 CURVE SMOOTH",
"27 49 OFFCURVE",
"107 -12 OFFCURVE",
"212 -12 CURVE SMOOTH",
"283 -12 OFFCURVE",
"333 15 OFFCURVE",
"370 56 CURVE"
);
},
{
closed = 1;
nodes = (
"371 139 LINE",
"344 116 OFFCURVE",
"315 107 OFFCURVE",
"284 107 CURVE SMOOTH",
"245 107 OFFCURVE",
"212 133 OFFCURVE",
"212 170 CURVE SMOOTH",
"212 206 OFFCURVE",
"244 235 OFFCURVE",
"300 235 CURVE SMOOTH",
"327 235 OFFCURVE",
"354 229 OFFCURVE",
"371 221 CURVE"
);
}
);
width = 605;
}
);
unicode = 0061;
},
{
glyphname = b;
layers = (
{
hints = (
{
horizontal = 1;
place = "{-12, 159}";
type = Stem;
},
{
horizontal = 1;
place = "{394, 159}";
type = Stem;
},
{
place = "{53, 190}";
type = Stem;
},
{
place = "{460, 187}";
type = Stem;
}
);
layerId = "D00CCA55-2E43-4B58-A869-D5AA99E7DC06";
paths = (
{
closed = 1;
nodes = (
"536 -12 OFFCURVE",
"647 95 OFFCURVE",
"647 271 CURVE SMOOTH",
"647 446 OFFCURVE",
"535 553 OFFCURVE",
"407 553 CURVE SMOOTH",
"326 553 OFFCURVE",
"280 514 OFFCURVE",
"243 469 CURVE",
"243 730 LINE",
"53 730 LINE",
"53 -12 LINE",
"243 66 LINE",
"278 25 OFFCURVE",
"325 -12 OFFCURVE",
"408 -12 CURVE SMOOTH"
);
},
{
closed = 1;
nodes = (
"460 197 OFFCURVE",
"411 147 OFFCURVE",
"349 147 CURVE SMOOTH",
"288 147 OFFCURVE",
"240 198 OFFCURVE",
"240 270 CURVE SMOOTH",
"240 343 OFFCURVE",
"288 394 OFFCURVE",
"349 394 CURVE SMOOTH",
"411 394 OFFCURVE",
"460 343 OFFCURVE",
"460 272 CURVE SMOOTH"
);
}
);
width = 678;
}
);
unicode = 0062;
},
{
glyphname = c;
layers = (
{
hints = (
{
horizontal = 1;
place = "{-13, 160}";
type = Stem;
},
{
horizontal = 1;
place = "{392, 160}";
type = Stem;
},
{
place = "{32, 185}";
type = Stem;
}
);
layerId = "D00CCA55-2E43-4B58-A869-D5AA99E7DC06";
paths = (
{
closed = 1;
nodes = (
"434 537 LINE",
"403 548 OFFCURVE",
"359 552 OFFCURVE",
"322 552 CURVE SMOOTH",
"151 552 OFFCURVE",
"32 422 OFFCURVE",
"32 270 CURVE SMOOTH",
"32 115 OFFCURVE",
"157 -13 OFFCURVE",
"320 -13 CURVE SMOOTH",
"360 -13 OFFCURVE",
"406 -6 OFFCURVE",
"439 6 CURVE",
"439 183 LINE",
"406 156 OFFCURVE",
"371 147 OFFCURVE",
"340 147 CURVE SMOOTH",
"271 147 OFFCURVE",
"217 201 OFFCURVE",
"217 270 CURVE SMOOTH",
"217 338 OFFCURVE",
"266 392 OFFCURVE",
"337 392 CURVE SMOOTH",
"376 392 OFFCURVE",
"405 378 OFFCURVE",
"434 355 CURVE"
);
}
);
width = 458;
}
);
unicode = 0063;
},
{
glyphname = d;
layers = (
{
hints = (
{
horizontal = 1;
place = "{-12, 159}";
type = Stem;
},
{
horizontal = 1;
place = "{394, 159}";
type = Stem;
},
{
place = "{31, 187}";
type = Stem;
},
{
place = "{435, 190}";
type = Stem;
}
);
layerId = "D00CCA55-2E43-4B58-A869-D5AA99E7DC06";
paths = (
{
closed = 1;
nodes = (
"625 -12 LINE",
"625 730 LINE",
"435 730 LINE",
"435 475 LINE",
"399 516 OFFCURVE",
"351 553 OFFCURVE",
"270 553 CURVE SMOOTH",
"142 553 OFFCURVE",
"31 446 OFFCURVE",
"31 270 CURVE SMOOTH",
"31 95 OFFCURVE",
"143 -12 OFFCURVE",
"271 -12 CURVE SMOOTH",
"351 -12 OFFCURVE",
"398 27 OFFCURVE",
"435 72 CURVE"
);
},
{
closed = 1;
nodes = (
"218 344 OFFCURVE",
"269 394 OFFCURVE",
"328 394 CURVE SMOOTH",
"389 394 OFFCURVE",
"438 343 OFFCURVE",
"438 272 CURVE SMOOTH",
"438 197 OFFCURVE",
"389 147 OFFCURVE",
"328 147 CURVE SMOOTH",
"269 147 OFFCURVE",
"218 198 OFFCURVE",
"218 270 CURVE SMOOTH"
);
}
);
width = 680;
}
);
unicode = 0064;
},
{
glyphname = e;
layers = (
{
hints = (
{
horizontal = 1;
place = "{-17, 138}";
type = Stem;
},
{
horizontal = 1;
place = "{407, 141}";
type = Stem;
},
{
place = "{32, 180}";
type = Stem;
}
);
layerId = "D00CCA55-2E43-4B58-A869-D5AA99E7DC06";
paths = (
{
closed = 1;
nodes = (
"281 121 OFFCURVE",
"251 128 OFFCURVE",
"227 148 CURVE",
"582 240 LINE",
"582 401 OFFCURVE",
"490 548 OFFCURVE",
"314 548 CURVE SMOOTH",
"150 548 OFFCURVE",
"32 429 OFFCURVE",
"32 269 CURVE SMOOTH",
"32 104 OFFCURVE",
"147 -17 OFFCURVE",
"314 -17 CURVE SMOOTH",
"373 -17 OFFCURVE",
"460 -3 OFFCURVE",
"529 42 CURVE",
"529 190 LINE",
"478 144 OFFCURVE",
"383 121 OFFCURVE",
"317 121 CURVE SMOOTH"
);
},
{
closed = 1;
nodes = (
"212 275 LINE SMOOTH",
"212 334 OFFCURVE",
"234 407 OFFCURVE",
"303 407 CURVE SMOOTH",
"350 407 OFFCURVE",
"384 375 OFFCURVE",
"396 319 CURVE",
"212 272 LINE"
);
}
);
width = 610;
}
);
unicode = 0065;
},
{
glyphname = f;
layers = (
{
hints = (
{
horizontal = 1;
place = "{0, 21}";
target = up;
type = BottomGhost;
},
{
horizontal = 1;
place = "{389, 146}";
type = Stem;
},
{
horizontal = 1;
place = "{599, 138}";
type = Stem;
},
{
place = "{98, 189}";
type = Stem;
}
);
layerId = "D00CCA55-2E43-4B58-A869-D5AA99E7DC06";
paths = (
{
closed = 1;
nodes = (
"409 722 LINE",
"378 731 OFFCURVE",
"342 737 OFFCURVE",
"293 737 CURVE SMOOTH",
"172 737 OFFCURVE",
"98 681 OFFCURVE",
"98 550 CURVE SMOOTH",
"98 535 LINE",
"15 389 LINE",
"98 389 LINE",
"98 0 LINE",
"287 0 LINE",
"287 389 LINE",
"408 389 LINE",
"408 535 LINE",
"254 535 LINE",
"254 548 LINE SMOOTH",
"254 583 OFFCURVE",
"297 599 OFFCURVE",
"332 599 CURVE SMOOTH",
"355 599 OFFCURVE",
"386 595 OFFCURVE",
"409 588 CURVE"
);
}
);
width = 405;
}
);
unicode = 0066;
},
{
glyphname = g;
layers = (
{
hints = (
{
horizontal = 1;
place = "{-162, 137}";
type = Stem;
},
{
horizontal = 1;
place = "{48, 148}";
type = Stem;
},
{
horizontal = 1;
place = "{405, 148}";
type = Stem;
},
{
place = "{32, 187}";
type = Stem;
},
{
place = "{439, 187}";
type = Stem;
}
);
layerId = "D00CCA55-2E43-4B58-A869-D5AA99E7DC06";
paths = (
{
closed = 1;
nodes = (
"196 -25 OFFCURVE",
"102 16 OFFCURVE",
"47 50 CURVE",
"47 -100 LINE",
"126 -140 OFFCURVE",
"189 -162 OFFCURVE",
"285 -162 CURVE SMOOTH",
"482 -162 OFFCURVE",
"626 -66 OFFCURVE",
"626 131 CURVE SMOOTH",
"626 541 LINE",
"436 477 LINE",
"395 520 OFFCURVE",
"348 553 OFFCURVE",
"272 553 CURVE SMOOTH",
"141 553 OFFCURVE",
"32 457 OFFCURVE",
"32 301 CURVE SMOOTH",
"32 145 OFFCURVE",
"140 48 OFFCURVE",
"271 48 CURVE SMOOTH",
"352 48 OFFCURVE",
"400 85 OFFCURVE",
"439 130 CURVE",
"439 109 LINE SMOOTH",
"439 21 OFFCURVE",
"380 -25 OFFCURVE",
"283 -25 CURVE SMOOTH"
);
},
{
closed = 1;
nodes = (
"219 360 OFFCURVE",
"264 405 OFFCURVE",
"329 405 CURVE SMOOTH",
"393 405 OFFCURVE",
"439 361 OFFCURVE",
"439 302 CURVE SMOOTH",
"439 241 OFFCURVE",
"393 196 OFFCURVE",
"329 196 CURVE SMOOTH",
"264 196 OFFCURVE",
"219 240 OFFCURVE",
"219 299 CURVE SMOOTH"
);
}
);
width = 680;
}
);
unicode = 0067;
},
{
glyphname = h;
layers = (
{
hints = (
{
place = "{58, 190}";
type = Stem;
},
{
place = "{404, 190}";
type = Stem;
},
{
horizontal = 1;
place = "{0, 21}";
target = up;
type = BottomGhost;
},
{
horizontal = 1;
place = "{384, 169}";
type = Stem;
},
{
horizontal = 1;
place = "{553, -20}";
target = down;
type = TopGhost;
}
);
layerId = "D00CCA55-2E43-4B58-A869-D5AA99E7DC06";
paths = (
{
closed = 1;
nodes = (
"333 553 OFFCURVE",
"283 512 OFFCURVE",
"248 467 CURVE",
"248 730 LINE",
"58 730 LINE",
"58 0 LINE",
"248 0 LINE",
"248 293 LINE SMOOTH",
"248 352 OFFCURVE",
"285 384 OFFCURVE",
"328 384 CURVE SMOOTH",
"371 384 OFFCURVE",
"404 353 OFFCURVE",
"404 293 CURVE SMOOTH",
"404 0 LINE",
"594 0 LINE",
"594 354 LINE SMOOTH",
"594 477 OFFCURVE",
"518 553 OFFCURVE",
"410 553 CURVE SMOOTH"
);
}
);
width = 651;
}
);
unicode = 0068;
},
{
glyphname = i;
layers = (
{
hints = (
{
place = "{57, 215}";
type = Stem;
},
{
place = "{70, 190}";
type = Stem;
},
{
horizontal = 1;
place = "{0, 21}";
target = up;
type = BottomGhost;
},
{
horizontal = 1;
place = "{587, 193}";
type = Stem;
}
);
layerId = "D00CCA55-2E43-4B58-A869-D5AA99E7DC06";
paths = (
{
closed = 1;
nodes = (
"57 620 OFFCURVE",
"104 587 OFFCURVE",
"164 587 CURVE SMOOTH",
"224 587 OFFCURVE",
"272 620 OFFCURVE",
"272 684 CURVE SMOOTH",
"272 748 OFFCURVE",
"224 780 OFFCURVE",
"164 780 CURVE SMOOTH",
"104 780 OFFCURVE",
"57 748 OFFCURVE",
"57 684 CURVE SMOOTH"
);
},
{
closed = 1;
nodes = (
"260 541 LINE",
"70 541 LINE",
"70 0 LINE",
"260 0 LINE"
);
}
);
width = 329;
}
);
unicode = 0069;
},
{
glyphname = j;
layers = (
{
hints = (
{
place = "{29, 215}";
type = Stem;
},
{
place = "{42, 190}";
type = Stem;
},
{
horizontal = 1;
place = "{-163, 132}";
type = Stem;
},
{
horizontal = 1;
place = "{587, 193}";
type = Stem;
}
);
layerId = "D00CCA55-2E43-4B58-A869-D5AA99E7DC06";
paths = (
{
closed = 1;
nodes = (
"29 620 OFFCURVE",
"76 587 OFFCURVE",
"136 587 CURVE SMOOTH",
"196 587 OFFCURVE",
"244 620 OFFCURVE",
"244 684 CURVE SMOOTH",
"244 748 OFFCURVE",
"196 780 OFFCURVE",
"136 780 CURVE SMOOTH",
"76 780 OFFCURVE",
"29 748 OFFCURVE",
"29 684 CURVE SMOOTH"
);
},
{
closed = 1;
nodes = (
"-39 -156 LINE",
"-16 -160 OFFCURVE",
"8 -163 OFFCURVE",
"39 -163 CURVE SMOOTH",
"162 -163 OFFCURVE",
"232 -113 OFFCURVE",
"232 24 CURVE SMOOTH",
"232 541 LINE",
"42 541 LINE",
"42 32 LINE SMOOTH",
"42 -15 OFFCURVE",
"23 -31 OFFCURVE",
"-1 -31 CURVE SMOOTH",
"-13 -31 OFFCURVE",
"-24 -28 OFFCURVE",
"-39 -23 CURVE"
);
}
);
width = 298;
}
);
unicode = 006A;
},
{
glyphname = k;
layers = (
{
hints = (
{
horizontal = 1;
place = "{0, 21}";
target = up;
type = BottomGhost;
},
{
place = "{58, 190}";
type = Stem;
}
);
layerId = "D00CCA55-2E43-4B58-A869-D5AA99E7DC06";
paths = (
{
closed = 1;
nodes = (
"248 730 LINE",
"58 730 LINE",
"58 0 LINE",
"248 0 LINE",
"248 283 LINE",
"406 0 LINE",
"615 0 LINE",
"422 324 LINE",
"610 541 LINE",
"395 541 LINE",
"248 360 LINE"
);
}
);
width = 598;
}
);
unicode = 006B;
},
{
glyphname = l;
layers = (
{
hints = (
{
horizontal = 1;
place = "{0, 21}";
target = up;
type = BottomGhost;
},
{
place = "{58, 190}";
type = Stem;
}
);
layerId = "D00CCA55-2E43-4B58-A869-D5AA99E7DC06";
paths = (
{
closed = 1;
nodes = (
"248 730 LINE",
"58 730 LINE",
"58 0 LINE",
"248 0 LINE"
);
}
);
width = 307;
}
);
unicode = 006C;
},
{
glyphname = m;
layers = (
{
hints = (
{
horizontal = 1;
place = "{0, 21}";
target = up;
type = BottomGhost;
},
{
horizontal = 1;
place = "{384, 169}";
type = Stem;
},
{
place = "{54, 190}";
type = Stem;
},
{
place = "{395, 190}";
type = Stem;
},
{
place = "{737, 190}";
type = Stem;
}
);
layerId = "D00CCA55-2E43-4B58-A869-D5AA99E7DC06";
paths = (
{
closed = 1;
nodes = (
"927 0 LINE",
"927 355 LINE SMOOTH",
"927 462 OFFCURVE",
"858 553 OFFCURVE",
"743 553 CURVE SMOOTH",
"663 553 OFFCURVE",
"608 520 OFFCURVE",
"561 465 CURVE",
"532 525 OFFCURVE",
"471 553 OFFCURVE",
"407 553 CURVE SMOOTH",
"339 553 OFFCURVE",
"287 520 OFFCURVE",
"244 467 CURVE",
"54 541 LINE",
"54 0 LINE",
"244 0 LINE",
"244 294 LINE SMOOTH",
"244 353 OFFCURVE",
"278 384 OFFCURVE",
"321 384 CURVE SMOOTH",
"364 384 OFFCURVE",
"395 353 OFFCURVE",
"395 294 CURVE SMOOTH",
"395 0 LINE",
"585 0 LINE",
"585 294 LINE SMOOTH",
"585 341 OFFCURVE",
"612 384 OFFCURVE",
"663 384 CURVE SMOOTH",
"706 384 OFFCURVE",
"737 354 OFFCURVE",
"737 294 CURVE SMOOTH",
"737 0 LINE"
);
}
);
width = 983;
}
);
unicode = 006D;
},
{
glyphname = n;
layers = (
{
hints = (
{
place = "{53, 190}";
type = Stem;
},
{
place = "{399, 190}";
type = Stem;
},
{
horizontal = 1;
place = "{0, 21}";
target = up;
type = BottomGhost;
},
{
horizontal = 1;
place = "{384, 169}";
type = Stem;
},
{
horizontal = 1;
place = "{553, -20}";
target = down;
type = TopGhost;
}
);
layerId = "D00CCA55-2E43-4B58-A869-D5AA99E7DC06";
paths = (
{
closed = 1;
nodes = (
"328 553 OFFCURVE",
"278 510 OFFCURVE",
"243 465 CURVE",
"53 541 LINE",
"53 0 LINE",
"243 0 LINE",
"243 293 LINE SMOOTH",
"243 352 OFFCURVE",
"280 384 OFFCURVE",
"323 384 CURVE SMOOTH",
"366 384 OFFCURVE",
"399 352 OFFCURVE",
"399 293 CURVE SMOOTH",
"399 0 LINE",
"589 0 LINE",
"589 354 LINE SMOOTH",
"589 477 OFFCURVE",
"510 553 OFFCURVE",
"405 553 CURVE SMOOTH"
);
}
);
width = 646;
}
);
unicode = 006E;
},
{
glyphname = o;
layers = (
{
hints = (
{
horizontal = 1;
place = "{-13, 161}";
type = Stem;
},
{
horizontal = 1;
place = "{392, 161}";
type = Stem;
},
{
place = "{32, 185}";
type = Stem;
},
{
place = "{445, 185}";
type = Stem;
}
);
layerId = "D00CCA55-2E43-4B58-A869-D5AA99E7DC06";
paths = (
{
closed = 1;
nodes = (
"630 427 OFFCURVE",
"505 553 OFFCURVE",
"332 553 CURVE SMOOTH",
"159 553 OFFCURVE",
"32 425 OFFCURVE",
"32 270 CURVE SMOOTH",
"32 115 OFFCURVE",
"157 -13 OFFCURVE",
"330 -13 CURVE SMOOTH",
"503 -13 OFFCURVE",
"630 118 OFFCURVE",
"630 272 CURVE SMOOTH"
);
},
{
closed = 1;
nodes = (
"445 205 OFFCURVE",
"401 148 OFFCURVE",
"332 148 CURVE SMOOTH",
"265 148 OFFCURVE",
"217 205 OFFCURVE",
"217 272 CURVE SMOOTH",
"217 337 OFFCURVE",
"261 392 OFFCURVE",
"330 392 CURVE SMOOTH",
"397 392 OFFCURVE",
"445 336 OFFCURVE",
"445 270 CURVE SMOOTH"
);
}
);
width = 663;
}
);
unicode = 006F;
},
{
glyphname = p;
layers = (
{
hints = (
{
horizontal = 1;
place = "{-160, 21}";
target = up;
type = BottomGhost;
},
{
horizontal = 1;
place = "{-12, 159}";
type = Stem;
},
{
horizontal = 1;
place = "{394, 159}";
type = Stem;
},
{
place = "{53, 190}";
type = Stem;
},
{
place = "{460, 187}";
type = Stem;
}
);
layerId = "D00CCA55-2E43-4B58-A869-D5AA99E7DC06";
paths = (
{
closed = 1;
nodes = (
"243 66 LINE",
"278 25 OFFCURVE",
"325 -12 OFFCURVE",
"408 -12 CURVE SMOOTH",
"536 -12 OFFCURVE",
"647 95 OFFCURVE",
"647 271 CURVE SMOOTH",
"647 446 OFFCURVE",
"535 553 OFFCURVE",
"407 553 CURVE SMOOTH",
"326 553 OFFCURVE",
"280 514 OFFCURVE",
"243 469 CURVE",
"53 541 LINE",
"53 -160 LINE",
"243 -160 LINE"
);
},
{
closed = 1;
nodes = (
"460 197 OFFCURVE",
"411 147 OFFCURVE",
"349 147 CURVE SMOOTH",
"288 147 OFFCURVE",
"240 198 OFFCURVE",
"240 270 CURVE SMOOTH",
"240 343 OFFCURVE",
"288 394 OFFCURVE",
"349 394 CURVE SMOOTH",
"411 394 OFFCURVE",
"460 343 OFFCURVE",
"460 272 CURVE SMOOTH"
);
}
);
width = 680;
}
);
unicode = 0070;
},
{
glyphname = q;
layers = (
{
hints = (
{
horizontal = 1;
place = "{-160, 21}";
target = up;
type = BottomGhost;
},
{
horizontal = 1;
place = "{-12, 159}";
type = Stem;
},
{
horizontal = 1;
place = "{394, 159}";
type = Stem;
},
{
place = "{32, 187}";
type = Stem;
},
{
place = "{436, 190}";
type = Stem;
}
);
layerId = "D00CCA55-2E43-4B58-A869-D5AA99E7DC06";
paths = (
{
closed = 1;
nodes = (
"626 -160 LINE",
"626 541 LINE",
"436 475 LINE",
"400 516 OFFCURVE",
"352 553 OFFCURVE",
"271 553 CURVE SMOOTH",
"143 553 OFFCURVE",
"32 446 OFFCURVE",
"32 270 CURVE SMOOTH",
"32 97 OFFCURVE",
"144 -12 OFFCURVE",
"272 -12 CURVE SMOOTH",
"352 -12 OFFCURVE",
"399 27 OFFCURVE",
"436 72 CURVE",
"436 -160 LINE"
);
},
{
closed = 1;
nodes = (
"219 344 OFFCURVE",
"270 394 OFFCURVE",
"329 394 CURVE SMOOTH",
"390 394 OFFCURVE",
"439 343 OFFCURVE",
"439 272 CURVE SMOOTH",
"439 200 OFFCURVE",
"390 147 OFFCURVE",
"329 147 CURVE SMOOTH",
"270 147 OFFCURVE",
"219 200 OFFCURVE",
"219 272 CURVE SMOOTH"
);
}
);
width = 681;
}
);
unicode = 0071;
},
{
glyphname = r;
layers = (
{
hints = (
{
horizontal = 1;
place = "{0, 21}";
target = up;
type = BottomGhost;
},
{
horizontal = 1;
place = "{350, 200}";
type = Stem;
},
{
place = "{53, 190}";
type = Stem;
}
);
layerId = "D00CCA55-2E43-4B58-A869-D5AA99E7DC06";
paths = (
{
closed = 1;
nodes = (
"414 550 LINE",
"405 550 LINE SMOOTH",
"320 550 OFFCURVE",
"274 504 OFFCURVE",
"243 432 CURVE",
"53 541 LINE",
"53 0 LINE",
"243 0 LINE",
"243 168 LINE SMOOTH",
"243 292 OFFCURVE",
"299 350 OFFCURVE",
"398 350 CURVE SMOOTH",
"414 350 LINE"
);
}
);
width = 435;
}
);
unicode = 0072;
},
{
glyphname = s;
layers = (
{
hints = (
{
horizontal = 1;
place = "{-12, 133}";
type = Stem;
},
{
horizontal = 1;
place = "{419, 133}";
type = Stem;
},
{
place = "{30, 172}";
type = Stem;
},
{
place = "{309, 172}";
type = Stem;
}
);
layerId = "D00CCA55-2E43-4B58-A869-D5AA99E7DC06";
paths = (
{
closed = 1;
nodes = (
"192 121 OFFCURVE",
"107 152 OFFCURVE",
"45 193 CURVE",
"45 38 LINE",
"120 7 OFFCURVE",
"185 -12 OFFCURVE",
"260 -12 CURVE SMOOTH",
"392 -12 OFFCURVE",
"481 53 OFFCURVE",
"481 164 CURVE SMOOTH",
"481 351 OFFCURVE",
"202 321 OFFCURVE",
"202 391 CURVE SMOOTH",
"202 408 OFFCURVE",
"217 419 OFFCURVE",
"246 419 CURVE SMOOTH",
"291 419 OFFCURVE",
"380 391 OFFCURVE",
"435 360 CURVE",
"435 513 LINE",
"374 537 OFFCURVE",
"326 552 OFFCURVE",
"248 552 CURVE SMOOTH",
"123 552 OFFCURVE",
"30 487 OFFCURVE",
"30 373 CURVE SMOOTH",
"30 180 OFFCURVE",
"309 213 OFFCURVE",
"309 152 CURVE SMOOTH",
"309 131 OFFCURVE",
"279 121 OFFCURVE",
"248 121 CURVE SMOOTH"
);
}
);
width = 510;
}
);
unicode = 0073;
},
{
glyphname = t;
layers = (
{
hints = (
{
place = "{121, 190}";
type = Stem;
},
{
horizontal = 1;
place = "{-11, 162}";
type = Stem;
},
{
horizontal = 1;
place = "{-11, 21}";
target = up;
type = BottomGhost;
},
{
horizontal = 1;
place = "{388, 153}";
type = Stem;
},
{
horizontal = 1;
place = "{708, -20}";
target = down;
type = TopGhost;
}
);
layerId = "D00CCA55-2E43-4B58-A869-D5AA99E7DC06";
paths = (
{
closed = 1;
nodes = (
"121 168 LINE SMOOTH",
"121 39 OFFCURVE",
"194 -11 OFFCURVE",
"303 -11 CURVE SMOOTH",
"356 -11 OFFCURVE",
"400 1 OFFCURVE",
"435 20 CURVE",
"435 169 LINE",
"410 158 OFFCURVE",
"388 151 OFFCURVE",
"363 151 CURVE SMOOTH",
"328 151 OFFCURVE",
"311 166 OFFCURVE",
"311 205 CURVE SMOOTH",
"311 388 LINE",
"437 388 LINE",
"437 541 LINE",
"311 541 LINE",
"311 708 LINE",
"17 388 LINE",
"121 388 LINE"
);
}
);
width = 466;
}
);
unicode = 0074;
},
{
glyphname = u;
layers = (
{
hints = (
{
place = "{57, 190}";
type = Stem;
},
{
place = "{403, 190}";
type = Stem;
},
{
horizontal = 1;
place = "{-12, 169}";
type = Stem;
},
{
horizontal = 1;
place = "{-12, 21}";
target = up;
type = BottomGhost;
},
{
horizontal = 1;
place = "{0, 21}";
target = up;
type = BottomGhost;
}
);
layerId = "D00CCA55-2E43-4B58-A869-D5AA99E7DC06";
paths = (
{
closed = 1;
nodes = (
"318 -12 OFFCURVE",
"368 29 OFFCURVE",
"403 74 CURVE",
"593 0 LINE",
"593 541 LINE",
"403 541 LINE",
"403 248 LINE SMOOTH",
"403 189 OFFCURVE",
"369 157 OFFCURVE",
"324 157 CURVE SMOOTH",
"278 157 OFFCURVE",
"247 189 OFFCURVE",
"247 248 CURVE SMOOTH",
"247 541 LINE",
"57 541 LINE",
"57 187 LINE SMOOTH",
"57 63 OFFCURVE",
"125 -12 OFFCURVE",
"241 -12 CURVE SMOOTH"
);
}
);
width = 648;
}
);
unicode = 0075;
},
{
glyphname = v;
layers = (
{
hints = (
{
horizontal = 1;
place = "{-4, 21}";
target = up;
type = BottomGhost;
},
{
place = "{8, 605}";
type = Stem;
}
);
layerId = "D00CCA55-2E43-4B58-A869-D5AA99E7DC06";
paths = (
{
closed = 1;
nodes = (
"613 541 LINE",
"416 541 LINE",
"312 225 LINE",
"208 541 LINE",
"8 541 LINE",
"224 -4 LINE",
"397 -4 LINE"
);
}
);
width = 621;
}
);
unicode = 0076;
},
{
glyphname = w;
layers = (
{
hints = (
{
horizontal = 1;
place = "{-4, 21}";
target = up;
type = BottomGhost;
},
{
horizontal = 1;
place = "{543, -20}";
target = down;
type = TopGhost;
},
{
place = "{8, 837}";
type = Stem;
}
);
layerId = "D00CCA55-2E43-4B58-A869-D5AA99E7DC06";
paths = (
{
closed = 1;
nodes = (
"8 541 LINE",
"173 -4 LINE",
"336 -4 LINE",
"426 277 LINE",
"514 -4 LINE",
"678 -4 LINE",
"845 541 LINE",
"662 541 LINE",
"589 267 LINE",
"505 543 LINE",
"348 543 LINE",
"265 269 LINE",
"194 541 LINE"
);
}
);
width = 854;
}
);
unicode = 0077;
},
{
glyphname = x;
layers = (
{
hints = (
{
horizontal = 1;
place = "{0, 21}";
target = up;
type = BottomGhost;
},
{
place = "{1, 573}";
type = Stem;
}
);
layerId = "D00CCA55-2E43-4B58-A869-D5AA99E7DC06";
paths = (
{
closed = 1;
nodes = (
"1 0 LINE",
"201 0 LINE",
"286 139 LINE",
"370 0 LINE",
"574 0 LINE",
"392 274 LINE",
"570 541 LINE",
"369 541 LINE",
"289 408 LINE",
"209 541 LINE",
"4 541 LINE",
"183 273 LINE"
);
}
);
width = 575;
}
);
unicode = 0078;
},
{
glyphname = y;
layers = (
{
hints = (
{
horizontal = 1;
place = "{-160, 21}";
target = up;
type = BottomGhost;
},
{
place = "{-1, 604}";
type = Stem;
}
);
layerId = "D00CCA55-2E43-4B58-A869-D5AA99E7DC06";
paths = (
{
closed = 1;
nodes = (
"227 -6 LINE",
"178 -160 LINE",
"339 -160 LINE",
"603 541 LINE",
"408 541 LINE",
"306 195 LINE",
"198 541 LINE",
"-1 541 LINE"
);
}
);
width = 610;
}
);
unicode = 0079;
},
{
glyphname = z;
layers = (
{
hints = (
{
horizontal = 1;
place = "{0, 151}";
type = Stem;
},
{
horizontal = 1;
place = "{390, 151}";
type = Stem;
},
{
place = "{25, 502}";
type = Stem;
}
);
layerId = "D00CCA55-2E43-4B58-A869-D5AA99E7DC06";
paths = (
{
closed = 1;
nodes = (
"527 416 LINE",
"527 541 LINE",
"34 541 LINE",
"34 390 LINE",
"275 390 LINE",
"25 125 LINE",
"25 0 LINE",
"527 0 LINE",
"527 151 LINE",
"276 151 LINE"
);
}
);
width = 551;
}
);
unicode = 007A;
},
{
glyphname = braceleft;
layers = (
{
hints = (
{
place = "{163, 169}";
type = Stem;
},
{
place = "{166, 166}";
type = Stem;
},
{
horizontal = 1;
place = "{224, 126}";
type = Stem;
},
{
horizontal = 1;
place = "{715, -20}";
target = down;
type = TopGhost;
}
);
layerId = "D00CCA55-2E43-4B58-A869-D5AA99E7DC06";
paths = (
{
closed = 1;
nodes = (
"32 224 LINE",
"108 224 OFFCURVE",
"166 211 OFFCURVE",
"166 137 CURVE SMOOTH",
"166 126 LINE",
"165 115 OFFCURVE",
"165 105 OFFCURVE",
"165 95 CURVE SMOOTH",
"165 19 OFFCURVE",
"176 -38 OFFCURVE",
"217 -75 CURVE SMOOTH",
"257 -112 OFFCURVE",
"324 -128 OFFCURVE",
"427 -141 CURVE",
"427 -24 LINE",
"341 -10 OFFCURVE",
"332 37 OFFCURVE",
"332 78 CURVE SMOOTH",
"332 87 OFFCURVE",
"334 109 OFFCURVE",
"335 153 CURVE",
"335 159 LINE SMOOTH",
"335 226 OFFCURVE",
"291 268 OFFCURVE",
"223 287 CURVE",
"322 315 OFFCURVE",
"334 366 OFFCURVE",
"334 418 CURVE SMOOTH",
"334 425 OFFCURVE",
"332 448 OFFCURVE",
"332 500 CURVE SMOOTH",
"332 567 OFFCURVE",
"367 587 OFFCURVE",
"427 598 CURVE",
"427 715 LINE",
"315 699 OFFCURVE",
"163 677 OFFCURVE",
"163 533 CURVE SMOOTH",
"163 474 OFFCURVE",
"166 450 OFFCURVE",
"166 441 CURVE SMOOTH",
"166 390 OFFCURVE",
"156 350 OFFCURVE",
"32 350 CURVE"
);
}
);
width = 465;
}
);
unicode = 007B;
},
{
glyphname = bar;
layers = (
{
hints = (
{
horizontal = 1;
place = "{-128, 926}";
type = Stem;
},
{
place = "{93, 145}";
type = Stem;
}
);
layerId = "D00CCA55-2E43-4B58-A869-D5AA99E7DC06";
paths = (
{
closed = 1;
nodes = (
"93 798 LINE",
"93 -128 LINE",
"238 -128 LINE",
"238 798 LINE"
);
}
);
width = 332;
}
);
unicode = 007C;
},
{
glyphname = braceright;
layers = (
{
hints = (
{
place = "{129, 172}";
type = Stem;
},
{
place = "{133, 168}";
type = Stem;
},
{
horizontal = 1;
place = "{224, 126}";
type = Stem;
},
{
horizontal = 1;
place = "{715, -20}";
target = down;
type = TopGhost;
}
);
layerId = "D00CCA55-2E43-4B58-A869-D5AA99E7DC06";
paths = (
{
closed = 1;
nodes = (
"432 350 LINE",
"311 350 OFFCURVE",
"298 391 OFFCURVE",
"298 442 CURVE SMOOTH",
"298 450 OFFCURVE",
"301 476 OFFCURVE",
"301 533 CURVE SMOOTH",
"301 677 OFFCURVE",
"149 699 OFFCURVE",
"37 715 CURVE",
"37 598 LINE",
"125 584 OFFCURVE",
"132 539 OFFCURVE",
"132 496 CURVE SMOOTH",
"132 488 OFFCURVE",
"130 465 OFFCURVE",
"129 421 CURVE",
"129 414 LINE SMOOTH",
"129 348 OFFCURVE",
"171 307 OFFCURVE",
"241 287 CURVE",
"173 268 OFFCURVE",
"129 224 OFFCURVE",
"129 159 CURVE SMOOTH",
"129 153 LINE",
"132 109 OFFCURVE",
"133 88 OFFCURVE",
"133 81 CURVE SMOOTH",
"133 36 OFFCURVE",
"122 -10 OFFCURVE",
"37 -24 CURVE",
"37 -141 LINE",
"160 -125 OFFCURVE",
"301 -100 OFFCURVE",
"301 52 CURVE SMOOTH",
"301 109 OFFCURVE",
"299 129 OFFCURVE",
"299 136 CURVE SMOOTH",
"299 188 OFFCURVE",
"315 224 OFFCURVE",
"432 224 CURVE"
);
}
);
width = 465;
}
);
unicode = 007D;
},
{
glyphname = asciitilde;
layers = (
{
hints = (
{
place = "{42, 414}";
type = Stem;
},
{
horizontal = 1;
place = "{227, 128}";
type = Stem;
},
{
horizontal = 1;
place = "{266, 128}";
type = Stem;
}
);
layerId = "D00CCA55-2E43-4B58-A869-D5AA99E7DC06";
paths = (
{
closed = 1;
nodes = (
"369 401 LINE",
"356 370 OFFCURVE",
"345 355 OFFCURVE",
"318 355 CURVE SMOOTH",
"276 355 OFFCURVE",
"226 394 OFFCURVE",
"162 394 CURVE SMOOTH",
"101 394 OFFCURVE",
"65 360 OFFCURVE",
"42 260 CURVE",
"130 220 LINE",
"143 251 OFFCURVE",
"153 266 OFFCURVE",
"180 266 CURVE SMOOTH",
"222 266 OFFCURVE",
"278 227 OFFCURVE",
"337 227 CURVE SMOOTH",
"390 227 OFFCURVE",
"435 258 OFFCURVE",
"456 357 CURVE"
);
}
);
width = 491;
}
);
unicode = 007E;
},
{
glyphname = Euro;
layers = (
{
hints = (
{
horizontal = 1;
place = "{-14, 166}";
type = Stem;
},
{
horizontal = 1;
place = "{300, 101}";
type = Stem;
},
{
horizontal = 1;
place = "{548, 166}";
type = Stem;
},
{
place = "{3, 189}";
type = Stem;
}
);
layerId = "D00CCA55-2E43-4B58-A869-D5AA99E7DC06";
paths = (
{
closed = 1;
nodes = (
"192 401 LINE",
"200 526 OFFCURVE",
"275 548 OFFCURVE",
"322 548 CURVE SMOOTH",
"359 548 OFFCURVE",
"398 534 OFFCURVE",
"427 497 CURVE",
"461 523 OFFCURVE",
"529 574 OFFCURVE",
"561 601 CURVE",
"508 669 OFFCURVE",
"430 714 OFFCURVE",
"321 714 CURVE SMOOTH",
"106 714 OFFCURVE",
"3 535 OFFCURVE",
"3 348 CURVE SMOOTH",
"3 95 OFFCURVE",
"154 -14 OFFCURVE",
"320 -14 CURVE SMOOTH",
"431 -14 OFFCURVE",
"507 30 OFFCURVE",
"564 105 CURVE",
"433 205 LINE",
"400 165 OFFCURVE",
"364 152 OFFCURVE",
"331 152 CURVE SMOOTH",
"251 152 OFFCURVE",
"212 231 OFFCURVE",
"199 300 CURVE",
"369 300 LINE",
"369 401 LINE"
);
}
);
width = 599;
}
);
unicode = 20AC;
},
{
glyphname = quotesinglbase;
layers = (
{
hints = (
{
horizontal = 1;
place = "{-167, 362}";
type = Stem;
},
{
place = "{15, 242}";
type = Stem;
}
);
layerId = "D00CCA55-2E43-4B58-A869-D5AA99E7DC06";
paths = (
{
closed = 1;
nodes = (
"257 195 LINE",
"59 195 LINE",
"15 -167 LINE",
"144 -167 LINE"
);
}
);
width = 288;
}
);
unicode = 201A;
},
{
glyphname = florin;
layers = (
{
hints = (
{
horizontal = 1;
place = "{-163, 21}";
target = up;
type = BottomGhost;
},
{
horizontal = 1;
place = "{329, 144}";
type = Stem;
},
{
horizontal = 1;
place = "{599, 144}";
type = Stem;
},
{
place = "{36, 463}";
type = Stem;
}
);
layerId = "D00CCA55-2E43-4B58-A869-D5AA99E7DC06";
paths = (
{
closed = 1;
nodes = (
"36 -163 LINE",
"226 -163 LINE",
"317 329 LINE",
"427 329 LINE",
"457 473 LINE",
"343 473 LINE",
"358 536 LINE SMOOTH",
"368 580 OFFCURVE",
"389 599 OFFCURVE",
"436 599 CURVE SMOOTH",
"447 599 OFFCURVE",
"459 599 OFFCURVE",
"474 596 CURVE",
"499 731 LINE",
"471 738 OFFCURVE",
"432 743 OFFCURVE",
"393 743 CURVE SMOOTH",
"263 743 OFFCURVE",
"202 687 OFFCURVE",
"175 571 CURVE SMOOTH",
"152 473 LINE",
"96 473 LINE",
"66 329 LINE",
"127 329 LINE"
);
}
);
width = 552;
}
);
unicode = 0192;
},
{
glyphname = quotedblbase;
layers = (
{
hints = (
{
horizontal = 1;
place = "{-167, 362}";
type = Stem;
},
{
place = "{14, 508}";
type = Stem;
}
);
layerId = "D00CCA55-2E43-4B58-A869-D5AA99E7DC06";
paths = (
{
closed = 1;
nodes = (
"256 195 LINE",
"58 195 LINE",
"14 -167 LINE",
"143 -167 LINE"
);
},
{
closed = 1;
nodes = (
"522 195 LINE",
"324 195 LINE",
"280 -167 LINE",
"409 -167 LINE"
);
}
);
width = 558;
}
);
unicode = 201E;
},
{
glyphname = ellipsis;
layers = (
{
hints = (
{
horizontal = 1;
place = "{-7, 203}";
type = Stem;
},
{
place = "{66, 216}";
type = Stem;
},
{
place = "{347, 216}";
type = Stem;
},
{
place = "{627, 216}";
type = Stem;
}
);
layerId = "D00CCA55-2E43-4B58-A869-D5AA99E7DC06";
paths = (
{
closed = 1;
nodes = (
"66 27 OFFCURVE",
"113 -7 OFFCURVE",
"173 -7 CURVE SMOOTH",
"234 -7 OFFCURVE",
"282 27 OFFCURVE",
"282 95 CURVE SMOOTH",
"282 162 OFFCURVE",
"234 196 OFFCURVE",
"173 196 CURVE SMOOTH",
"113 196 OFFCURVE",
"66 162 OFFCURVE",
"66 95 CURVE SMOOTH"
);
},
{
closed = 1;
nodes = (
"347 27 OFFCURVE",
"394 -7 OFFCURVE",
"454 -7 CURVE SMOOTH",
"515 -7 OFFCURVE",
"563 27 OFFCURVE",
"563 95 CURVE SMOOTH",
"563 162 OFFCURVE",
"515 196 OFFCURVE",
"454 196 CURVE SMOOTH",
"394 196 OFFCURVE",
"347 162 OFFCURVE",
"347 95 CURVE SMOOTH"
);
},
{
closed = 1;
nodes = (
"627 27 OFFCURVE",
"674 -7 OFFCURVE",
"734 -7 CURVE SMOOTH",
"795 -7 OFFCURVE",
"843 27 OFFCURVE",
"843 95 CURVE SMOOTH",
"843 162 OFFCURVE",
"795 196 OFFCURVE",
"734 196 CURVE SMOOTH",
"674 196 OFFCURVE",
"627 162 OFFCURVE",
"627 95 CURVE SMOOTH"
);
}
);
width = 909;
}
);
unicode = 2026;
},
{
glyphname = dagger;
layers = (
{
hints = (
{
place = "{148, 97}";
type = Stem;
},
{
place = "{152, 90}";
type = Stem;
},
{
horizontal = 1;
place = "{470, 91}";
type = Stem;
},
{
horizontal = 1;
place = "{708, -20}";
target = down;
type = TopGhost;
}
);
layerId = "D00CCA55-2E43-4B58-A869-D5AA99E7DC06";
paths = (
{
closed = 1;
nodes = (
"253 708 LINE",
"141 708 LINE",
"156 555 LINE",
"32 568 LINE",
"32 464 LINE",
"157 477 LINE",
"147 63 LINE",
"247 63 LINE",
"237 477 LINE",
"362 464 LINE",
"362 568 LINE",
"238 555 LINE"
);
}
);
width = 393;
}
);
unicode = 2020;
},
{
glyphname = daggerdbl;
layers = (
{
hints = (
{
place = "{147, 97}";
type = Stem;
},
{
place = "{157, 78}";
type = Stem;
},
{
horizontal = 1;
place = "{76, 91}";
type = Stem;
},
{
horizontal = 1;
place = "{473, 91}";
type = Stem;
},
{
horizontal = 1;
place = "{709, -20}";
target = down;
type = TopGhost;
}
);
layerId = "D00CCA55-2E43-4B58-A869-D5AA99E7DC06";
paths = (
{
closed = 1;
nodes = (
"140 -60 LINE",
"252 -60 LINE",
"237 83 LINE",
"361 70 LINE",
"361 174 LINE",
"235 161 LINE",
"235 480 LINE",
"361 467 LINE",
"361 571 LINE",
"237 558 LINE",
"252 709 LINE",
"140 709 LINE",
"155 558 LINE",
"31 571 LINE",
"31 467 LINE",
"157 480 LINE",
"157 161 LINE",
"31 174 LINE",
"31 70 LINE",
"155 83 LINE"
);
}
);
width = 392;
}
);
unicode = 2021;
},
{
glyphname = circumflex;
layers = (
{
hints = (
{
horizontal = 1;
place = "{513, 186}";
type = Stem;
},
{
place = "{-12, 379}";
type = Stem;
}
);
layerId = "D00CCA55-2E43-4B58-A869-D5AA99E7DC06";
paths = (
{
closed = 1;
nodes = (
"227 699 LINE",
"128 699 LINE",
"-12 513 LINE",
"119 513 LINE",
"178 574 LINE",
"237 513 LINE",
"367 513 LINE"
);
}
);
width = 354;
}
);
unicode = 02C6;
},
{
glyphname = perthousand;
layers = (
{
hints = (
{
place = "{27, 122}";
type = Stem;
},
{
place = "{266, 122}";
type = Stem;
},
{
place = "{495, 122}";
type = Stem;
},
{
place = "{734, 122}";
type = Stem;
},
{
place = "{891, 122}";
type = Stem;
},
{
place = "{1130, 122}";
type = Stem;
},
{
horizontal = 1;
place = "{-10, 110}";
type = Stem;
},
{
horizontal = 1;
place = "{0, 21}";
target = up;
type = BottomGhost;
},
{
horizontal = 1;
place = "{257, 110}";
type = Stem;
},
{
horizontal = 1;
place = "{333, 110}";
type = Stem;
},
{
horizontal = 1;
place = "{600, 110}";
type = Stem;
},
{
horizontal = 1;
place = "{700, -20}";
target = down;
type = TopGhost;
}
);
layerId = "D00CCA55-2E43-4B58-A869-D5AA99E7DC06";
paths = (
{
closed = 1;
nodes = (
"388 624 OFFCURVE",
"316 710 OFFCURVE",
"208 710 CURVE SMOOTH",
"99 710 OFFCURVE",
"27 625 OFFCURVE",
"27 522 CURVE SMOOTH",
"27 419 OFFCURVE",
"99 333 OFFCURVE",
"207 333 CURVE SMOOTH",
"315 333 OFFCURVE",
"388 419 OFFCURVE",
"388 523 CURVE SMOOTH"
);
},
{
closed = 1;
nodes = (
"644 700 LINE",
"104 0 LINE",
"239 0 LINE",
"336 121 OFFCURVE",
"683 576 OFFCURVE",
"779 700 CURVE"
);
},
{
closed = 1;
nodes = (
"266 478 OFFCURVE",
"243 443 OFFCURVE",
"208 443 CURVE SMOOTH",
"175 443 OFFCURVE",
"149 478 OFFCURVE",
"149 523 CURVE SMOOTH",
"149 567 OFFCURVE",
"172 600 OFFCURVE",
"207 600 CURVE SMOOTH",
"242 600 OFFCURVE",
"266 566 OFFCURVE",
"266 522 CURVE SMOOTH"
);
},
{
closed = 1;
nodes = (
"856 284 OFFCURVE",
"784 367 OFFCURVE",
"676 367 CURVE SMOOTH",
"567 367 OFFCURVE",
"495 282 OFFCURVE",
"495 179 CURVE SMOOTH",
"495 77 OFFCURVE",
"567 -10 OFFCURVE",
"675 -10 CURVE SMOOTH",
"783 -10 OFFCURVE",
"856 79 OFFCURVE",
"856 180 CURVE SMOOTH"
);
},
{
closed = 1;
nodes = (
"1252 284 OFFCURVE",
"1180 367 OFFCURVE",
"1072 367 CURVE SMOOTH",
"963 367 OFFCURVE",
"891 282 OFFCURVE",
"891 179 CURVE SMOOTH",
"891 77 OFFCURVE",
"963 -10 OFFCURVE",
"1071 -10 CURVE SMOOTH",
"1179 -10 OFFCURVE",
"1252 79 OFFCURVE",
"1252 180 CURVE SMOOTH"
);
},
{
closed = 1;
nodes = (
"734 135 OFFCURVE",
"711 100 OFFCURVE",
"676 100 CURVE SMOOTH",
"643 100 OFFCURVE",
"617 136 OFFCURVE",
"617 180 CURVE SMOOTH",
"617 225 OFFCURVE",
"639 257 OFFCURVE",
"675 257 CURVE SMOOTH",
"710 257 OFFCURVE",
"734 224 OFFCURVE",
"734 179 CURVE SMOOTH"
);
},
{
closed = 1;
nodes = (
"1130 135 OFFCURVE",
"1107 100 OFFCURVE",
"1072 100 CURVE SMOOTH",
"1039 100 OFFCURVE",
"1013 136 OFFCURVE",
"1013 180 CURVE SMOOTH",
"1013 225 OFFCURVE",
"1035 257 OFFCURVE",
"1071 257 CURVE SMOOTH",
"1106 257 OFFCURVE",
"1130 224 OFFCURVE",
"1130 179 CURVE SMOOTH"
);
}
);
width = 1281;
}
);
unicode = 2030;
},
{
glyphname = guilsinglleft;
layers = (
{
hints = (
{
horizontal = 1;
place = "{37, 463}";
type = Stem;
},
{
place = "{27, 315}";
type = Stem;
}
);
layerId = "D00CCA55-2E43-4B58-A869-D5AA99E7DC06";
paths = (
{
closed = 1;
nodes = (
"212 268 LINE",
"342 439 LINE",
"201 500 LINE",
"27 268 LINE",
"200 37 LINE",
"342 98 LINE"
);
}
);
width = 365;
}
);
unicode = 2039;
},
{
glyphname = quoteleft;
layers = (
{
hints = (
{
place = "{24, 242}";
type = Stem;
},
{
horizontal = 1;
place = "{343, 362}";
type = Stem;
},
{
horizontal = 1;
place = "{705, -20}";
target = down;
type = TopGhost;
}
);
layerId = "D00CCA55-2E43-4B58-A869-D5AA99E7DC06";
paths = (
{
closed = 1;
nodes = (
"24 343 LINE",
"222 343 LINE",
"266 705 LINE",
"137 705 LINE"
);
}
);
width = 288;
}
);
unicode = 2018;
},
{
glyphname = quoteright;
layers = (
{
hints = (
{
place = "{23, 242}";
type = Stem;
},
{
horizontal = 1;
place = "{338, 362}";
type = Stem;
},
{
horizontal = 1;
place = "{700, -20}";
target = down;
type = TopGhost;
}
);
layerId = "D00CCA55-2E43-4B58-A869-D5AA99E7DC06";
paths = (
{
closed = 1;
nodes = (
"265 700 LINE",
"67 700 LINE",
"23 338 LINE",
"152 338 LINE"
);
}
);
width = 288;
}
);
unicode = 2019;
},
{
glyphname = quotedblleft;
layers = (
{
hints = (
{
place = "{23, 508}";
type = Stem;
},
{
horizontal = 1;
place = "{343, 362}";
type = Stem;
},
{
horizontal = 1;
place = "{705, -20}";
target = down;
type = TopGhost;
}
);
layerId = "D00CCA55-2E43-4B58-A869-D5AA99E7DC06";
paths = (
{
closed = 1;
nodes = (
"23 343 LINE",
"221 343 LINE",
"265 705 LINE",
"136 705 LINE"
);
},
{
closed = 1;
nodes = (
"289 343 LINE",
"487 343 LINE",
"531 705 LINE",
"402 705 LINE"
);
}
);
width = 551;
}
);
unicode = 201C;
},
{
glyphname = quotedblright;
layers = (
{
hints = (
{
place = "{21, 508}";
type = Stem;
},
{
horizontal = 1;
place = "{338, 362}";
type = Stem;
},
{
horizontal = 1;
place = "{700, -20}";
target = down;
type = TopGhost;
}
);
layerId = "D00CCA55-2E43-4B58-A869-D5AA99E7DC06";
paths = (
{
closed = 1;
nodes = (
"263 700 LINE",
"65 700 LINE",
"21 338 LINE",
"150 338 LINE"
);
},
{
closed = 1;
nodes = (
"529 700 LINE",
"331 700 LINE",
"287 338 LINE",
"416 338 LINE"
);
}
);
width = 551;
}
);
unicode = 201D;
},
{
glyphname = bullet;
layers = (
{
hints = (
{
horizontal = 1;
place = "{183, 338}";
type = Stem;
},
{
place = "{41, 338}";
type = Stem;
}
);
layerId = "D00CCA55-2E43-4B58-A869-D5AA99E7DC06";
paths = (
{
closed = 1;
nodes = (
"41 258 OFFCURVE",
"118 183 OFFCURVE",
"210 183 CURVE SMOOTH",
"302 183 OFFCURVE",
"379 258 OFFCURVE",
"379 351 CURVE SMOOTH",
"379 444 OFFCURVE",
"302 521 OFFCURVE",
"210 521 CURVE SMOOTH",
"118 521 OFFCURVE",
"41 444 OFFCURVE",
"41 351 CURVE SMOOTH"
);
}
);
width = 421;
}
);
unicode = 2022;
},
{
glyphname = endash;
layers = (
{
hints = (
{
horizontal = 1;
place = "{231, 163}";
type = Stem;
},
{
place = "{31, 448}";
type = Stem;
}
);
layerId = "D00CCA55-2E43-4B58-A869-D5AA99E7DC06";
paths = (
{
closed = 1;
nodes = (
"479 394 LINE",
"31 394 LINE",
"31 231 LINE",
"479 231 LINE"
);
}
);
width = 511;
}
);
unicode = 2013;
},
{
glyphname = emdash;
layers = (
{
hints = (
{
horizontal = 1;
place = "{231, 163}";
type = Stem;
},
{
place = "{31, 818}";
type = Stem;
}
);
layerId = "D00CCA55-2E43-4B58-A869-D5AA99E7DC06";
paths = (
{
closed = 1;
nodes = (
"849 394 LINE",
"31 394 LINE",
"31 231 LINE",
"849 231 LINE"
);
}
);
width = 880;
}
);
unicode = 2014;
},
{
glyphname = tilde;
layers = (
{
hints = (
{
place = "{-4, 378}";
type = Stem;
},
{
horizontal = 1;
place = "{521, 119}";
type = Stem;
},
{
horizontal = 1;
place = "{556, 119}";
type = Stem;
}
);
layerId = "D00CCA55-2E43-4B58-A869-D5AA99E7DC06";
paths = (
{
closed = 1;
nodes = (
"99 509 LINE",
"110 545 OFFCURVE",
"118 556 OFFCURVE",
"133 556 CURVE SMOOTH",
"160 556 OFFCURVE",
"200 521 OFFCURVE",
"248 521 CURVE SMOOTH",
"312 521 OFFCURVE",
"350 581 OFFCURVE",
"374 666 CURVE",
"272 685 LINE",
"264 652 OFFCURVE",
"254 640 OFFCURVE",
"241 640 CURVE SMOOTH",
"215 640 OFFCURVE",
"170 675 OFFCURVE",
"122 675 CURVE SMOOTH",
"59 675 OFFCURVE",
"19 614 OFFCURVE",
"-4 527 CURVE"
);
}
);
width = 367;
}
);
unicode = 02DC;
},
{
glyphname = trademark;
layers = (
{
hints = (
{
horizontal = 1;
place = "{592, 114}";
type = Stem;
},
{
place = "{148, 122}";
type = Stem;
},
{
place = "{421, 122}";
type = Stem;
},
{
place = "{766, 122}";
type = Stem;
}
);
layerId = "D00CCA55-2E43-4B58-A869-D5AA99E7DC06";
paths = (
{
closed = 1;
nodes = (
"391 706 LINE",
"26 706 LINE",
"26 592 LINE",
"148 592 LINE",
"148 292 LINE",
"270 292 LINE",
"270 592 LINE",
"391 592 LINE"
);
},
{
closed = 1;
nodes = (
"888 706 LINE",
"748 706 LINE",
"656 505 LINE",
"563 706 LINE",
"421 706 LINE",
"421 292 LINE",
"543 292 LINE",
"543 458 LINE",
"616 292 LINE",
"693 292 LINE",
"766 458 LINE",
"766 292 LINE",
"888 292 LINE"
);
}
);
width = 898;
}
);
unicode = 2122;
},
{
glyphname = guilsinglright;
layers = (
{
hints = (
{
horizontal = 1;
place = "{37, 463}";
type = Stem;
},
{
place = "{23, 315}";
type = Stem;
}
);
layerId = "D00CCA55-2E43-4B58-A869-D5AA99E7DC06";
paths = (
{
closed = 1;
nodes = (
"23 98 LINE",
"165 37 LINE",
"338 268 LINE",
"164 500 LINE",
"23 439 LINE",
"153 268 LINE"
);
}
);
width = 365;
}
);
unicode = 203A;
},
{
glyphname = exclamdown;
layers = (
{
hints = (
{
horizontal = 1;
place = "{0, 21}";
target = up;
type = BottomGhost;
},
{
horizontal = 1;
place = "{520, 193}";
type = Stem;
},
{
place = "{42, 216}";
type = Stem;
}
);
layerId = "D00CCA55-2E43-4B58-A869-D5AA99E7DC06";
paths = (
{
closed = 1;
nodes = (
"258 680 OFFCURVE",
"211 713 OFFCURVE",
"151 713 CURVE SMOOTH",
"91 713 OFFCURVE",
"43 680 OFFCURVE",
"43 616 CURVE SMOOTH",
"43 552 OFFCURVE",
"91 520 OFFCURVE",
"151 520 CURVE SMOOTH",
"211 520 OFFCURVE",
"258 552 OFFCURVE",
"258 616 CURVE SMOOTH"
);
},
{
closed = 1;
nodes = (
"258 0 LINE",
"258 85 LINE",
"200 472 LINE",
"100 472 LINE",
"42 85 LINE",
"42 0 LINE"
);
}
);
width = 298;
}
);
unicode = 00A1;
},
{
glyphname = cent;
layers = (
{
hints = (
{
place = "{83, 165}";
type = Stem;
},
{
place = "{444, 71}";
type = Stem;
},
{
horizontal = 1;
place = "{-6, 21}";
target = up;
type = BottomGhost;
},
{
horizontal = 1;
place = "{75, 146}";
type = Stem;
},
{
horizontal = 1;
place = "{619, 87}";
type = Stem;
},
{
horizontal = 1;
place = "{706, -20}";
target = down;
type = TopGhost;
}
);
layerId = "D00CCA55-2E43-4B58-A869-D5AA99E7DC06";
paths = (
{
closed = 1;
nodes = (
"515 603 LINE",
"503 610 OFFCURVE",
"491 615 OFFCURVE",
"479 619 CURVE",
"494 706 LINE",
"379 706 LINE",
"367 636 LINE",
"200 636 OFFCURVE",
"83 511 OFFCURVE",
"83 355 CURVE SMOOTH",
"83 233 OFFCURVE",
"159 129 OFFCURVE",
"270 92 CURVE",
"253 -6 LINE",
"368 -6 LINE",
"382 75 LINE",
"435 78 OFFCURVE",
"480 89 OFFCURVE",
"519 112 CURVE",
"519 278 LINE",
"492 247 OFFCURVE",
"449 221 OFFCURVE",
"396 221 CURVE",
"444 487 LINE",
"467 482 OFFCURVE",
"492 466 OFFCURVE",
"515 438 CURVE"
);
},
{
closed = 1;
nodes = (
"304 238 LINE",
"268 261 OFFCURVE",
"248 302 OFFCURVE",
"248 355 CURVE SMOOTH",
"248 428 OFFCURVE",
"288 482 OFFCURVE",
"349 491 CURVE"
);
}
);
width = 602;
}
);
unicode = 00A2;
},
{
glyphname = sterling;
layers = (
{
hints = (
{
horizontal = 1;
place = "{0, 153}";
type = Stem;
},
{
horizontal = 1;
place = "{263, 136}";
type = Stem;
},
{
horizontal = 1;
place = "{539, 173}";
type = Stem;
},
{
place = "{126, 193}";
type = Stem;
}
);
layerId = "D00CCA55-2E43-4B58-A869-D5AA99E7DC06";
paths = (
{
closed = 1;
nodes = (
"535 399 LINE",
"319 399 LINE",
"319 450 LINE SMOOTH",
"319 506 OFFCURVE",
"349 539 OFFCURVE",
"399 539 CURVE SMOOTH",
"431 539 OFFCURVE",
"459 526 OFFCURVE",
"490 494 CURVE",
"619 611 LINE",
"567 670 OFFCURVE",
"495 712 OFFCURVE",
"386 712 CURVE SMOOTH",
"221 712 OFFCURVE",
"126 610 OFFCURVE",
"126 450 CURVE SMOOTH",
"126 399 LINE",
"51 399 LINE",
"51 263 LINE",
"126 263 LINE",
"126 0 LINE",
"612 0 LINE",
"612 153 LINE",
"319 153 LINE",
"319 263 LINE",
"535 263 LINE"
);
}
);
width = 671;
}
);
unicode = 00A3;
},
{
glyphname = currency;
layers = (
{
hints = (
{
place = "{66, 125}";
type = Stem;
},
{
place = "{467, 125}";
type = Stem;
},
{
horizontal = 1;
place = "{69, 115}";
type = Stem;
},
{
horizontal = 1;
place = "{474, 115}";
type = Stem;
},
{
horizontal = 1;
place = "{550, -20}";
target = down;
type = TopGhost;
}
);
layerId = "D00CCA55-2E43-4B58-A869-D5AA99E7DC06";
paths = (
{
closed = 1;
nodes = (
"561 639 LINE",
"470 550 LINE",
"430 575 OFFCURVE",
"382 589 OFFCURVE",
"329 589 CURVE SMOOTH",
"273 589 OFFCURVE",
"231 576 OFFCURVE",
"187 549 CURVE",
"93 639 LINE",
"15 560 LINE",
"106 469 LINE",
"77 426 OFFCURVE",
"66 377 OFFCURVE",
"66 329 CURVE SMOOTH",
"66 277 OFFCURVE",
"81 228 OFFCURVE",
"108 188 CURVE",
"15 94 LINE",
"93 15 LINE",
"190 109 LINE",
"234 82 OFFCURVE",
"278 69 OFFCURVE",
"329 69 CURVE SMOOTH",
"381 69 OFFCURVE",
"427 84 OFFCURVE",
"468 108 CURVE",
"562 15 LINE",
"641 94 LINE",
"550 185 LINE",
"578 228 OFFCURVE",
"592 274 OFFCURVE",
"592 329 CURVE SMOOTH",
"592 384 OFFCURVE",
"578 427 OFFCURVE",
"551 470 CURVE",
"641 560 LINE"
);
},
{
closed = 1;
nodes = (
"412 474 OFFCURVE",
"467 409 OFFCURVE",
"467 329 CURVE SMOOTH",
"467 249 OFFCURVE",
"412 184 OFFCURVE",
"329 184 CURVE SMOOTH",
"246 184 OFFCURVE",
"191 249 OFFCURVE",
"191 329 CURVE SMOOTH",
"191 409 OFFCURVE",
"246 474 OFFCURVE",
"329 474 CURVE SMOOTH"
);
}
);
width = 655;
}
);
unicode = 00A4;
},
{
glyphname = yen;
layers = (
{
hints = (
{
place = "{250, 192}";
type = Stem;
},
{
horizontal = 1;
place = "{0, 213}";
type = Stem;
},
{
horizontal = 1;
place = "{93, 120}";
type = Stem;
},
{
horizontal = 1;
place = "{263, 120}";
type = Stem;
},
{
horizontal = 1;
place = "{700, -20}";
target = down;
type = TopGhost;
}
);
layerId = "D00CCA55-2E43-4B58-A869-D5AA99E7DC06";
paths = (
{
closed = 1;
nodes = (
"66 213 LINE",
"66 93 LINE",
"250 93 LINE",
"250 0 LINE",
"442 0 LINE",
"442 93 LINE",
"626 93 LINE",
"626 213 LINE",
"442 213 LINE",
"452 263 LINE",
"626 263 LINE",
"626 383 LINE",
"487 383 LINE",
"696 700 LINE",
"480 700 LINE",
"348 470 LINE",
"216 700 LINE",
"-4 700 LINE",
"204 383 LINE",
"66 383 LINE",
"66 263 LINE",
"240 263 LINE",
"250 213 LINE"
);
}
);
width = 691;
}
);
unicode = 00A5;
},
{
glyphname = brokenbar;
layers = (
{
hints = (
{
place = "{93, 167}";
type = Stem;
},
{
horizontal = 1;
place = "{-173, 346}";
type = Stem;
},
{
horizontal = 1;
place = "{-173, 840}";
type = Stem;
},
{
horizontal = 1;
place = "{321, 346}";
type = Stem;
}
);
layerId = "D00CCA55-2E43-4B58-A869-D5AA99E7DC06";
paths = (
{
closed = 1;
nodes = (
"93 667 LINE",
"93 321 LINE",
"260 321 LINE",
"260 667 LINE"
);
},
{
closed = 1;
nodes = (
"93 173 LINE",
"93 -173 LINE",
"260 -173 LINE",
"260 173 LINE"
);
}
);
width = 354;
}
);
unicode = 00A6;
},
{
glyphname = section;
layers = (
{
hints = (
{
place = "{41, 146}";
type = Stem;
},
{
place = "{85, 174}";
type = Stem;
},
{
place = "{366, 173}";
type = Stem;
},
{
place = "{437, 146}";
type = Stem;
},
{
horizontal = 1;
place = "{-13, 129}";
type = Stem;
},
{
horizontal = 1;
place = "{584, 129}";
type = Stem;
}
);
layerId = "D00CCA55-2E43-4B58-A869-D5AA99E7DC06";
paths = (
{
closed = 1;
nodes = (
"476 681 LINE",
"429 702 OFFCURVE",
"377 713 OFFCURVE",
"316 713 CURVE SMOOTH",
"162 713 OFFCURVE",
"85 641 OFFCURVE",
"85 552 CURVE SMOOTH",
"85 511 OFFCURVE",
"102 474 OFFCURVE",
"133 451 CURVE",
"78 432 OFFCURVE",
"41 394 OFFCURVE",
"41 345 CURVE SMOOTH",
"41 262 OFFCURVE",
"146 218 OFFCURVE",
"270 194 CURVE",
"338 179 OFFCURVE",
"366 165 OFFCURVE",
"366 146 CURVE SMOOTH",
"366 127 OFFCURVE",
"351 116 OFFCURVE",
"312 116 CURVE SMOOTH",
"259 116 OFFCURVE",
"200 139 OFFCURVE",
"149 175 CURVE",
"149 18 LINE",
"194 -1 OFFCURVE",
"250 -13 OFFCURVE",
"309 -13 CURVE SMOOTH",
"463 -13 OFFCURVE",
"539 61 OFFCURVE",
"539 149 CURVE SMOOTH",
"539 190 OFFCURVE",
"521 226 OFFCURVE",
"492 249 CURVE",
"545 268 OFFCURVE",
"583 304 OFFCURVE",
"583 355 CURVE SMOOTH",
"583 443 OFFCURVE",
"479 477 OFFCURVE",
"355 506 CURVE SMOOTH",
"284 522 OFFCURVE",
"259 536 OFFCURVE",
"259 554 CURVE SMOOTH",
"259 573 OFFCURVE",
"275 584 OFFCURVE",
"312 584 CURVE SMOOTH",
"368 584 OFFCURVE",
"425 561 OFFCURVE",
"476 525 CURVE"
);
},
{
closed = 1;
nodes = (
"437 312 OFFCURVE",
"417 297 OFFCURVE",
"386 297 CURVE SMOOTH",
"337 297 OFFCURVE",
"187 320 OFFCURVE",
"187 371 CURVE SMOOTH",
"187 392 OFFCURVE",
"207 403 OFFCURVE",
"238 403 CURVE SMOOTH",
"289 403 OFFCURVE",
"437 372 OFFCURVE",
"437 332 CURVE SMOOTH"
);
}
);
width = 622;
}
);
unicode = 00A7;
},
{
glyphname = dieresis;
layers = (
{
hints = (
{
horizontal = 1;
place = "{576, 171}";
type = Stem;
},
{
place = "{-42, 176}";
type = Stem;
},
{
place = "{184, 176}";
type = Stem;
}
);
layerId = "D00CCA55-2E43-4B58-A869-D5AA99E7DC06";
paths = (
{
closed = 1;
nodes = (
"-42 606 OFFCURVE",
"-3 576 OFFCURVE",
"46 576 CURVE SMOOTH",
"95 576 OFFCURVE",
"134 606 OFFCURVE",
"134 662 CURVE SMOOTH",
"134 718 OFFCURVE",
"95 747 OFFCURVE",
"46 747 CURVE SMOOTH",
"-3 747 OFFCURVE",
"-42 718 OFFCURVE",
"-42 662 CURVE SMOOTH"
);
},
{
closed = 1;
nodes = (
"184 606 OFFCURVE",
"223 576 OFFCURVE",
"272 576 CURVE SMOOTH",
"321 576 OFFCURVE",
"360 606 OFFCURVE",
"360 662 CURVE SMOOTH",
"360 718 OFFCURVE",
"321 747 OFFCURVE",
"272 747 CURVE SMOOTH",
"223 747 OFFCURVE",
"184 718 OFFCURVE",
"184 662 CURVE SMOOTH"
);
}
);
width = 319;
}
);
unicode = 00A8;
},
{
glyphname = copyright;
layers = (
{
hints = (
{
horizontal = 1;
place = "{-14, 40}";
type = Stem;
},
{
horizontal = 1;
place = "{155, 113}";
type = Stem;
},
{
horizontal = 1;
place = "{441, 113}";
type = Stem;
},
{
horizontal = 1;
place = "{674, 40}";
type = Stem;
},
{
place = "{31, 42}";
type = Stem;
},
{
place = "{197, 131}";
type = Stem;
},
{
place = "{713, 42}";
type = Stem;
}
);
layerId = "D00CCA55-2E43-4B58-A869-D5AA99E7DC06";
paths = (
{
closed = 1;
nodes = (
"596 -14 OFFCURVE",
"755 156 OFFCURVE",
"755 353 CURVE SMOOTH",
"755 549 OFFCURVE",
"597 714 OFFCURVE",
"394 714 CURVE SMOOTH",
"190 714 OFFCURVE",
"31 547 OFFCURVE",
"31 351 CURVE SMOOTH",
"31 153 OFFCURVE",
"189 -14 OFFCURVE",
"392 -14 CURVE SMOOTH"
);
},
{
closed = 1;
nodes = (
"211 26 OFFCURVE",
"73 173 OFFCURVE",
"73 351 CURVE SMOOTH",
"73 527 OFFCURVE",
"211 674 OFFCURVE",
"394 674 CURVE SMOOTH",
"576 674 OFFCURVE",
"713 529 OFFCURVE",
"713 353 CURVE SMOOTH",
"713 174 OFFCURVE",
"575 26 OFFCURVE",
"392 26 CURVE SMOOTH"
);
},
{
closed = 1;
nodes = (
"505 304 LINE",
"484 285 OFFCURVE",
"454 268 OFFCURVE",
"415 268 CURVE SMOOTH",
"369 268 OFFCURVE",
"328 306 OFFCURVE",
"328 355 CURVE SMOOTH",
"328 403 OFFCURVE",
"367 441 OFFCURVE",
"418 441 CURVE SMOOTH",
"453 441 OFFCURVE",
"481 424 OFFCURVE",
"502 405 CURVE",
"502 534 LINE",
"477 547 OFFCURVE",
"446 554 OFFCURVE",
"413 554 CURVE SMOOTH",
"292 554 OFFCURVE",
"197 462 OFFCURVE",
"197 355 CURVE SMOOTH",
"197 247 OFFCURVE",
"293 155 OFFCURVE",
"407 155 CURVE SMOOTH",
"448 155 OFFCURVE",
"481 167 OFFCURVE",
"505 178 CURVE"
);
}
);
width = 786;
}
);
unicode = 00A9;
},
{
glyphname = ordfeminine;
layers = (
{
hints = (
{
horizontal = 1;
place = "{270, 77}";
type = Stem;
},
{
horizontal = 1;
place = "{403, 60}";
type = Stem;
},
{
horizontal = 1;
place = "{533, 50}";
type = Stem;
},
{
horizontal = 1;
place = "{625, 80}";
type = Stem;
},
{
place = "{37, 101}";
type = Stem;
},
{
place = "{224, 104}";
type = Stem;
}
);
layerId = "D00CCA55-2E43-4B58-A869-D5AA99E7DC06";
paths = (
{
closed = 1;
nodes = (
"176 397 OFFCURVE",
"204 412 OFFCURVE",
"224 435 CURVE",
"224 403 LINE",
"328 403 LINE",
"328 573 LINE SMOOTH",
"328 660 OFFCURVE",
"285 705 OFFCURVE",
"182 705 CURVE SMOOTH",
"134 705 OFFCURVE",
"97 697 OFFCURVE",
"62 682 CURVE",
"83 608 LINE",
"110 619 OFFCURVE",
"137 625 OFFCURVE",
"165 625 CURVE SMOOTH",
"206 625 OFFCURVE",
"225 607 OFFCURVE",
"225 576 CURVE SMOOTH",
"225 572 LINE",
"208 579 OFFCURVE",
"182 583 OFFCURVE",
"154 583 CURVE SMOOTH",
"83 583 OFFCURVE",
"37 553 OFFCURVE",
"37 490 CURVE SMOOTH",
"37 430 OFFCURVE",
"80 397 OFFCURVE",
"137 397 CURVE SMOOTH"
);
},
{
closed = 1;
nodes = (
"153 463 OFFCURVE",
"138 477 OFFCURVE",
"138 497 CURVE SMOOTH",
"138 518 OFFCURVE",
"156 533 OFFCURVE",
"185 533 CURVE SMOOTH",
"201 533 OFFCURVE",
"215 529 OFFCURVE",
"226 525 CURVE",
"226 512 LINE SMOOTH",
"226 481 OFFCURVE",
"199 463 OFFCURVE",
"174 463 CURVE SMOOTH"
);
},
{
closed = 1;
nodes = (
"34 270 LINE",
"333 270 LINE",
"333 347 LINE",
"34 347 LINE"
);
}
);
width = 370;
}
);
unicode = 00AA;
},
{
glyphname = guillemotleft;
layers = (
{
hints = (
{
horizontal = 1;
place = "{37, 463}";
type = Stem;
},
{
place = "{27, 590}";
type = Stem;
}
);
layerId = "D00CCA55-2E43-4B58-A869-D5AA99E7DC06";
paths = (
{
closed = 1;
nodes = (
"212 268 LINE",
"342 439 LINE",
"201 500 LINE",
"27 268 LINE",
"200 37 LINE",
"342 98 LINE"
);
},
{
closed = 1;
nodes = (
"487 268 LINE",
"617 439 LINE",
"476 500 LINE",
"302 268 LINE",
"475 37 LINE",
"617 98 LINE"
);
}
);
width = 640;
}
);
unicode = 00AB;
},
{
glyphname = logicalnot;
layers = (
{
hints = (
{
horizontal = 1;
place = "{276, 139}";
type = Stem;
},
{
place = "{423, 147}";
type = Stem;
}
);
layerId = "D00CCA55-2E43-4B58-A869-D5AA99E7DC06";
paths = (
{
closed = 1;
nodes = (
"570 415 LINE",
"42 415 LINE",
"42 276 LINE",
"423 276 LINE",
"423 124 LINE",
"570 124 LINE"
);
}
);
width = 612;
}
);
unicode = 00AC;
},
{
glyphname = registered;
layers = (
{
hints = (
{
horizontal = 1;
place = "{-14, 40}";
type = Stem;
},
{
horizontal = 1;
place = "{285, 83}";
type = Stem;
},
{
horizontal = 1;
place = "{461, 92}";
type = Stem;
},
{
horizontal = 1;
place = "{674, 40}";
type = Stem;
},
{
place = "{59, 42}";
type = Stem;
},
{
place = "{262, 107}";
type = Stem;
},
{
place = "{497, 107}";
type = Stem;
},
{
place = "{741, 42}";
type = Stem;
}
);
layerId = "D00CCA55-2E43-4B58-A869-D5AA99E7DC06";
paths = (
{
closed = 1;
nodes = (
"59 151 OFFCURVE",
"217 -14 OFFCURVE",
"420 -14 CURVE SMOOTH",
"624 -14 OFFCURVE",
"783 153 OFFCURVE",
"783 350 CURVE SMOOTH",
"783 549 OFFCURVE",
"625 714 OFFCURVE",
"422 714 CURVE SMOOTH",
"218 714 OFFCURVE",
"59 547 OFFCURVE",
"59 350 CURVE SMOOTH"
);
},
{
closed = 1;
nodes = (
"101 527 OFFCURVE",
"239 674 OFFCURVE",
"422 674 CURVE SMOOTH",
"604 674 OFFCURVE",
"741 529 OFFCURVE",
"741 352 CURVE SMOOTH",
"741 173 OFFCURVE",
"603 26 OFFCURVE",
"420 26 CURVE SMOOTH",
"239 26 OFFCURVE",
"101 171 OFFCURVE",
"101 348 CURVE SMOOTH"
);
},
{
closed = 1;
nodes = (
"262 168 LINE",
"369 168 LINE",
"369 285 LINE",
"416 285 LINE",
"494 168 LINE",
"617 168 LINE",
"525 302 LINE",
"573 323 OFFCURVE",
"604 364 OFFCURVE",
"604 420 CURVE SMOOTH",
"604 497 OFFCURVE",
"550 553 OFFCURVE",
"441 553 CURVE SMOOTH",
"262 553 LINE"
);
},
{
closed = 1;
nodes = (
"369 368 LINE",
"369 461 LINE",
"438 461 LINE SMOOTH",
"474 461 OFFCURVE",
"497 442 OFFCURVE",
"497 415 CURVE SMOOTH",
"497 388 OFFCURVE",
"475 368 OFFCURVE",
"439 368 CURVE SMOOTH"
);
}
);
width = 842;
}
);
unicode = 00AE;
},
{
glyphname = degree;
layers = (
{
hints = (
{
horizontal = 1;
place = "{352, 92}";
type = Stem;
},
{
horizontal = 1;
place = "{615, 92}";
type = Stem;
},
{
place = "{26, 98}";
type = Stem;
},
{
place = "{292, 98}";
type = Stem;
}
);
layerId = "D00CCA55-2E43-4B58-A869-D5AA99E7DC06";
paths = (
{
closed = 1;
nodes = (
"390 627 OFFCURVE",
"304 707 OFFCURVE",
"208 707 CURVE SMOOTH",
"112 707 OFFCURVE",
"26 627 OFFCURVE",
"26 530 CURVE SMOOTH",
"26 433 OFFCURVE",
"109 352 OFFCURVE",
"208 352 CURVE SMOOTH",
"307 352 OFFCURVE",
"390 433 OFFCURVE",
"390 530 CURVE SMOOTH"
);
},
{
closed = 1;
nodes = (
"292 483 OFFCURVE",
"256 444 OFFCURVE",
"208 444 CURVE SMOOTH",
"160 444 OFFCURVE",
"124 483 OFFCURVE",
"124 530 CURVE SMOOTH",
"124 578 OFFCURVE",
"161 615 OFFCURVE",
"208 615 CURVE SMOOTH",
"255 615 OFFCURVE",
"292 577 OFFCURVE",
"292 530 CURVE SMOOTH"
);
}
);
width = 418;
}
);
unicode = 00B0;
},
{
glyphname = plusminus;
layers = (
{
hints = (
{
horizontal = 1;
place = "{0, 129}";
type = Stem;
},
{
horizontal = 1;
place = "{323, 129}";
type = Stem;
},
{
place = "{214, 133}";
type = Stem;
}
);
layerId = "D00CCA55-2E43-4B58-A869-D5AA99E7DC06";
paths = (
{
closed = 1;
nodes = (
"42 323 LINE",
"214 323 LINE",
"214 173 LINE",
"347 173 LINE",
"347 323 LINE",
"516 323 LINE",
"516 452 LINE",
"347 452 LINE",
"347 596 LINE",
"214 596 LINE",
"214 452 LINE",
"42 452 LINE"
);
},
{
closed = 1;
nodes = (
"42 0 LINE",
"516 0 LINE",
"516 129 LINE",
"42 129 LINE"
);
}
);
width = 557;
}
);
unicode = 00B1;
},
{
glyphname = acute;
layers = (
{
hints = (
{
horizontal = 1;
place = "{715, -20}";
target = down;
type = TopGhost;
},
{
place = "{67, 281}";
type = Stem;
}
);
layerId = "D00CCA55-2E43-4B58-A869-D5AA99E7DC06";
paths = (
{
closed = 1;
nodes = (
"348 715 LINE",
"171 772 LINE",
"67 587 LINE",
"201 587 LINE"
);
}
);
width = 338;
}
);
unicode = 00B4;
},
{
glyphname = paragraph;
layers = (
{
hints = (
{
horizontal = 1;
place = "{604, 102}";
type = Stem;
},
{
place = "{217, 112}";
type = Stem;
},
{
place = "{391, 112}";
type = Stem;
}
);
layerId = "D00CCA55-2E43-4B58-A869-D5AA99E7DC06";
paths = (
{
closed = 1;
nodes = (
"329 -113 LINE",
"329 604 LINE",
"391 604 LINE",
"391 -113 LINE",
"503 -113 LINE",
"503 604 LINE",
"558 604 LINE",
"558 706 LINE",
"260 706 LINE SMOOTH",
"112 706 OFFCURVE",
"30 626 OFFCURVE",
"30 502 CURVE SMOOTH",
"30 391 OFFCURVE",
"109 321 OFFCURVE",
"217 308 CURVE",
"217 -113 LINE"
);
}
);
width = 628;
}
);
unicode = 00B6;
},
{
glyphname = cedilla;
layers = (
{
hints = (
{
horizontal = 1;
place = "{-221, 66}";
type = Stem;
},
{
horizontal = 1;
place = "{-101, 126}";
type = Stem;
},
{
place = "{196, 83}";
type = Stem;
}
);
layerId = "D00CCA55-2E43-4B58-A869-D5AA99E7DC06";
paths = (
{
closed = 1;
nodes = (
"221 25 LINE",
"151 25 LINE",
"81 -85 LINE",
"112 -111 LINE",
"128 -104 OFFCURVE",
"142 -101 OFFCURVE",
"157 -101 CURVE SMOOTH",
"181 -101 OFFCURVE",
"196 -110 OFFCURVE",
"196 -126 CURVE SMOOTH",
"196 -147 OFFCURVE",
"163 -155 OFFCURVE",
"143 -155 CURVE SMOOTH",
"124 -155 OFFCURVE",
"98 -151 OFFCURVE",
"71 -139 CURVE",
"45 -195 LINE",
"80 -212 OFFCURVE",
"118 -221 OFFCURVE",
"153 -221 CURVE SMOOTH",
"208 -221 OFFCURVE",
"279 -198 OFFCURVE",
"279 -125 CURVE SMOOTH",
"279 -70 OFFCURVE",
"231 -43 OFFCURVE",
"187 -43 CURVE SMOOTH",
"179 -43 LINE"
);
}
);
width = 324;
}
);
unicode = 00B8;
},
{
glyphname = ordmasculine;
layers = (
{
hints = (
{
place = "{27, 102}";
type = Stem;
},
{
place = "{45, 288}";
type = Stem;
},
{
place = "{249, 102}";
type = Stem;
},
{
horizontal = 1;
place = "{270, 77}";
type = Stem;
},
{
horizontal = 1;
place = "{395, 89}";
type = Stem;
},
{
horizontal = 1;
place = "{616, 89}";
type = Stem;
}
);
layerId = "D00CCA55-2E43-4B58-A869-D5AA99E7DC06";
paths = (
{
closed = 1;
nodes = (
"282 395 OFFCURVE",
"351 466 OFFCURVE",
"351 551 CURVE SMOOTH",
"351 636 OFFCURVE",
"283 705 OFFCURVE",
"190 705 CURVE SMOOTH",
"97 705 OFFCURVE",
"27 634 OFFCURVE",
"27 550 CURVE SMOOTH",
"27 466 OFFCURVE",
"95 395 OFFCURVE",
"188 395 CURVE SMOOTH"
);
},
{
closed = 1;
nodes = (
"154 484 OFFCURVE",
"129 515 OFFCURVE",
"129 551 CURVE SMOOTH",
"129 587 OFFCURVE",
"152 616 OFFCURVE",
"188 616 CURVE SMOOTH",
"224 616 OFFCURVE",
"249 586 OFFCURVE",
"249 550 CURVE SMOOTH",
"249 514 OFFCURVE",
"226 484 OFFCURVE",
"190 484 CURVE SMOOTH"
);
},
{
closed = 1;
nodes = (
"45 270 LINE",
"333 270 LINE",
"333 347 LINE",
"45 347 LINE"
);
}
);
width = 379;
}
);
unicode = 00BA;
},
{
glyphname = guillemotright;
layers = (
{
hints = (
{
horizontal = 1;
place = "{37, 463}";
type = Stem;
},
{
place = "{24, 591}";
type = Stem;
}
);
layerId = "D00CCA55-2E43-4B58-A869-D5AA99E7DC06";
paths = (
{
closed = 1;
nodes = (
"24 98 LINE",
"166 37 LINE",
"339 268 LINE",
"165 500 LINE",
"24 439 LINE",
"154 268 LINE"
);
},
{
closed = 1;
nodes = (
"300 98 LINE",
"442 37 LINE",
"615 268 LINE",
"441 500 LINE",
"300 439 LINE",
"430 268 LINE"
);
}
);
width = 644;
}
);
unicode = 00BB;
},
{
glyphname = onequarter;
layers = (
{
hints = (
{
place = "{99, 128}";
type = Stem;
},
{
place = "{722, 118}";
type = Stem;
},
{
horizontal = 1;
place = "{0, 168}";
type = Stem;
},
{
horizontal = 1;
place = "{-14, 21}";
target = up;
type = BottomGhost;
},
{
horizontal = 1;
place = "{78, 91}";
type = Stem;
},
{
horizontal = 1;
place = "{604, 102}";
type = Stem;
},
{
horizontal = 1;
place = "{702, -20}";
target = down;
type = TopGhost;
}
);
layerId = "D00CCA55-2E43-4B58-A869-D5AA99E7DC06";
paths = (
{
closed = 1;
nodes = (
"186 2 LINE",
"270 -14 LINE",
"700 702 LINE",
"617 718 LINE"
);
},
{
closed = 1;
nodes = (
"99 285 LINE",
"227 285 LINE",
"227 708 LINE",
"137 706 LINE",
"96 706 OFFCURVE",
"47 704 OFFCURVE",
"34 704 CURVE",
"34 602 LINE",
"59 603 OFFCURVE",
"72 603 OFFCURVE",
"99 604 CURVE"
);
},
{
closed = 1;
nodes = (
"505 78 LINE",
"577 78 OFFCURVE",
"649 79 OFFCURVE",
"722 80 CURVE",
"719 0 LINE",
"840 0 LINE",
"838 80 LINE",
"857 79 OFFCURVE",
"874 78 OFFCURVE",
"893 78 CURVE",
"893 170 LINE",
"840 168 LINE",
"840 427 LINE",
"700 427 LINE",
"505 151 LINE"
);
},
{
closed = 1;
nodes = (
"633 167 LINE",
"662 212 OFFCURVE",
"697 255 OFFCURVE",
"723 303 CURVE",
"724 302 OFFCURVE",
"725 302 OFFCURVE",
"726 302 CURVE",
"725 296 LINE",
"720 258 OFFCURVE",
"722 195 OFFCURVE",
"722 168 CURVE",
"707 168 OFFCURVE",
"693 168 OFFCURVE",
"678 167 CURVE",
"663 167 OFFCURVE",
"648 167 OFFCURVE",
"633 166 CURVE"
);
}
);
width = 931;
}
);
unicode = 00BC;
},
{
glyphname = onehalf;
layers = (
{
hints = (
{
place = "{87, 128}";
type = Stem;
},
{
place = "{523, 128}";
type = Stem;
},
{
place = "{749, 128}";
type = Stem;
},
{
horizontal = 1;
place = "{0, 97}";
type = Stem;
},
{
horizontal = 1;
place = "{-14, 21}";
target = up;
type = BottomGhost;
},
{
horizontal = 1;
place = "{271, 161}";
type = Stem;
},
{
horizontal = 1;
place = "{604, 100}";
type = Stem;
},
{
horizontal = 1;
place = "{604, 104}";
type = Stem;
}
);
layerId = "D00CCA55-2E43-4B58-A869-D5AA99E7DC06";
paths = (
{
closed = 1;
nodes = (
"140 2 LINE",
"224 -14 LINE",
"652 702 LINE",
"570 718 LINE"
);
},
{
closed = 1;
nodes = (
"87 285 LINE",
"215 285 LINE",
"215 708 LINE",
"113 706 LINE SMOOTH",
"78 705 OFFCURVE",
"41 704 OFFCURVE",
"22 704 CURVE",
"22 602 LINE",
"39 603 OFFCURVE",
"62 603 OFFCURVE",
"87 604 CURVE"
);
},
{
closed = 1;
nodes = (
"498 0 LINE",
"881 0 LINE",
"881 101 LINE",
"722 93 LINE",
"773 127 LINE SMOOTH",
"842 172 OFFCURVE",
"877 231 OFFCURVE",
"877 290 CURVE SMOOTH",
"877 377 OFFCURVE",
"792 432 OFFCURVE",
"703 432 CURVE SMOOTH",
"586 432 OFFCURVE",
"532 374 OFFCURVE",
"523 271 CURVE",
"651 271 LINE",
"651 299 OFFCURVE",
"663 334 OFFCURVE",
"700 334 CURVE SMOOTH",
"731 334 OFFCURVE",
"749 314 OFFCURVE",
"749 286 CURVE SMOOTH",
"749 238 OFFCURVE",
"679 172 OFFCURVE",
"648 143 CURVE SMOOTH"
);
}
);
width = 918;
}
);
unicode = 00BD;
},
{
glyphname = threequarters;
layers = (
{
hints = (
{
place = "{26, 129}";
type = Stem;
},
{
place = "{250, 124}";
type = Stem;
},
{
place = "{265, 126}";
type = Stem;
},
{
place = "{712, 120}";
type = Stem;
},
{
horizontal = 1;
place = "{0, 168}";
type = Stem;
},
{
horizontal = 1;
place = "{-14, 21}";
target = up;
type = BottomGhost;
},
{
horizontal = 1;
place = "{78, 91}";
type = Stem;
},
{
horizontal = 1;
place = "{279, 90}";
type = Stem;
},
{
horizontal = 1;
place = "{302, 124}";
type = Stem;
},
{
horizontal = 1;
place = "{474, 73}";
type = Stem;
},
{
horizontal = 1;
place = "{589, 132}";
type = Stem;
},
{
horizontal = 1;
place = "{702, -20}";
target = down;
type = TopGhost;
}
);
layerId = "D00CCA55-2E43-4B58-A869-D5AA99E7DC06";
paths = (
{
closed = 1;
nodes = (
"26 424 LINE",
"31 323 OFFCURVE",
"120 279 OFFCURVE",
"211 279 CURVE SMOOTH",
"294 279 OFFCURVE",
"391 317 OFFCURVE",
"391 414 CURVE SMOOTH",
"391 459 OFFCURVE",
"367 498 OFFCURVE",
"324 515 CURVE",
"356 531 OFFCURVE",
"374 566 OFFCURVE",
"374 601 CURVE SMOOTH",
"374 685 OFFCURVE",
"285 721 OFFCURVE",
"213 721 CURVE SMOOTH",
"124 721 OFFCURVE",
"54 682 OFFCURVE",
"43 589 CURVE",
"169 589 LINE",
"169 612 OFFCURVE",
"185 632 OFFCURVE",
"208 632 CURVE SMOOTH",
"231 632 OFFCURVE",
"250 616 OFFCURVE",
"250 592 CURVE SMOOTH",
"250 556 OFFCURVE",
"221 547 OFFCURVE",
"192 547 CURVE",
"192 474 LINE",
"237 474 OFFCURVE",
"265 461 OFFCURVE",
"265 424 CURVE SMOOTH",
"265 393 OFFCURVE",
"245 369 OFFCURVE",
"212 369 CURVE SMOOTH",
"180 369 OFFCURVE",
"155 392 OFFCURVE",
"155 424 CURVE"
);
},
{
closed = 1;
nodes = (
"229 2 LINE",
"314 -14 LINE",
"743 702 LINE",
"661 718 LINE"
);
},
{
closed = 1;
nodes = (
"497 78 LINE",
"569 78 OFFCURVE",
"642 79 OFFCURVE",
"714 80 CURVE",
"711 0 LINE",
"832 0 LINE",
"830 80 LINE",
"849 79 OFFCURVE",
"866 78 OFFCURVE",
"885 78 CURVE",
"885 170 LINE",
"832 168 LINE",
"832 427 LINE",
"692 427 LINE",
"497 151 LINE"
);
},
{
closed = 1;
nodes = (
"625 167 LINE",
"656 212 OFFCURVE",
"688 256 OFFCURVE",
"715 303 CURVE",
"718 302 LINE",
"714 285 OFFCURVE",
"712 266 OFFCURVE",
"712 247 CURVE SMOOTH",
"712 239 OFFCURVE",
"714 211 OFFCURVE",
"714 168 CURVE",
"683 168 OFFCURVE",
"656 167 OFFCURVE",
"625 166 CURVE"
);
}
);
width = 913;
}
);
unicode = 00BE;
},
{
glyphname = questiondown;
layers = (
{
hints = (
{
place = "{38, 191}";
type = Stem;
},
{
place = "{167, 215}";
type = Stem;
},
{
place = "{195, 174}";
type = Stem;
},
{
horizontal = 1;
place = "{-11, 162}";
type = Stem;
},
{
horizontal = 1;
place = "{518, 193}";
type = Stem;
}
);
layerId = "D00CCA55-2E43-4B58-A869-D5AA99E7DC06";
paths = (
{
closed = 1;
nodes = (
"382 678 OFFCURVE",
"335 711 OFFCURVE",
"275 711 CURVE SMOOTH",
"215 711 OFFCURVE",
"167 678 OFFCURVE",
"167 614 CURVE SMOOTH",
"167 550 OFFCURVE",
"215 518 OFFCURVE",
"275 518 CURVE SMOOTH",
"335 518 OFFCURVE",
"382 550 OFFCURVE",
"382 614 CURVE SMOOTH"
);
},
{
closed = 1;
nodes = (
"271 151 OFFCURVE",
"229 167 OFFCURVE",
"229 204 CURVE SMOOTH",
"229 233 OFFCURVE",
"255 261 OFFCURVE",
"282 281 CURVE SMOOTH",
"326 315 OFFCURVE",
"369 357 OFFCURVE",
"369 437 CURVE SMOOTH",
"369 480 LINE",
"195 480 LINE",
"195 449 LINE SMOOTH",
"195 411 OFFCURVE",
"184 400 OFFCURVE",
"151 373 CURVE",
"85 323 OFFCURVE",
"38 283 OFFCURVE",
"38 192 CURVE SMOOTH",
"38 61 OFFCURVE",
"151 -11 OFFCURVE",
"274 -11 CURVE SMOOTH",
"358 -11 OFFCURVE",
"436 18 OFFCURVE",
"488 85 CURVE",
"488 243 LINE",
"447 205 OFFCURVE",
"382 151 OFFCURVE",
"309 151 CURVE SMOOTH"
);
}
);
width = 537;
}
);
unicode = 00BF;
},
{
glyphname = germandbls;
layers = (
{
hints = (
{
place = "{58, 189}";
type = Stem;
},
{
place = "{396, 184}";
type = Stem;
},
{
place = "{426, 189}";
type = Stem;
},
{
horizontal = 1;
place = "{-5, 138}";
type = Stem;
},
{
horizontal = 1;
place = "{0, 133}";
type = Stem;
},
{
horizontal = 1;
place = "{580, 159}";
type = Stem;
}
);
layerId = "D00CCA55-2E43-4B58-A869-D5AA99E7DC06";
paths = (
{
closed = 1;
nodes = (
"247 483 LINE SMOOTH",
"247 546 OFFCURVE",
"282 580 OFFCURVE",
"327 580 CURVE SMOOTH",
"368 580 OFFCURVE",
"396 552 OFFCURVE",
"396 505 CURVE SMOOTH",
"396 455 OFFCURVE",
"358 419 OFFCURVE",
"314 398 CURVE",
"314 297 LINE",
"382 292 OFFCURVE",
"426 262 OFFCURVE",
"426 214 CURVE SMOOTH",
"426 166 OFFCURVE",
"382 136 OFFCURVE",
"314 133 CURVE",
"314 -3 LINE",
"326 -4 OFFCURVE",
"338 -5 OFFCURVE",
"350 -5 CURVE SMOOTH",
"393 -5 OFFCURVE",
"453 1 OFFCURVE",
"513 33 CURVE SMOOTH",
"572 64 OFFCURVE",
"615 117 OFFCURVE",
"615 194 CURVE SMOOTH",
"615 290 OFFCURVE",
"543 343 OFFCURVE",
"475 364 CURVE",
"534 393 OFFCURVE",
"580 447 OFFCURVE",
"580 530 CURVE SMOOTH",
"580 646 OFFCURVE",
"485 739 OFFCURVE",
"330 739 CURVE SMOOTH",
"153 739 OFFCURVE",
"58 635 OFFCURVE",
"58 479 CURVE SMOOTH",
"58 0 LINE",
"247 0 LINE"
);
}
);
width = 648;
}
);
unicode = 00DF;
},
{
glyphname = divide;
layers = (
{
hints = (
{
horizontal = 1;
place = "{81, 145}";
type = Stem;
},
{
horizontal = 1;
place = "{255, 100}";
type = Stem;
},
{
horizontal = 1;
place = "{385, 145}";
type = Stem;
},
{
place = "{229, 149}";
type = Stem;
}
);
layerId = "D00CCA55-2E43-4B58-A869-D5AA99E7DC06";
paths = (
{
closed = 1;
nodes = (
"378 496 OFFCURVE",
"348 530 OFFCURVE",
"304 530 CURVE SMOOTH",
"260 530 OFFCURVE",
"229 496 OFFCURVE",
"229 457 CURVE SMOOTH",
"229 418 OFFCURVE",
"260 385 OFFCURVE",
"304 385 CURVE SMOOTH",
"348 385 OFFCURVE",
"378 418 OFFCURVE",
"378 457 CURVE SMOOTH"
);
},
{
closed = 1;
nodes = (
"565 355 LINE",
"42 355 LINE",
"42 255 LINE",
"565 255 LINE"
);
},
{
closed = 1;
nodes = (
"378 194 OFFCURVE",
"348 226 OFFCURVE",
"304 226 CURVE SMOOTH",
"260 226 OFFCURVE",
"229 194 OFFCURVE",
"229 155 CURVE SMOOTH",
"229 115 OFFCURVE",
"260 81 OFFCURVE",
"304 81 CURVE SMOOTH",
"348 81 OFFCURVE",
"378 115 OFFCURVE",
"378 155 CURVE SMOOTH"
);
}
);
width = 607;
}
);
unicode = 00F7;
},
{
glyphname = oslash;
layers = (
{
hints = (
{
place = "{47, 177}";
type = Stem;
},
{
place = "{468, 177}";
type = Stem;
},
{
horizontal = 1;
place = "{-13, 153}";
type = Stem;
},
{
horizontal = 1;
place = "{-5, 21}";
target = up;
type = BottomGhost;
},
{
horizontal = 1;
place = "{400, 153}";
type = Stem;
},
{
horizontal = 1;
place = "{546, -20}";
target = down;
type = TopGhost;
}
);
layerId = "D00CCA55-2E43-4B58-A869-D5AA99E7DC06";
paths = (
{
closed = 1;
nodes = (
"32 -5 LINE",
"100 -70 LINE",
"193 25 LINE",
"237 1 OFFCURVE",
"288 -13 OFFCURVE",
"345 -13 CURVE SMOOTH",
"518 -13 OFFCURVE",
"645 115 OFFCURVE",
"645 270 CURVE SMOOTH",
"645 342 OFFCURVE",
"620 405 OFFCURVE",
"577 454 CURVE",
"660 546 LINE",
"576 608 LINE",
"498 515 LINE",
"455 539 OFFCURVE",
"403 553 OFFCURVE",
"347 553 CURVE SMOOTH",
"174 553 OFFCURVE",
"47 425 OFFCURVE",
"47 270 CURVE SMOOTH",
"47 198 OFFCURVE",
"72 136 OFFCURVE",
"115 87 CURVE"
);
},
{
closed = 1;
nodes = (
"234 218 LINE",
"227 234 OFFCURVE",
"224 251 OFFCURVE",
"224 270 CURVE SMOOTH",
"224 341 OFFCURVE",
"272 400 OFFCURVE",
"345 400 CURVE SMOOTH",
"361 400 OFFCURVE",
"377 398 OFFCURVE",
"390 391 CURVE"
);
},
{
closed = 1;
nodes = (
"458 322 LINE",
"465 306 OFFCURVE",
"468 289 OFFCURVE",
"468 270 CURVE SMOOTH",
"468 199 OFFCURVE",
"420 140 OFFCURVE",
"347 140 CURVE SMOOTH",
"331 140 OFFCURVE",
"316 143 OFFCURVE",
"303 148 CURVE"
);
}
);
width = 693;
}
);
unicode = 00F8;
},
{
glyphname = fraction;
layers = (
{
hints = (
{
horizontal = 1;
place = "{31, 926}";
type = Stem;
},
{
place = "{-18, 597}";
type = Stem;
}
);
layerId = "D00CCA55-2E43-4B58-A869-D5AA99E7DC06";
paths = (
{
closed = 1;
nodes = (
"579 957 LINE",
"425 957 LINE",
"-18 31 LINE",
"136 31 LINE"
);
}
);
width = 561;
}
);
unicode = 2044;
},
{
glyphname = fi;
layers = (
{
hints = (
{
place = "{98, 189}";
type = Stem;
},
{
place = "{459, 215}";
type = Stem;
},
{
place = "{472, 190}";
type = Stem;
},
{
horizontal = 1;
place = "{0, 21}";
target = up;
type = BottomGhost;
},
{
horizontal = 1;
place = "{389, 146}";
type = Stem;
},
{
horizontal = 1;
place = "{587, 193}";
type = Stem;
},
{
horizontal = 1;
place = "{599, 138}";
type = Stem;
}
);
layerId = "D00CCA55-2E43-4B58-A869-D5AA99E7DC06";
paths = (
{
closed = 1;
nodes = (
"459 620 OFFCURVE",
"506 587 OFFCURVE",
"566 587 CURVE SMOOTH",
"626 587 OFFCURVE",
"674 620 OFFCURVE",
"674 684 CURVE SMOOTH",
"674 748 OFFCURVE",
"626 780 OFFCURVE",
"566 780 CURVE SMOOTH",
"506 780 OFFCURVE",
"459 748 OFFCURVE",
"459 684 CURVE SMOOTH"
);
},
{
closed = 1;
nodes = (
"409 722 LINE",
"378 731 OFFCURVE",
"342 737 OFFCURVE",
"293 737 CURVE SMOOTH",
"172 737 OFFCURVE",
"98 681 OFFCURVE",
"98 550 CURVE SMOOTH",
"98 535 LINE",
"15 389 LINE",
"98 389 LINE",
"98 0 LINE",
"287 0 LINE",
"287 389 LINE",
"408 389 LINE",
"408 535 LINE",
"254 535 LINE",
"254 548 LINE SMOOTH",
"254 583 OFFCURVE",
"297 599 OFFCURVE",
"332 599 CURVE SMOOTH",
"355 599 OFFCURVE",
"386 595 OFFCURVE",
"409 588 CURVE"
);
},
{
closed = 1;
nodes = (
"662 541 LINE",
"472 541 LINE",
"472 0 LINE",
"662 0 LINE"
);
}
);
width = 731;
}
);
unicode = FB01;
},
{
glyphname = fl;
layers = (
{
hints = (
{
horizontal = 1;
place = "{0, 21}";
target = up;
type = BottomGhost;
},
{
horizontal = 1;
place = "{389, 146}";
type = Stem;
},
{
horizontal = 1;
place = "{599, 138}";
type = Stem;
},
{
place = "{98, 189}";
type = Stem;
},
{
place = "{472, 190}";
type = Stem;
}
);
layerId = "D00CCA55-2E43-4B58-A869-D5AA99E7DC06";
paths = (
{
closed = 1;
nodes = (
"409 722 LINE",
"378 731 OFFCURVE",
"342 737 OFFCURVE",
"293 737 CURVE SMOOTH",
"172 737 OFFCURVE",
"98 681 OFFCURVE",
"98 550 CURVE SMOOTH",
"98 535 LINE",
"15 389 LINE",
"98 389 LINE",
"98 0 LINE",
"287 0 LINE",
"287 389 LINE",
"408 389 LINE",
"408 535 LINE",
"254 535 LINE",
"254 548 LINE SMOOTH",
"254 583 OFFCURVE",
"297 599 OFFCURVE",
"332 599 CURVE SMOOTH",
"355 599 OFFCURVE",
"386 595 OFFCURVE",
"409 588 CURVE"
);
},
{
closed = 1;
nodes = (
"662 730 LINE",
"472 730 LINE",
"472 0 LINE",
"662 0 LINE"
);
}
);
width = 719;
}
);
unicode = FB02;
},
{
glyphname = breve;
layers = (
{
hints = (
{
horizontal = 1;
place = "{534, 183}";
type = Stem;
},
{
place = "{5, 339}";
type = Stem;
}
);
layerId = "D00CCA55-2E43-4B58-A869-D5AA99E7DC06";
paths = (
{
closed = 1;
nodes = (
"240 717 LINE",
"228 676 OFFCURVE",
"205 651 OFFCURVE",
"176 651 CURVE SMOOTH",
"147 651 OFFCURVE",
"121 676 OFFCURVE",
"109 717 CURVE",
"5 717 LINE",
"13 609 OFFCURVE",
"83 534 OFFCURVE",
"174 534 CURVE SMOOTH",
"266 534 OFFCURVE",
"336 609 OFFCURVE",
"344 717 CURVE"
);
}
);
width = 349;
}
);
unicode = 02D8;
},
{
glyphname = dotaccent;
layers = (
{
hints = (
{
horizontal = 1;
place = "{542, 152}";
type = Stem;
},
{
place = "{36, 155}";
type = Stem;
}
);
layerId = "D00CCA55-2E43-4B58-A869-D5AA99E7DC06";
paths = (
{
closed = 1;
nodes = (
"191 663 OFFCURVE",
"152 694 OFFCURVE",
"113 694 CURVE SMOOTH",
"74 694 OFFCURVE",
"36 663 OFFCURVE",
"36 619 CURVE SMOOTH",
"36 572 OFFCURVE",
"74 542 OFFCURVE",
"113 542 CURVE SMOOTH",
"152 542 OFFCURVE",
"191 572 OFFCURVE",
"191 619 CURVE SMOOTH"
);
}
);
width = 305;
}
);
unicode = 02D9;
},
{
glyphname = ring;
layers = (
{
hints = (
{
horizontal = 1;
place = "{525, 96}";
type = Stem;
},
{
horizontal = 1;
place = "{669, 96}";
type = Stem;
},
{
place = "{84, 100}";
type = Stem;
},
{
place = "{231, 100}";
type = Stem;
}
);
layerId = "D00CCA55-2E43-4B58-A869-D5AA99E7DC06";
paths = (
{
closed = 1;
nodes = (
"331 712 OFFCURVE",
"275 765 OFFCURVE",
"207 765 CURVE SMOOTH",
"142 765 OFFCURVE",
"84 712 OFFCURVE",
"84 645 CURVE SMOOTH",
"84 577 OFFCURVE",
"142 525 OFFCURVE",
"207 525 CURVE SMOOTH",
"275 525 OFFCURVE",
"331 577 OFFCURVE",
"331 646 CURVE SMOOTH"
);
},
{
closed = 1;
nodes = (
"231 630 OFFCURVE",
"222 621 OFFCURVE",
"207 621 CURVE SMOOTH",
"194 621 OFFCURVE",
"184 631 OFFCURVE",
"184 646 CURVE SMOOTH",
"184 658 OFFCURVE",
"194 669 OFFCURVE",
"207 669 CURVE SMOOTH",
"222 669 OFFCURVE",
"231 658 OFFCURVE",
"231 645 CURVE SMOOTH"
);
}
);
width = 414;
}
);
unicode = 02DA;
},
{
glyphname = hungarumlaut;
layers = (
{
hints = (
{
horizontal = 1;
place = "{530, 196}";
type = Stem;
},
{
place = "{-23, 520}";
type = Stem;
}
);
layerId = "D00CCA55-2E43-4B58-A869-D5AA99E7DC06";
paths = (
{
closed = 1;
nodes = (
"265 697 LINE",
"111 726 LINE",
"-23 530 LINE",
"106 530 LINE"
);
},
{
closed = 1;
nodes = (
"497 698 LINE",
"342 726 LINE",
"210 530 LINE",
"338 530 LINE"
);
}
);
width = 439;
}
);
unicode = 02DD;
},
{
glyphname = ogonek;
layers = (
{
hints = (
{
place = "{36, 123}";
type = Stem;
},
{
place = "{36, 232}";
type = Stem;
},
{
horizontal = 1;
place = "{-172, 238}";
type = Stem;
}
);
layerId = "D00CCA55-2E43-4B58-A869-D5AA99E7DC06";
paths = (
{
closed = 1;
nodes = (
"245 -52 LINE",
"216 -64 OFFCURVE",
"200 -67 OFFCURVE",
"189 -67 CURVE SMOOTH",
"173 -67 OFFCURVE",
"159 -60 OFFCURVE",
"159 -43 CURVE SMOOTH",
"159 -29 OFFCURVE",
"169 0 OFFCURVE",
"225 66 CURVE",
"99 66 LINE",
"68 31 OFFCURVE",
"36 -11 OFFCURVE",
"36 -62 CURVE SMOOTH",
"36 -130 OFFCURVE",
"91 -172 OFFCURVE",
"164 -172 CURVE SMOOTH",
"197 -172 OFFCURVE",
"233 -164 OFFCURVE",
"268 -145 CURVE"
);
}
);
width = 303;
}
);
unicode = 02DB;
},
{
glyphname = caron;
layers = (
{
hints = (
{
horizontal = 1;
place = "{530, 187}";
type = Stem;
},
{
place = "{-13, 391}";
type = Stem;
}
);
layerId = "D00CCA55-2E43-4B58-A869-D5AA99E7DC06";
paths = (
{
closed = 1;
nodes = (
"241 717 LINE",
"185 654 LINE",
"127 717 LINE",
"-13 717 LINE",
"133 530 LINE",
"233 530 LINE",
"378 717 LINE"
);
}
);
width = 366;
}
);
unicode = 02C7;
},
{
glyphname = dotlessi;
layers = (
{
hints = (
{
horizontal = 1;
place = "{0, 21}";
target = up;
type = BottomGhost;
},
{
place = "{58, 190}";
type = Stem;
}
);
layerId = "D00CCA55-2E43-4B58-A869-D5AA99E7DC06";
paths = (
{
closed = 1;
nodes = (
"248 541 LINE",
"58 541 LINE",
"58 0 LINE",
"248 0 LINE"
);
}
);
width = 307;
}
);
unicode = 0131;
},
{
glyphname = greaterequal;
layers = (
{
hints = (
{
horizontal = 1;
place = "{1, 118}";
type = Stem;
},
{
place = "{58, 521}";
type = Stem;
}
);
layerId = "D00CCA55-2E43-4B58-A869-D5AA99E7DC06";
paths = (
{
closed = 1;
nodes = (
"579 349 LINE",
"579 453 LINE",
"58 648 LINE",
"58 521 LINE",
"377 401 LINE",
"58 284 LINE",
"58 154 LINE"
);
},
{
closed = 1;
nodes = (
"579 1 LINE",
"579 119 LINE",
"58 119 LINE",
"58 1 LINE"
);
}
);
width = 636;
}
);
unicode = 2265;
},
{
glyphname = radical;
layers = (
{
hints = (
{
horizontal = 1;
place = "{-210, 993}";
type = Stem;
},
{
place = "{17, 551}";
type = Stem;
}
);
layerId = "D00CCA55-2E43-4B58-A869-D5AA99E7DC06";
paths = (
{
closed = 1;
nodes = (
"568 783 LINE",
"437 783 LINE",
"282 7 LINE",
"171 241 LINE",
"17 173 LINE",
"68 66 LINE",
"109 86 LINE",
"250 -210 LINE",
"365 -210 LINE"
);
}
);
width = 541;
}
);
unicode = 221A;
},
{
glyphname = notequal;
layers = (
{
hints = (
{
horizontal = 1;
place = "{99, 118}";
type = Stem;
},
{
horizontal = 1;
place = "{289, 121}";
type = Stem;
},
{
horizontal = 1;
place = "{547, -20}";
target = down;
type = TopGhost;
},
{
place = "{42, 530}";
type = Stem;
}
);
layerId = "D00CCA55-2E43-4B58-A869-D5AA99E7DC06";
paths = (
{
closed = 1;
nodes = (
"563 99 LINE",
"563 217 LINE",
"356 217 LINE",
"392 289 LINE",
"572 289 LINE",
"572 410 LINE",
"457 410 LINE",
"498 488 LINE",
"390 547 LINE",
"317 410 LINE",
"51 410 LINE",
"51 289 LINE",
"253 289 LINE",
"217 217 LINE",
"42 217 LINE",
"42 99 LINE",
"154 99 LINE",
"112 22 LINE",
"220 -35 LINE",
"290 99 LINE"
);
}
);
width = 614;
}
);
unicode = 2260;
},
{
glyphname = product;
layers = (
{
hints = (
{
horizontal = 1;
place = "{662, 121}";
type = Stem;
},
{
place = "{12, 129}";
type = Stem;
},
{
place = "{467, 129}";
type = Stem;
}
);
layerId = "D00CCA55-2E43-4B58-A869-D5AA99E7DC06";
paths = (
{
closed = 1;
nodes = (
"596 -210 LINE",
"596 783 LINE",
"12 783 LINE",
"12 -210 LINE",
"141 -210 LINE",
"141 662 LINE",
"467 662 LINE",
"467 -210 LINE"
);
}
);
width = 609;
}
);
unicode = 220F;
},
{
glyphname = summation;
layers = (
{
hints = (
{
horizontal = 1;
place = "{-210, 121}";
type = Stem;
},
{
horizontal = 1;
place = "{663, 121}";
type = Stem;
},
{
place = "{18, 575}";
type = Stem;
}
);
layerId = "D00CCA55-2E43-4B58-A869-D5AA99E7DC06";
paths = (
{
closed = 1;
nodes = (
"593 -210 LINE",
"593 -89 LINE",
"191 -89 LINE",
"464 294 LINE",
"206 663 LINE",
"582 663 LINE",
"582 784 LINE",
"30 784 LINE",
"30 691 LINE",
"309 296 LINE",
"18 -117 LINE",
"18 -210 LINE"
);
}
);
width = 604;
}
);
unicode = 2211;
},
{
glyphname = lessequal;
layers = (
{
hints = (
{
horizontal = 1;
place = "{0, 118}";
type = Stem;
},
{
place = "{58, 521}";
type = Stem;
}
);
layerId = "D00CCA55-2E43-4B58-A869-D5AA99E7DC06";
paths = (
{
closed = 1;
nodes = (
"579 154 LINE",
"579 284 LINE",
"264 400 LINE",
"579 521 LINE",
"579 648 LINE",
"58 453 LINE",
"58 349 LINE"
);
},
{
closed = 1;
nodes = (
"579 0 LINE",
"579 118 LINE",
"58 118 LINE",
"58 0 LINE"
);
}
);
width = 636;
}
);
unicode = 2264;
},
{
glyphname = uni02C9;
layers = (
{
hints = (
{
horizontal = 1;
place = "{723, 115}";
type = Stem;
},
{
place = "{-43, 313}";
type = Stem;
}
);
layerId = "D00CCA55-2E43-4B58-A869-D5AA99E7DC06";
paths = (
{
closed = 1;
nodes = (
"270 838 LINE",
"-43 838 LINE",
"-43 723 LINE",
"270 723 LINE"
);
}
);
width = 239;
}
);
unicode = 02C9;
},
{
glyphname = lozenge;
layers = (
{
hints = (
{
horizontal = 1;
place = "{-34, 779}";
type = Stem;
},
{
place = "{40, 439}";
type = Stem;
}
);
layerId = "D00CCA55-2E43-4B58-A869-D5AA99E7DC06";
paths = (
{
closed = 1;
nodes = (
"479 355 LINE",
"310 745 LINE",
"206 745 LINE",
"40 355 LINE",
"206 -34 LINE",
"310 -34 LINE"
);
},
{
closed = 1;
nodes = (
"346 354 LINE",
"258 148 LINE",
"172 356 LINE",
"258 561 LINE"
);
}
);
width = 519;
}
);
unicode = 25CA;
},
{
glyphname = minus;
layers = (
{
hints = (
{
horizontal = 1;
place = "{247, 119}";
type = Stem;
},
{
place = "{42, 529}";
type = Stem;
}
);
layerId = "D00CCA55-2E43-4B58-A869-D5AA99E7DC06";
paths = (
{
closed = 1;
nodes = (
"571 366 LINE",
"42 366 LINE",
"42 247 LINE",
"571 247 LINE"
);
}
);
width = 613;
}
);
unicode = 2212;
},
{
glyphname = uni2215;
layers = (
{
hints = (
{
horizontal = 1;
place = "{-29, 986}";
type = Stem;
},
{
place = "{-160, 568}";
type = Stem;
}
);
layerId = "D00CCA55-2E43-4B58-A869-D5AA99E7DC06";
paths = (
{
closed = 1;
nodes = (
"408 897 LINE",
"283 957 LINE",
"-160 31 LINE",
"-35 -29 LINE"
);
}
);
width = 277;
}
);
unicode = 2215;
},
{
glyphname = approxequal;
layers = (
{
hints = (
{
place = "{18, 551}";
type = Stem;
},
{
place = "{462, 107}";
type = Stem;
},
{
horizontal = 1;
place = "{56, 120}";
type = Stem;
},
{
horizontal = 1;
place = "{123, 120}";
type = Stem;
},
{
horizontal = 1;
place = "{269, 120}";
type = Stem;
},
{
horizontal = 1;
place = "{336, 120}";
type = Stem;
}
);
layerId = "D00CCA55-2E43-4B58-A869-D5AA99E7DC06";
paths = (
{
closed = 1;
nodes = (
"462 462 LINE",
"454 415 OFFCURVE",
"441 389 OFFCURVE",
"408 389 CURVE SMOOTH",
"343 389 OFFCURVE",
"258 456 OFFCURVE",
"173 456 CURVE SMOOTH",
"72 456 OFFCURVE",
"31 358 OFFCURVE",
"18 263 CURVE",
"127 263 LINE",
"134 300 OFFCURVE",
"145 336 OFFCURVE",
"185 336 CURVE SMOOTH",
"241 336 OFFCURVE",
"328 269 OFFCURVE",
"419 269 CURVE SMOOTH",
"528 269 OFFCURVE",
"558 371 OFFCURVE",
"569 462 CURVE"
);
},
{
closed = 1;
nodes = (
"462 249 LINE",
"454 202 OFFCURVE",
"441 176 OFFCURVE",
"408 176 CURVE SMOOTH",
"343 176 OFFCURVE",
"258 243 OFFCURVE",
"173 243 CURVE SMOOTH",
"72 243 OFFCURVE",
"31 145 OFFCURVE",
"18 50 CURVE",
"127 50 LINE",
"134 87 OFFCURVE",
"145 123 OFFCURVE",
"185 123 CURVE SMOOTH",
"241 123 OFFCURVE",
"328 56 OFFCURVE",
"419 56 CURVE SMOOTH",
"528 56 OFFCURVE",
"558 158 OFFCURVE",
"569 249 CURVE"
);
}
);
width = 585;
}
);
unicode = 2248;
},
{
glyphname = integral;
layers = (
{
hints = (
{
horizontal = 1;
place = "{-210, 136}";
type = Stem;
},
{
horizontal = 1;
place = "{641, 142}";
type = Stem;
},
{
place = "{114, 130}";
type = Stem;
}
);
layerId = "D00CCA55-2E43-4B58-A869-D5AA99E7DC06";
paths = (
{
closed = 1;
nodes = (
"104 -78 OFFCURVE",
"90 -74 OFFCURVE",
"77 -74 CURVE SMOOTH",
"42 -74 OFFCURVE",
"12 -100 OFFCURVE",
"12 -136 CURVE SMOOTH",
"12 -189 OFFCURVE",
"72 -210 OFFCURVE",
"116 -210 CURVE SMOOTH",
"248 -210 OFFCURVE",
"244 -58 OFFCURVE",
"244 36 CURVE SMOOTH",
"244 628 LINE SMOOTH",
"244 636 OFFCURVE",
"245 646 OFFCURVE",
"245 655 CURVE",
"258 647 OFFCURVE",
"274 641 OFFCURVE",
"290 641 CURVE SMOOTH",
"327 641 OFFCURVE",
"357 668 OFFCURVE",
"357 705 CURVE SMOOTH",
"357 762 OFFCURVE",
"301 783 OFFCURVE",
"253 783 CURVE SMOOTH",
"144 783 OFFCURVE",
"114 667 OFFCURVE",
"114 579 CURVE SMOOTH",
"114 35 LINE SMOOTH",
"114 -6 OFFCURVE",
"119 -47 OFFCURVE",
"114 -86 CURVE"
);
}
);
width = 365;
}
);
unicode = 222B;
},
{
glyphname = uni2113;
layers = (
{
hints = (
{
place = "{110, 126}";
type = Stem;
},
{
place = "{269, 117}";
type = Stem;
},
{
horizontal = 1;
place = "{-12, 109}";
type = Stem;
},
{
horizontal = 1;
place = "{609, 106}";
type = Stem;
},
{
horizontal = 1;
place = "{715, -20}";
target = down;
type = TopGhost;
}
);
layerId = "D00CCA55-2E43-4B58-A869-D5AA99E7DC06";
paths = (
{
closed = 1;
nodes = (
"356 148 LINE",
"313 112 OFFCURVE",
"290 97 OFFCURVE",
"269 97 CURVE SMOOTH",
"253 97 OFFCURVE",
"236 106 OFFCURVE",
"236 142 CURVE SMOOTH",
"236 259 LINE",
"324 358 OFFCURVE",
"386 462 OFFCURVE",
"386 561 CURVE SMOOTH",
"386 572 OFFCURVE",
"385 581 OFFCURVE",
"384 590 CURVE SMOOTH",
"373 665 OFFCURVE",
"324 715 OFFCURVE",
"256 715 CURVE SMOOTH",
"173 715 OFFCURVE",
"110 648 OFFCURVE",
"110 528 CURVE SMOOTH",
"110 295 LINE",
"25 212 LINE",
"87 130 LINE",
"110 153 LINE",
"110 133 LINE SMOOTH",
"110 122 OFFCURVE",
"111 113 OFFCURVE",
"112 102 CURVE",
"124 26 OFFCURVE",
"181 -12 OFFCURVE",
"254 -12 CURVE SMOOTH",
"304 -12 OFFCURVE",
"344 2 OFFCURVE",
"415 57 CURVE"
);
},
{
closed = 1;
nodes = (
"269 530 OFFCURVE",
"259 454 OFFCURVE",
"236 413 CURVE",
"236 539 LINE SMOOTH",
"236 587 OFFCURVE",
"245 609 OFFCURVE",
"256 609 CURVE SMOOTH",
"264 609 OFFCURVE",
"269 592 OFFCURVE",
"269 567 CURVE SMOOTH"
);
}
);
width = 448;
}
);
unicode = 2113;
},
{
glyphname = partialdiff;
layers = (
{
hints = (
{
horizontal = 1;
place = "{-11, 113}";
type = Stem;
},
{
horizontal = 1;
place = "{334, 116}";
type = Stem;
},
{
horizontal = 1;
place = "{601, 116}";
type = Stem;
},
{
place = "{22, 126}";
type = Stem;
},
{
place = "{343, 131}";
type = Stem;
}
);
layerId = "D00CCA55-2E43-4B58-A869-D5AA99E7DC06";
paths = (
{
closed = 1;
nodes = (
"474 516 OFFCURVE",
"417 717 OFFCURVE",
"223 717 CURVE SMOOTH",
"155 717 OFFCURVE",
"95 692 OFFCURVE",
"40 633 CURVE",
"114 548 LINE",
"149 584 OFFCURVE",
"183 601 OFFCURVE",
"220 601 CURVE SMOOTH",
"311 601 OFFCURVE",
"340 498 OFFCURVE",
"348 415 CURVE",
"316 436 OFFCURVE",
"275 450 OFFCURVE",
"231 450 CURVE SMOOTH",
"99 450 OFFCURVE",
"22 348 OFFCURVE",
"22 223 CURVE SMOOTH",
"22 102 OFFCURVE",
"101 -11 OFFCURVE",
"236 -11 CURVE SMOOTH",
"440 -11 OFFCURVE",
"474 214 OFFCURVE",
"474 361 CURVE SMOOTH"
);
},
{
closed = 1;
nodes = (
"335 203 OFFCURVE",
"311 102 OFFCURVE",
"237 102 CURVE SMOOTH",
"178 102 OFFCURVE",
"148 165 OFFCURVE",
"148 222 CURVE SMOOTH",
"148 282 OFFCURVE",
"178 334 OFFCURVE",
"237 334 CURVE SMOOTH",
"280 334 OFFCURVE",
"316 306 OFFCURVE",
"343 274 CURVE"
);
}
);
width = 505;
}
);
unicode = 2202;
},
{
glyphname = uni2206;
layers = (
{
hints = (
{
horizontal = 1;
place = "{0, 164}";
type = Stem;
},
{
horizontal = 1;
place = "{710, -20}";
target = down;
type = TopGhost;
},
{
place = "{14, 772}";
type = Stem;
}
);
layerId = "D00CCA55-2E43-4B58-A869-D5AA99E7DC06";
paths = (
{
closed = 1;
nodes = (
"786 0 LINE",
"493 710 LINE",
"306 710 LINE",
"14 0 LINE"
);
},
{
closed = 1;
nodes = (
"515 164 LINE",
"281 164 LINE",
"305 228 LINE SMOOTH",
"335 311 OFFCURVE",
"384 442 OFFCURVE",
"398 480 CURVE"
);
}
);
width = 803;
}
);
unicode = 2206;
},
{
glyphname = infinity;
layers = (
{
hints = (
{
horizontal = 1;
place = "{94, 117}";
type = Stem;
},
{
horizontal = 1;
place = "{307, 117}";
type = Stem;
},
{
place = "{24, 121}";
type = Stem;
},
{
place = "{569, 121}";
type = Stem;
}
);
layerId = "D00CCA55-2E43-4B58-A869-D5AA99E7DC06";
paths = (
{
closed = 1;
nodes = (
"690 354 OFFCURVE",
"624 425 OFFCURVE",
"526 425 CURVE SMOOTH",
"453 425 OFFCURVE",
"405 386 OFFCURVE",
"357 335 CURVE",
"315 380 OFFCURVE",
"256 424 OFFCURVE",
"183 424 CURVE SMOOTH",
"87 424 OFFCURVE",
"24 349 OFFCURVE",
"24 256 CURVE SMOOTH",
"24 164 OFFCURVE",
"89 94 OFFCURVE",
"185 94 CURVE SMOOTH",
"258 94 OFFCURVE",
"304 131 OFFCURVE",
"355 177 CURVE",
"403 137 OFFCURVE",
"461 94 OFFCURVE",
"533 94 CURVE SMOOTH",
"626 94 OFFCURVE",
"690 166 OFFCURVE",
"690 259 CURVE SMOOTH"
);
},
{
closed = 1;
nodes = (
"569 229 OFFCURVE",
"555 211 OFFCURVE",
"528 211 CURVE SMOOTH",
"497 211 OFFCURVE",
"468 233 OFFCURVE",
"441 256 CURVE",
"463 275 OFFCURVE",
"497 308 OFFCURVE",
"528 308 CURVE SMOOTH",
"555 308 OFFCURVE",
"569 285 OFFCURVE",
"569 256 CURVE SMOOTH"
);
},
{
closed = 1;
nodes = (
"247 232 OFFCURVE",
"213 211 OFFCURVE",
"186 211 CURVE SMOOTH",
"161 211 OFFCURVE",
"145 229 OFFCURVE",
"145 257 CURVE SMOOTH",
"145 282 OFFCURVE",
"157 307 OFFCURVE",
"184 307 CURVE SMOOTH",
"216 307 OFFCURVE",
"250 277 OFFCURVE",
"274 256 CURVE"
);
}
);
width = 716;
}
);
unicode = 221E;
},
{
glyphname = uni2126;
layers = (
{
hints = (
{
place = "{37, 345}";
type = Stem;
},
{
place = "{39, 199}";
type = Stem;
},
{
place = "{451, 344}";
type = Stem;
},
{
place = "{595, 199}";
type = Stem;
},
{
horizontal = 1;
place = "{0, 164}";
type = Stem;
},
{
horizontal = 1;
place = "{544, 174}";
type = Stem;
}
);
layerId = "D00CCA55-2E43-4B58-A869-D5AA99E7DC06";
paths = (
{
closed = 1;
nodes = (
"795 0 LINE",
"795 164 LINE",
"671 164 LINE",
"748 209 OFFCURVE",
"794 294 OFFCURVE",
"794 394 CURVE SMOOTH",
"794 591 OFFCURVE",
"644 718 OFFCURVE",
"417 718 CURVE SMOOTH",
"191 718 OFFCURVE",
"39 591 OFFCURVE",
"39 394 CURVE SMOOTH",
"39 294 OFFCURVE",
"85 209 OFFCURVE",
"162 164 CURVE",
"37 164 LINE",
"37 0 LINE",
"382 0 LINE",
"382 169 LINE",
"282 196 OFFCURVE",
"238 284 OFFCURVE",
"238 367 CURVE SMOOTH",
"238 458 OFFCURVE",
"301 544 OFFCURVE",
"417 544 CURVE SMOOTH",
"533 544 OFFCURVE",
"595 458 OFFCURVE",
"595 367 CURVE SMOOTH",
"595 285 OFFCURVE",
"551 195 OFFCURVE",
"451 169 CURVE",
"451 0 LINE"
);
}
);
width = 831;
}
);
unicode = 2126;
},
{
glyphname = uni2219;
layers = (
{
hints = (
{
horizontal = 1;
place = "{235, 163}";
type = Stem;
},
{
place = "{41, 165}";
type = Stem;
}
);
layerId = "D00CCA55-2E43-4B58-A869-D5AA99E7DC06";
paths = (
{
closed = 1;
nodes = (
"206 360 OFFCURVE",
"173 398 OFFCURVE",
"124 398 CURVE SMOOTH",
"75 398 OFFCURVE",
"41 360 OFFCURVE",
"41 316 CURVE SMOOTH",
"41 275 OFFCURVE",
"75 235 OFFCURVE",
"124 235 CURVE SMOOTH",
"173 235 OFFCURVE",
"206 275 OFFCURVE",
"206 316 CURVE SMOOTH"
);
}
);
width = 259;
}
);
unicode = 2219;
},
{
glyphname = estimated;
layers = (
{
hints = (
{
horizontal = 1;
place = "{-15, 98}";
type = Stem;
},
{
horizontal = 1;
place = "{234, 98}";
type = Stem;
},
{
horizontal = 1;
place = "{450, 98}";
type = Stem;
},
{
place = "{37, 171}";
type = Stem;
},
{
place = "{403, 171}";
type = Stem;
}
);
layerId = "D00CCA55-2E43-4B58-A869-D5AA99E7DC06";
paths = (
{
closed = 1;
nodes = (
"574 234 LINE",
"574 419 OFFCURVE",
"465 548 OFFCURVE",
"305 548 CURVE SMOOTH",
"142 548 OFFCURVE",
"37 423 OFFCURVE",
"37 267 CURVE SMOOTH",
"37 110 OFFCURVE",
"142 -15 OFFCURVE",
"305 -15 CURVE SMOOTH",
"414 -15 OFFCURVE",
"485 35 OFFCURVE",
"560 152 CURVE",
"467 205 LINE",
"415 117 OFFCURVE",
"365 83 OFFCURVE",
"305 83 CURVE SMOOTH",
"266 83 OFFCURVE",
"236 95 OFFCURVE",
"208 118 CURVE",
"208 234 LINE"
);
},
{
closed = 1;
nodes = (
"208 332 LINE",
"208 417 LINE",
"237 440 OFFCURVE",
"269 450 OFFCURVE",
"304 450 CURVE SMOOTH",
"340 450 OFFCURVE",
"374 438 OFFCURVE",
"403 415 CURVE",
"403 332 LINE"
);
}
);
width = 611;
}
);
unicode = 212E;
},
{
glyphname = exclam;
layers = (
{
hints = (
{
horizontal = 1;
place = "{-13, 193}";
type = Stem;
},
{
horizontal = 1;
place = "{700, -20}";
target = down;
type = TopGhost;
},
{
place = "{41, 216}";
type = Stem;
}
);
layerId = "D00CCA55-2E43-4B58-A869-D5AA99E7DC06";
paths = (
{
closed = 1;
nodes = (
"41 700 LINE",
"41 615 LINE",
"99 228 LINE",
"199 228 LINE",
"257 615 LINE",
"257 700 LINE"
);
},
{
closed = 1;
nodes = (
"41 20 OFFCURVE",
"88 -13 OFFCURVE",
"148 -13 CURVE SMOOTH",
"208 -13 OFFCURVE",
"256 20 OFFCURVE",
"256 84 CURVE SMOOTH",
"256 148 OFFCURVE",
"208 180 OFFCURVE",
"148 180 CURVE SMOOTH",
"88 180 OFFCURVE",
"41 148 OFFCURVE",
"41 84 CURVE SMOOTH"
);
}
);
width = 298;
}
);
unicode = 0021;
},
{
glyphname = Alpha;
layers = (
{
hints = (
{
horizontal = 1;
place = "{0, 21}";
target = up;
type = BottomGhost;
},
{
horizontal = 1;
place = "{125, 151}";
type = Stem;
},
{
horizontal = 1;
place = "{705, -20}";
target = down;
type = TopGhost;
},
{
place = "{15, 783}";
type = Stem;
}
);
layerId = "D00CCA55-2E43-4B58-A869-D5AA99E7DC06";
paths = (
{
closed = 1;
nodes = (
"539 125 LINE",
"590 0 LINE",
"798 0 LINE",
"500 705 LINE",
"313 705 LINE",
"15 0 LINE",
"219 0 LINE",
"269 125 LINE"
);
},
{
closed = 1;
nodes = (
"405 475 LINE",
"483 276 LINE",
"326 276 LINE"
);
}
);
width = 823;
}
);
unicode = 0391;
},
{
glyphname = Epsilon;
layers = (
{
hints = (
{
horizontal = 1;
place = "{0, 165}";
type = Stem;
},
{
horizontal = 1;
place = "{276, 153}";
type = Stem;
},
{
horizontal = 1;
place = "{535, 165}";
type = Stem;
},
{
place = "{65, 192}";
type = Stem;
}
);
layerId = "D00CCA55-2E43-4B58-A869-D5AA99E7DC06";
paths = (
{
closed = 1;
nodes = (
"257 276 LINE",
"593 276 LINE",
"593 429 LINE",
"257 429 LINE",
"257 535 LINE",
"628 535 LINE",
"628 700 LINE",
"65 700 LINE",
"65 0 LINE",
"633 0 LINE",
"633 165 LINE",
"257 165 LINE"
);
}
);
width = 673;
}
);
unicode = 0395;
},
{
glyphname = Eta;
layers = (
{
hints = (
{
horizontal = 1;
place = "{0, 21}";
target = up;
type = BottomGhost;
},
{
horizontal = 1;
place = "{266, 172}";
type = Stem;
},
{
horizontal = 1;
place = "{700, -20}";
target = down;
type = TopGhost;
},
{
place = "{65, 194}";
type = Stem;
},
{
place = "{508, 194}";
type = Stem;
}
);
layerId = "D00CCA55-2E43-4B58-A869-D5AA99E7DC06";
paths = (
{
closed = 1;
nodes = (
"65 0 LINE",
"259 0 LINE",
"259 266 LINE",
"508 266 LINE",
"508 0 LINE",
"702 0 LINE",
"702 700 LINE",
"508 700 LINE",
"508 438 LINE",
"259 438 LINE",
"259 700 LINE",
"65 700 LINE"
);
}
);
width = 766;
}
);
unicode = 0397;
},
{
glyphname = Iota;
layers = (
{
hints = (
{
horizontal = 1;
place = "{0, 21}";
target = up;
type = BottomGhost;
},
{
horizontal = 1;
place = "{700, -20}";
target = down;
type = TopGhost;
},
{
place = "{65, 195}";
type = Stem;
}
);
layerId = "D00CCA55-2E43-4B58-A869-D5AA99E7DC06";
paths = (
{
closed = 1;
nodes = (
"260 700 LINE",
"65 700 LINE",
"65 0 LINE",
"260 0 LINE"
);
}
);
width = 324;
}
);
unicode = 0399;
},
{
glyphname = Kappa;
layers = (
{
hints = (
{
horizontal = 1;
place = "{0, 21}";
target = up;
type = BottomGhost;
},
{
horizontal = 1;
place = "{700, -20}";
target = down;
type = TopGhost;
},
{
place = "{65, 194}";
type = Stem;
}
);
layerId = "D00CCA55-2E43-4B58-A869-D5AA99E7DC06";
paths = (
{
closed = 1;
nodes = (
"259 700 LINE",
"65 700 LINE",
"65 0 LINE",
"259 0 LINE",
"259 368 LINE",
"506 0 LINE",
"739 0 LINE",
"465 399 LINE",
"730 700 LINE",
"500 700 LINE",
"259 416 LINE"
);
}
);
width = 739;
}
);
unicode = 039A;
},
{
glyphname = Mu;
layers = (
{
hints = (
{
horizontal = 1;
place = "{0, 21}";
target = up;
type = BottomGhost;
},
{
horizontal = 1;
place = "{700, -20}";
target = down;
type = TopGhost;
},
{
place = "{50, 190}";
type = Stem;
},
{
place = "{601, 193}";
type = Stem;
}
);
layerId = "D00CCA55-2E43-4B58-A869-D5AA99E7DC06";
paths = (
{
closed = 1;
nodes = (
"420 128 LINE",
"601 402 LINE",
"601 0 LINE",
"794 0 LINE",
"794 700 LINE",
"589 700 LINE",
"422 429 LINE",
"255 700 LINE",
"50 700 LINE",
"50 0 LINE",
"240 0 LINE",
"240 400 LINE"
);
}
);
width = 845;
}
);
unicode = 039C;
},
{
glyphname = Nu;
layers = (
{
hints = (
{
horizontal = 1;
place = "{0, 21}";
target = up;
type = BottomGhost;
},
{
horizontal = 1;
place = "{700, -20}";
target = down;
type = TopGhost;
},
{
place = "{65, 192}";
type = Stem;
},
{
place = "{534, 192}";
type = Stem;
}
);
layerId = "D00CCA55-2E43-4B58-A869-D5AA99E7DC06";
paths = (
{
closed = 1;
nodes = (
"246 700 LINE",
"65 700 LINE",
"65 0 LINE",
"257 0 LINE",
"257 384 LINE",
"556 0 LINE",
"726 0 LINE",
"726 700 LINE",
"534 700 LINE",
"534 330 LINE"
);
}
);
width = 792;
}
);
unicode = 039D;
},
{
glyphname = Omicron;
layers = (
{
hints = (
{
horizontal = 1;
place = "{-14, 175}";
type = Stem;
},
{
horizontal = 1;
place = "{539, 175}";
type = Stem;
},
{
place = "{36, 199}";
type = Stem;
},
{
place = "{591, 199}";
type = Stem;
}
);
layerId = "D00CCA55-2E43-4B58-A869-D5AA99E7DC06";
paths = (
{
closed = 1;
nodes = (
"790 552 OFFCURVE",
"629 714 OFFCURVE",
"413 714 CURVE SMOOTH",
"197 714 OFFCURVE",
"36 551 OFFCURVE",
"36 350 CURVE SMOOTH",
"36 149 OFFCURVE",
"196 -14 OFFCURVE",
"412 -14 CURVE SMOOTH",
"627 -14 OFFCURVE",
"790 151 OFFCURVE",
"790 352 CURVE SMOOTH"
);
},
{
closed = 1;
nodes = (
"591 250 OFFCURVE",
"520 161 OFFCURVE",
"413 161 CURVE SMOOTH",
"308 161 OFFCURVE",
"235 251 OFFCURVE",
"235 352 CURVE SMOOTH",
"235 453 OFFCURVE",
"306 539 OFFCURVE",
"412 539 CURVE SMOOTH",
"519 539 OFFCURVE",
"591 450 OFFCURVE",
"591 350 CURVE SMOOTH"
);
}
);
width = 826;
}
);
unicode = 039F;
},
{
glyphname = Chi;
layers = (
{
hints = (
{
horizontal = 1;
place = "{0, 21}";
target = up;
type = BottomGhost;
},
{
horizontal = 1;
place = "{700, -20}";
target = down;
type = TopGhost;
},
{
place = "{14, 710}";
type = Stem;
}
);
layerId = "D00CCA55-2E43-4B58-A869-D5AA99E7DC06";
paths = (
{
closed = 1;
nodes = (
"24 700 LINE",
"254 356 LINE",
"14 0 LINE",
"232 0 LINE",
"367 211 LINE",
"501 0 LINE",
"724 0 LINE",
"484 358 LINE",
"714 700 LINE",
"496 700 LINE",
"371 503 LINE",
"247 700 LINE"
);
}
);
width = 737;
}
);
unicode = 03A7;
},
{
glyphname = Tau;
layers = (
{
hints = (
{
horizontal = 1;
place = "{0, 21}";
target = up;
type = BottomGhost;
},
{
horizontal = 1;
place = "{530, 170}";
type = Stem;
},
{
place = "{232, 194}";
type = Stem;
}
);
layerId = "D00CCA55-2E43-4B58-A869-D5AA99E7DC06";
paths = (
{
closed = 1;
nodes = (
"426 530 LINE",
"636 530 LINE",
"636 700 LINE",
"22 700 LINE",
"22 530 LINE",
"232 530 LINE",
"232 0 LINE",
"426 0 LINE"
);
}
);
width = 658;
}
);
unicode = 03A4;
},
{
glyphname = Rho;
layers = (
{
hints = (
{
horizontal = 1;
place = "{0, 21}";
target = up;
type = BottomGhost;
},
{
horizontal = 1;
place = "{200, 152}";
type = Stem;
},
{
horizontal = 1;
place = "{537, 163}";
type = Stem;
},
{
place = "{65, 194}";
type = Stem;
},
{
place = "{462, 194}";
type = Stem;
}
);
layerId = "D00CCA55-2E43-4B58-A869-D5AA99E7DC06";
paths = (
{
closed = 1;
nodes = (
"65 0 LINE",
"259 0 LINE",
"259 200 LINE",
"355 200 LINE SMOOTH",
"529 200 OFFCURVE",
"656 289 OFFCURVE",
"656 454 CURVE SMOOTH",
"656 610 OFFCURVE",
"542 700 OFFCURVE",
"365 700 CURVE SMOOTH",
"65 700 LINE"
);
},
{
closed = 1;
nodes = (
"259 537 LINE",
"350 537 LINE SMOOTH",
"421 537 OFFCURVE",
"462 505 OFFCURVE",
"462 445 CURVE SMOOTH",
"462 389 OFFCURVE",
"420 352 OFFCURVE",
"351 352 CURVE SMOOTH",
"259 352 LINE"
);
}
);
width = 685;
}
);
unicode = 03A1;
},
{
glyphname = Upsilon;
layers = (
{
hints = (
{
horizontal = 1;
place = "{0, 21}";
target = up;
type = BottomGhost;
},
{
horizontal = 1;
place = "{700, -20}";
target = down;
type = TopGhost;
},
{
place = "{274, 195}";
type = Stem;
}
);
layerId = "D00CCA55-2E43-4B58-A869-D5AA99E7DC06";
paths = (
{
closed = 1;
nodes = (
"469 265 LINE",
"735 700 LINE",
"518 700 LINE",
"373 445 LINE",
"229 700 LINE",
"8 700 LINE",
"274 262 LINE",
"274 0 LINE",
"469 0 LINE"
);
}
);
width = 743;
}
);
unicode = 03A5;
},
{
glyphname = uni0394;
layers = (
{
hints = (
{
horizontal = 1;
place = "{0, 151}";
type = Stem;
},
{
horizontal = 1;
place = "{705, -20}";
target = down;
type = TopGhost;
},
{
place = "{6, 803}";
type = Stem;
}
);
layerId = "D00CCA55-2E43-4B58-A869-D5AA99E7DC06";
paths = (
{
closed = 1;
nodes = (
"809 0 LINE",
"501 705 LINE",
"314 705 LINE",
"6 0 LINE"
);
},
{
closed = 1;
nodes = (
"269 151 LINE",
"406 485 LINE",
"542 151 LINE"
);
}
);
width = 815;
}
);
unicode = 0394;
},
{
glyphname = uni03A9;
layers = (
{
hints = (
{
place = "{38, 351}";
type = Stem;
},
{
place = "{68, 199}";
type = Stem;
},
{
place = "{449, 351}";
type = Stem;
},
{
place = "{571, 199}";
type = Stem;
},
{
horizontal = 1;
place = "{2, 165}";
type = Stem;
},
{
horizontal = 1;
place = "{539, 175}";
type = Stem;
}
);
layerId = "D00CCA55-2E43-4B58-A869-D5AA99E7DC06";
paths = (
{
closed = 1;
nodes = (
"449 2 LINE",
"800 2 LINE",
"800 167 LINE",
"637 167 LINE",
"723 205 OFFCURVE",
"770 317 OFFCURVE",
"770 405 CURVE SMOOTH",
"770 610 OFFCURVE",
"611 714 OFFCURVE",
"419 714 CURVE SMOOTH",
"227 714 OFFCURVE",
"68 610 OFFCURVE",
"68 405 CURVE SMOOTH",
"68 317 OFFCURVE",
"117 204 OFFCURVE",
"201 167 CURVE",
"38 167 LINE",
"38 2 LINE",
"389 2 LINE",
"389 177 LINE",
"308 209 OFFCURVE",
"267 282 OFFCURVE",
"267 367 CURVE SMOOTH",
"267 462 OFFCURVE",
"315 539 OFFCURVE",
"417 539 CURVE SMOOTH",
"521 539 OFFCURVE",
"571 466 OFFCURVE",
"571 367 CURVE SMOOTH",
"571 281 OFFCURVE",
"530 212 OFFCURVE",
"449 177 CURVE"
);
}
);
width = 838;
}
);
unicode = 03A9;
},
{
glyphname = Lambda;
layers = (
{
hints = (
{
horizontal = 1;
place = "{0, 21}";
target = up;
type = BottomGhost;
},
{
horizontal = 1;
place = "{705, -20}";
target = down;
type = TopGhost;
},
{
place = "{15, 773}";
type = Stem;
}
);
layerId = "D00CCA55-2E43-4B58-A869-D5AA99E7DC06";
paths = (
{
closed = 1;
nodes = (
"580 0 LINE",
"788 0 LINE",
"495 705 LINE",
"308 705 LINE",
"15 0 LINE",
"219 0 LINE",
"400 475 LINE"
);
}
);
width = 801;
}
);
unicode = 039B;
},
{
glyphname = Beta;
layers = (
{
hints = (
{
place = "{65, 189}";
type = Stem;
},
{
place = "{466, 194}";
type = Stem;
},
{
place = "{497, 194}";
type = Stem;
},
{
horizontal = 1;
place = "{0, 156}";
type = Stem;
},
{
horizontal = 1;
place = "{285, 136}";
type = Stem;
},
{
horizontal = 1;
place = "{544, 156}";
type = Stem;
}
);
layerId = "D00CCA55-2E43-4B58-A869-D5AA99E7DC06";
paths = (
{
closed = 1;
nodes = (
"65 0 LINE",
"424 0 LINE SMOOTH",
"593 0 OFFCURVE",
"691 75 OFFCURVE",
"691 195 CURVE SMOOTH",
"691 289 OFFCURVE",
"637 340 OFFCURVE",
"552 366 CURVE",
"615 393 OFFCURVE",
"660 443 OFFCURVE",
"660 524 CURVE SMOOTH",
"660 635 OFFCURVE",
"569 700 OFFCURVE",
"422 700 CURVE SMOOTH",
"65 700 LINE"
);
},
{
closed = 1;
nodes = (
"254 544 LINE",
"379 544 LINE SMOOTH",
"436 544 OFFCURVE",
"466 523 OFFCURVE",
"466 484 CURVE SMOOTH",
"466 443 OFFCURVE",
"434 421 OFFCURVE",
"375 421 CURVE SMOOTH",
"254 421 LINE"
);
},
{
closed = 1;
nodes = (
"254 285 LINE",
"401 285 LINE SMOOTH",
"465 285 OFFCURVE",
"497 260 OFFCURVE",
"497 222 CURVE SMOOTH",
"497 181 OFFCURVE",
"462 156 OFFCURVE",
"403 156 CURVE SMOOTH",
"254 156 LINE"
);
}
);
width = 730;
}
);
unicode = 0392;
},
{
glyphname = Zeta;
layers = (
{
hints = (
{
horizontal = 1;
place = "{0, 164}";
type = Stem;
},
{
horizontal = 1;
place = "{536, 164}";
type = Stem;
},
{
place = "{22, 619}";
type = Stem;
}
);
layerId = "D00CCA55-2E43-4B58-A869-D5AA99E7DC06";
paths = (
{
closed = 1;
nodes = (
"641 559 LINE",
"641 700 LINE",
"34 700 LINE",
"34 536 LINE",
"373 536 LINE",
"22 141 LINE",
"22 0 LINE",
"641 0 LINE",
"641 164 LINE",
"290 164 LINE"
);
}
);
width = 673;
}
);
unicode = 0396;
},
{
glyphname = Pi;
layers = (
{
hints = (
{
horizontal = 1;
place = "{0, 21}";
target = up;
type = BottomGhost;
},
{
horizontal = 1;
place = "{528, 172}";
type = Stem;
},
{
place = "{65, 194}";
type = Stem;
},
{
place = "{498, 194}";
type = Stem;
}
);
layerId = "D00CCA55-2E43-4B58-A869-D5AA99E7DC06";
paths = (
{
closed = 1;
nodes = (
"65 0 LINE",
"259 0 LINE",
"259 528 LINE",
"498 528 LINE",
"498 0 LINE",
"692 0 LINE",
"692 700 LINE",
"65 700 LINE"
);
}
);
width = 757;
}
);
unicode = 03A0;
},
{
glyphname = Xi;
layers = (
{
hints = (
{
horizontal = 1;
place = "{0, 175}";
type = Stem;
},
{
horizontal = 1;
place = "{271, 163}";
type = Stem;
},
{
horizontal = 1;
place = "{525, 175}";
type = Stem;
},
{
place = "{44, 568}";
type = Stem;
}
);
layerId = "D00CCA55-2E43-4B58-A869-D5AA99E7DC06";
paths = (
{
closed = 1;
nodes = (
"607 525 LINE",
"607 700 LINE",
"49 700 LINE",
"49 525 LINE"
);
},
{
closed = 1;
nodes = (
"572 271 LINE",
"572 434 LINE",
"84 434 LINE",
"84 271 LINE"
);
},
{
closed = 1;
nodes = (
"612 0 LINE",
"612 175 LINE",
"44 175 LINE",
"44 0 LINE"
);
}
);
width = 651;
}
);
unicode = 039E;
},
{
glyphname = Sigma;
layers = (
{
hints = (
{
horizontal = 1;
place = "{0, 164}";
type = Stem;
},
{
horizontal = 1;
place = "{536, 164}";
type = Stem;
},
{
place = "{34, 579}";
type = Stem;
}
);
layerId = "D00CCA55-2E43-4B58-A869-D5AA99E7DC06";
paths = (
{
closed = 1;
nodes = (
"223 351 LINE",
"34 141 LINE",
"34 0 LINE",
"613 0 LINE",
"613 164 LINE",
"302 164 LINE",
"470 351 LINE",
"312 536 LINE",
"601 536 LINE",
"601 700 LINE",
"44 700 LINE",
"44 559 LINE"
);
}
);
width = 651;
}
);
unicode = 03A3;
},
{
glyphname = Psi;
layers = (
{
hints = (
{
horizontal = 1;
place = "{0, 21}";
target = up;
type = BottomGhost;
},
{
horizontal = 1;
place = "{127, 175}";
type = Stem;
},
{
horizontal = 1;
place = "{700, -20}";
target = down;
type = TopGhost;
},
{
place = "{42, 195}";
type = Stem;
},
{
place = "{368, 195}";
type = Stem;
},
{
place = "{694, 195}";
type = Stem;
}
);
layerId = "D00CCA55-2E43-4B58-A869-D5AA99E7DC06";
paths = (
{
closed = 1;
nodes = (
"694 451 LINE SMOOTH",
"694 350 OFFCURVE",
"642 302 OFFCURVE",
"563 302 CURVE",
"563 700 LINE",
"368 700 LINE",
"368 302 LINE",
"289 302 OFFCURVE",
"237 350 OFFCURVE",
"237 451 CURVE SMOOTH",
"237 700 LINE",
"42 700 LINE",
"42 447 LINE SMOOTH",
"42 243 OFFCURVE",
"166 127 OFFCURVE",
"366 127 CURVE",
"366 0 LINE",
"561 0 LINE",
"561 127 LINE",
"772 127 OFFCURVE",
"889 241 OFFCURVE",
"889 452 CURVE SMOOTH",
"889 700 LINE",
"694 700 LINE"
);
}
);
width = 928;
}
);
unicode = 03A8;
},
{
glyphname = omicron;
layers = (
{
hints = (
{
horizontal = 1;
place = "{-13, 161}";
type = Stem;
},
{
horizontal = 1;
place = "{392, 161}";
type = Stem;
},
{
place = "{32, 185}";
type = Stem;
},
{
place = "{445, 185}";
type = Stem;
}
);
layerId = "D00CCA55-2E43-4B58-A869-D5AA99E7DC06";
paths = (
{
closed = 1;
nodes = (
"630 427 OFFCURVE",
"505 553 OFFCURVE",
"332 553 CURVE SMOOTH",
"159 553 OFFCURVE",
"32 425 OFFCURVE",
"32 270 CURVE SMOOTH",
"32 115 OFFCURVE",
"157 -13 OFFCURVE",
"330 -13 CURVE SMOOTH",
"503 -13 OFFCURVE",
"630 118 OFFCURVE",
"630 272 CURVE SMOOTH"
);
},
{
closed = 1;
nodes = (
"445 205 OFFCURVE",
"401 148 OFFCURVE",
"332 148 CURVE SMOOTH",
"265 148 OFFCURVE",
"217 205 OFFCURVE",
"217 272 CURVE SMOOTH",
"217 337 OFFCURVE",
"261 392 OFFCURVE",
"330 392 CURVE SMOOTH",
"397 392 OFFCURVE",
"445 336 OFFCURVE",
"445 270 CURVE SMOOTH"
);
}
);
width = 663;
}
);
unicode = 03BF;
},
{
glyphname = kappa;
layers = (
{
hints = (
{
horizontal = 1;
place = "{0, 21}";
target = up;
type = BottomGhost;
},
{
place = "{43, 190}";
type = Stem;
}
);
layerId = "D00CCA55-2E43-4B58-A869-D5AA99E7DC06";
paths = (
{
closed = 1;
nodes = (
"233 541 LINE",
"43 541 LINE",
"43 0 LINE",
"233 0 LINE",
"233 283 LINE",
"391 0 LINE",
"600 0 LINE",
"407 324 LINE",
"595 541 LINE",
"380 541 LINE",
"233 360 LINE"
);
}
);
width = 604;
}
);
unicode = 03BA;
},
{
glyphname = nu;
layers = (
{
hints = (
{
horizontal = 1;
place = "{-4, 21}";
target = up;
type = BottomGhost;
},
{
place = "{-3, 605}";
type = Stem;
}
);
layerId = "D00CCA55-2E43-4B58-A869-D5AA99E7DC06";
paths = (
{
closed = 1;
nodes = (
"602 541 LINE",
"405 541 LINE",
"301 225 LINE",
"197 541 LINE",
"-3 541 LINE",
"213 -4 LINE",
"386 -4 LINE"
);
}
);
width = 621;
}
);
unicode = 03BD;
},
{
glyphname = tonos;
layers = (
{
hints = (
{
horizontal = 1;
place = "{587, 185}";
type = Stem;
},
{
place = "{88, 342}";
type = Stem;
}
);
layerId = "D00CCA55-2E43-4B58-A869-D5AA99E7DC06";
paths = (
{
closed = 1;
nodes = (
"88 587 LINE",
"222 587 LINE",
"430 772 LINE",
"192 772 LINE"
);
}
);
width = 455;
}
);
unicode = 0384;
},
{
glyphname = Alphatonos;
layers = (
{
hints = (
{
horizontal = 1;
place = "{0, 21}";
target = up;
type = BottomGhost;
},
{
horizontal = 1;
place = "{125, 151}";
type = Stem;
},
{
horizontal = 1;
place = "{520, 185}";
type = Stem;
},
{
place = "{0, 856}";
type = Stem;
}
);
layerId = "D00CCA55-2E43-4B58-A869-D5AA99E7DC06";
paths = (
{
closed = 1;
nodes = (
"597 125 LINE",
"648 0 LINE",
"856 0 LINE",
"558 705 LINE",
"371 705 LINE",
"73 0 LINE",
"277 0 LINE",
"327 125 LINE"
);
},
{
closed = 1;
nodes = (
"0 520 LINE",
"134 520 LINE",
"342 705 LINE",
"104 705 LINE"
);
},
{
closed = 1;
nodes = (
"463 475 LINE",
"541 276 LINE",
"384 276 LINE"
);
}
);
width = 882;
}
);
unicode = 0386;
},
{
glyphname = Epsilontonos;
layers = (
{
hints = (
{
place = "{389, 192}";
type = Stem;
},
{
horizontal = 1;
place = "{0, 165}";
type = Stem;
},
{
horizontal = 1;
place = "{276, 153}";
type = Stem;
},
{
horizontal = 1;
place = "{515, 185}";
type = Stem;
},
{
horizontal = 1;
place = "{535, 165}";
type = Stem;
}
);
layerId = "D00CCA55-2E43-4B58-A869-D5AA99E7DC06";
paths = (
{
closed = 1;
nodes = (
"581 276 LINE",
"917 276 LINE",
"917 429 LINE",
"581 429 LINE",
"581 535 LINE",
"952 535 LINE",
"952 700 LINE",
"389 700 LINE",
"389 0 LINE",
"957 0 LINE",
"957 165 LINE",
"581 165 LINE"
);
},
{
closed = 1;
nodes = (
"0 515 LINE",
"134 515 LINE",
"342 700 LINE",
"104 700 LINE"
);
}
);
width = 997;
}
);
unicode = 0388;
},
{
glyphname = Etatonos;
layers = (
{
hints = (
{
horizontal = 1;
place = "{0, 21}";
target = up;
type = BottomGhost;
},
{
horizontal = 1;
place = "{266, 172}";
type = Stem;
},
{
horizontal = 1;
place = "{515, 185}";
type = Stem;
},
{
place = "{389, 194}";
type = Stem;
},
{
place = "{832, 194}";
type = Stem;
}
);
layerId = "D00CCA55-2E43-4B58-A869-D5AA99E7DC06";
paths = (
{
closed = 1;
nodes = (
"389 0 LINE",
"583 0 LINE",
"583 266 LINE",
"832 266 LINE",
"832 0 LINE",
"1026 0 LINE",
"1026 700 LINE",
"832 700 LINE",
"832 438 LINE",
"583 438 LINE",
"583 700 LINE",
"389 700 LINE"
);
},
{
closed = 1;
nodes = (
"0 515 LINE",
"134 515 LINE",
"342 700 LINE",
"104 700 LINE"
);
}
);
width = 1091;
}
);
unicode = 0389;
},
{
glyphname = Iotatonos;
layers = (
{
hints = (
{
horizontal = 1;
place = "{0, 21}";
target = up;
type = BottomGhost;
},
{
horizontal = 1;
place = "{515, 185}";
type = Stem;
},
{
place = "{393, 195}";
type = Stem;
}
);
layerId = "D00CCA55-2E43-4B58-A869-D5AA99E7DC06";
paths = (
{
closed = 1;
nodes = (
"588 700 LINE",
"393 700 LINE",
"393 0 LINE",
"588 0 LINE"
);
},
{
closed = 1;
nodes = (
"0 515 LINE",
"134 515 LINE",
"342 700 LINE",
"104 700 LINE"
);
}
);
width = 653;
}
);
unicode = 038A;
},
{
glyphname = Omicrontonos;
layers = (
{
hints = (
{
place = "{266, 199}";
type = Stem;
},
{
place = "{821, 199}";
type = Stem;
},
{
horizontal = 1;
place = "{-14, 175}";
type = Stem;
},
{
horizontal = 1;
place = "{515, 185}";
type = Stem;
},
{
horizontal = 1;
place = "{539, 175}";
type = Stem;
}
);
layerId = "D00CCA55-2E43-4B58-A869-D5AA99E7DC06";
paths = (
{
closed = 1;
nodes = (
"1020 552 OFFCURVE",
"859 714 OFFCURVE",
"643 714 CURVE SMOOTH",
"427 714 OFFCURVE",
"266 551 OFFCURVE",
"266 350 CURVE SMOOTH",
"266 149 OFFCURVE",
"426 -14 OFFCURVE",
"642 -14 CURVE SMOOTH",
"857 -14 OFFCURVE",
"1020 151 OFFCURVE",
"1020 352 CURVE SMOOTH"
);
},
{
closed = 1;
nodes = (
"1 515 LINE",
"135 515 LINE",
"343 700 LINE",
"105 700 LINE"
);
},
{
closed = 1;
nodes = (
"821 250 OFFCURVE",
"750 161 OFFCURVE",
"643 161 CURVE SMOOTH",
"538 161 OFFCURVE",
"465 251 OFFCURVE",
"465 352 CURVE SMOOTH",
"465 453 OFFCURVE",
"536 539 OFFCURVE",
"642 539 CURVE SMOOTH",
"749 539 OFFCURVE",
"821 450 OFFCURVE",
"821 350 CURVE SMOOTH"
);
}
);
width = 1056;
}
);
unicode = 038C;
},
{
glyphname = Upsilontonos;
layers = (
{
hints = (
{
horizontal = 1;
place = "{0, 21}";
target = up;
type = BottomGhost;
},
{
horizontal = 1;
place = "{515, 185}";
type = Stem;
},
{
place = "{661, 195}";
type = Stem;
}
);
layerId = "D00CCA55-2E43-4B58-A869-D5AA99E7DC06";
paths = (
{
closed = 1;
nodes = (
"856 265 LINE",
"1122 700 LINE",
"905 700 LINE",
"760 445 LINE",
"616 700 LINE",
"395 700 LINE",
"661 262 LINE",
"661 0 LINE",
"856 0 LINE"
);
},
{
closed = 1;
nodes = (
"0 515 LINE",
"134 515 LINE",
"342 700 LINE",
"104 700 LINE"
);
}
);
width = 1133;
}
);
unicode = 038E;
},
{
glyphname = Gamma;
layers = (
{
hints = (
{
horizontal = 1;
place = "{0, 21}";
target = up;
type = BottomGhost;
},
{
horizontal = 1;
place = "{530, 170}";
type = Stem;
},
{
place = "{65, 194}";
type = Stem;
}
);
layerId = "D00CCA55-2E43-4B58-A869-D5AA99E7DC06";
paths = (
{
closed = 1;
nodes = (
"259 530 LINE",
"625 530 LINE",
"625 700 LINE",
"65 700 LINE",
"65 0 LINE",
"259 0 LINE"
);
}
);
width = 628;
}
);
unicode = 0393;
},
{
glyphname = Theta;
layers = (
{
hints = (
{
horizontal = 1;
place = "{-14, 175}";
type = Stem;
},
{
horizontal = 1;
place = "{276, 163}";
type = Stem;
},
{
horizontal = 1;
place = "{539, 175}";
type = Stem;
},
{
place = "{36, 199}";
type = Stem;
},
{
place = "{305, 217}";
type = Stem;
},
{
place = "{591, 199}";
type = Stem;
}
);
layerId = "D00CCA55-2E43-4B58-A869-D5AA99E7DC06";
paths = (
{
closed = 1;
nodes = (
"790 552 OFFCURVE",
"629 714 OFFCURVE",
"414 714 CURVE SMOOTH",
"198 714 OFFCURVE",
"36 551 OFFCURVE",
"36 350 CURVE SMOOTH",
"36 149 OFFCURVE",
"196 -14 OFFCURVE",
"412 -14 CURVE SMOOTH",
"627 -14 OFFCURVE",
"790 151 OFFCURVE",
"790 352 CURVE SMOOTH"
);
},
{
closed = 1;
nodes = (
"591 250 OFFCURVE",
"521 161 OFFCURVE",
"414 161 CURVE SMOOTH",
"307 161 OFFCURVE",
"235 251 OFFCURVE",
"235 352 CURVE SMOOTH",
"235 453 OFFCURVE",
"306 539 OFFCURVE",
"412 539 CURVE SMOOTH",
"519 539 OFFCURVE",
"591 450 OFFCURVE",
"591 350 CURVE SMOOTH"
);
},
{
closed = 1;
nodes = (
"522 276 LINE",
"522 439 LINE",
"305 439 LINE",
"305 276 LINE"
);
}
);
width = 827;
}
);
unicode = 0398;
},
{
glyphname = Iotadieresis;
layers = (
{
hints = (
{
place = "{-32, 176}";
type = Stem;
},
{
place = "{72, 195}";
type = Stem;
},
{
place = "{194, 176}";
type = Stem;
},
{
horizontal = 1;
place = "{0, 21}";
target = up;
type = BottomGhost;
},
{
horizontal = 1;
place = "{700, -20}";
target = down;
type = TopGhost;
},
{
horizontal = 1;
place = "{733, 171}";
type = Stem;
}
);
layerId = "D00CCA55-2E43-4B58-A869-D5AA99E7DC06";
paths = (
{
closed = 1;
nodes = (
"-32 763 OFFCURVE",
"7 733 OFFCURVE",
"56 733 CURVE SMOOTH",
"105 733 OFFCURVE",
"144 763 OFFCURVE",
"144 819 CURVE SMOOTH",
"144 875 OFFCURVE",
"105 904 OFFCURVE",
"56 904 CURVE SMOOTH",
"7 904 OFFCURVE",
"-32 875 OFFCURVE",
"-32 819 CURVE SMOOTH"
);
},
{
closed = 1;
nodes = (
"194 763 OFFCURVE",
"233 733 OFFCURVE",
"282 733 CURVE SMOOTH",
"331 733 OFFCURVE",
"370 763 OFFCURVE",
"370 819 CURVE SMOOTH",
"370 875 OFFCURVE",
"331 904 OFFCURVE",
"282 904 CURVE SMOOTH",
"233 904 OFFCURVE",
"194 875 OFFCURVE",
"194 819 CURVE SMOOTH"
);
},
{
closed = 1;
nodes = (
"267 700 LINE",
"72 700 LINE",
"72 0 LINE",
"267 0 LINE"
);
}
);
width = 338;
}
);
unicode = 03AA;
},
{
glyphname = Upsilondieresis;
layers = (
{
hints = (
{
place = "{171, 176}";
type = Stem;
},
{
place = "{274, 195}";
type = Stem;
},
{
place = "{397, 176}";
type = Stem;
},
{
horizontal = 1;
place = "{0, 21}";
target = up;
type = BottomGhost;
},
{
horizontal = 1;
place = "{700, -20}";
target = down;
type = TopGhost;
},
{
horizontal = 1;
place = "{733, 171}";
type = Stem;
}
);
layerId = "D00CCA55-2E43-4B58-A869-D5AA99E7DC06";
paths = (
{
closed = 1;
nodes = (
"171 763 OFFCURVE",
"210 733 OFFCURVE",
"259 733 CURVE SMOOTH",
"308 733 OFFCURVE",
"347 763 OFFCURVE",
"347 819 CURVE SMOOTH",
"347 875 OFFCURVE",
"308 904 OFFCURVE",
"259 904 CURVE SMOOTH",
"210 904 OFFCURVE",
"171 875 OFFCURVE",
"171 819 CURVE SMOOTH"
);
},
{
closed = 1;
nodes = (
"397 763 OFFCURVE",
"436 733 OFFCURVE",
"485 733 CURVE SMOOTH",
"534 733 OFFCURVE",
"573 763 OFFCURVE",
"573 819 CURVE SMOOTH",
"573 875 OFFCURVE",
"534 904 OFFCURVE",
"485 904 CURVE SMOOTH",
"436 904 OFFCURVE",
"397 875 OFFCURVE",
"397 819 CURVE SMOOTH"
);
},
{
closed = 1;
nodes = (
"469 265 LINE",
"735 700 LINE",
"518 700 LINE",
"373 445 LINE",
"229 700 LINE",
"8 700 LINE",
"274 262 LINE",
"274 0 LINE",
"469 0 LINE"
);
}
);
width = 743;
}
);
unicode = 03AB;
},
{
glyphname = dieresistonos;
layers = (
{
hints = (
{
place = "{6, 155}";
type = Stem;
},
{
place = "{400, 152}";
type = Stem;
},
{
horizontal = 1;
place = "{542, 152}";
type = Stem;
},
{
horizontal = 1;
place = "{543, 185}";
type = Stem;
},
{
horizontal = 1;
place = "{544, 155}";
type = Stem;
}
);
layerId = "D00CCA55-2E43-4B58-A869-D5AA99E7DC06";
paths = (
{
closed = 1;
nodes = (
"166 543 LINE",
"286 543 LINE",
"434 728 LINE",
"226 728 LINE"
);
},
{
closed = 1;
nodes = (
"522 544 OFFCURVE",
"552 582 OFFCURVE",
"552 621 CURVE SMOOTH",
"552 660 OFFCURVE",
"522 699 OFFCURVE",
"475 699 CURVE SMOOTH",
"431 699 OFFCURVE",
"400 660 OFFCURVE",
"400 621 CURVE SMOOTH",
"400 582 OFFCURVE",
"431 544 OFFCURVE",
"475 544 CURVE SMOOTH"
);
},
{
closed = 1;
nodes = (
"6 572 OFFCURVE",
"44 542 OFFCURVE",
"83 542 CURVE SMOOTH",
"122 542 OFFCURVE",
"161 572 OFFCURVE",
"161 619 CURVE SMOOTH",
"161 663 OFFCURVE",
"122 694 OFFCURVE",
"83 694 CURVE SMOOTH",
"44 694 OFFCURVE",
"6 663 OFFCURVE",
"6 619 CURVE SMOOTH"
);
}
);
width = 566;
}
);
unicode = 0385;
},
{
glyphname = alpha;
layers = (
{
hints = (
{
place = "{33, 187}";
type = Stem;
},
{
place = "{437, 190}";
type = Stem;
},
{
horizontal = 1;
place = "{-12, 159}";
type = Stem;
},
{
horizontal = 1;
place = "{0, 21}";
target = up;
type = BottomGhost;
},
{
horizontal = 1;
place = "{394, 147}";
type = Stem;
},
{
horizontal = 1;
place = "{394, 159}";
type = Stem;
}
);
layerId = "D00CCA55-2E43-4B58-A869-D5AA99E7DC06";
paths = (
{
closed = 1;
nodes = (
"627 0 LINE",
"627 541 LINE",
"437 541 LINE",
"437 469 LINE",
"394 524 OFFCURVE",
"342 553 OFFCURVE",
"273 553 CURVE SMOOTH",
"117 553 OFFCURVE",
"33 413 OFFCURVE",
"33 270 CURVE SMOOTH",
"33 129 OFFCURVE",
"117 -12 OFFCURVE",
"273 -12 CURVE SMOOTH",
"350 -12 OFFCURVE",
"389 18 OFFCURVE",
"437 72 CURVE"
);
},
{
closed = 1;
nodes = (
"398 394 OFFCURVE",
"440 336 OFFCURVE",
"440 272 CURVE SMOOTH",
"440 208 OFFCURVE",
"398 147 OFFCURVE",
"330 147 CURVE SMOOTH",
"266 147 OFFCURVE",
"220 208 OFFCURVE",
"220 269 CURVE SMOOTH",
"220 333 OFFCURVE",
"261 394 OFFCURVE",
"330 394 CURVE SMOOTH"
);
}
);
width = 641;
}
);
unicode = 03B1;
},
{
glyphname = rho;
layers = (
{
hints = (
{
horizontal = 1;
place = "{-160, 21}";
target = up;
type = BottomGhost;
},
{
horizontal = 1;
place = "{-12, 159}";
type = Stem;
},
{
horizontal = 1;
place = "{394, 159}";
type = Stem;
},
{
place = "{53, 190}";
type = Stem;
},
{
place = "{460, 187}";
type = Stem;
}
);
layerId = "D00CCA55-2E43-4B58-A869-D5AA99E7DC06";
paths = (
{
closed = 1;
nodes = (
"53 -160 LINE",
"243 -160 LINE",
"243 66 LINE",
"290 11 OFFCURVE",
"342 -12 OFFCURVE",
"407 -12 CURVE SMOOTH",
"564 -12 OFFCURVE",
"647 130 OFFCURVE",
"647 271 CURVE SMOOTH",
"647 443 OFFCURVE",
"516 553 OFFCURVE",
"350 553 CURVE SMOOTH",
"182 553 OFFCURVE",
"53 446 OFFCURVE",
"53 271 CURVE SMOOTH"
);
},
{
closed = 1;
nodes = (
"460 206 OFFCURVE",
"419 147 OFFCURVE",
"349 147 CURVE SMOOTH",
"284 147 OFFCURVE",
"240 203 OFFCURVE",
"240 270 CURVE SMOOTH",
"240 343 OFFCURVE",
"289 394 OFFCURVE",
"349 394 CURVE SMOOTH",
"416 394 OFFCURVE",
"460 338 OFFCURVE",
"460 272 CURVE SMOOTH"
);
}
);
width = 680;
}
);
unicode = 03C1;
},
{
glyphname = iota;
layers = (
{
hints = (
{
horizontal = 1;
place = "{0, 21}";
target = up;
type = BottomGhost;
},
{
place = "{58, 190}";
type = Stem;
}
);
layerId = "D00CCA55-2E43-4B58-A869-D5AA99E7DC06";
paths = (
{
closed = 1;
nodes = (
"248 541 LINE",
"58 541 LINE",
"58 0 LINE",
"248 0 LINE"
);
}
);
width = 267;
}
);
unicode = 03B9;
},
{
glyphname = eta;
layers = (
{
hints = (
{
place = "{41, 190}";
type = Stem;
},
{
place = "{387, 190}";
type = Stem;
},
{
horizontal = 1;
place = "{0, 21}";
target = up;
type = BottomGhost;
},
{
horizontal = 1;
place = "{384, 169}";
type = Stem;
},
{
horizontal = 1;
place = "{553, -20}";
target = down;
type = TopGhost;
}
);
layerId = "D00CCA55-2E43-4B58-A869-D5AA99E7DC06";
paths = (
{
closed = 1;
nodes = (
"316 553 OFFCURVE",
"266 510 OFFCURVE",
"231 465 CURVE",
"41 541 LINE",
"41 0 LINE",
"231 0 LINE",
"231 293 LINE SMOOTH",
"231 352 OFFCURVE",
"268 384 OFFCURVE",
"311 384 CURVE SMOOTH",
"354 384 OFFCURVE",
"387 352 OFFCURVE",
"387 293 CURVE SMOOTH",
"387 0 LINE",
"577 0 LINE",
"577 354 LINE SMOOTH",
"577 477 OFFCURVE",
"498 553 OFFCURVE",
"393 553 CURVE SMOOTH"
);
}
);
width = 624;
}
);
unicode = 03B7;
},
{
glyphname = gamma;
layers = (
{
hints = (
{
horizontal = 1;
place = "{-160, 21}";
target = up;
type = BottomGhost;
},
{
place = "{191, 190}";
type = Stem;
}
);
layerId = "D00CCA55-2E43-4B58-A869-D5AA99E7DC06";
paths = (
{
closed = 1;
nodes = (
"381 19 LINE",
"588 541 LINE",
"391 541 LINE",
"287 225 LINE",
"183 541 LINE",
"-17 541 LINE",
"191 16 LINE",
"191 -160 LINE",
"381 -160 LINE"
);
}
);
width = 605;
}
);
unicode = 03B3;
},
{
glyphname = upsilon;
layers = (
{
hints = (
{
horizontal = 1;
place = "{-12, 162}";
type = Stem;
},
{
place = "{36, 190}";
type = Stem;
},
{
place = "{382, 190}";
type = Stem;
}
);
layerId = "D00CCA55-2E43-4B58-A869-D5AA99E7DC06";
paths = (
{
closed = 1;
nodes = (
"572 541 LINE",
"382 541 LINE",
"382 245 LINE SMOOTH",
"382 193 OFFCURVE",
"358 150 OFFCURVE",
"303 150 CURVE SMOOTH",
"247 150 OFFCURVE",
"226 193 OFFCURVE",
"226 245 CURVE SMOOTH",
"226 541 LINE",
"36 541 LINE",
"36 237 LINE SMOOTH",
"36 68 OFFCURVE",
"138 -12 OFFCURVE",
"303 -12 CURVE SMOOTH",
"464 -12 OFFCURVE",
"572 65 OFFCURVE",
"572 241 CURVE SMOOTH"
);
}
);
width = 610;
}
);
unicode = 03C5;
},
{
glyphname = beta;
layers = (
{
hints = (
{
place = "{54, 190}";
type = Stem;
},
{
place = "{410, 186}";
type = Stem;
},
{
place = "{445, 186}";
type = Stem;
},
{
horizontal = 1;
place = "{-160, 21}";
target = up;
type = BottomGhost;
},
{
horizontal = 1;
place = "{-12, 159}";
type = Stem;
},
{
horizontal = 1;
place = "{315, 101}";
type = Stem;
},
{
horizontal = 1;
place = "{576, 161}";
type = Stem;
}
);
layerId = "D00CCA55-2E43-4B58-A869-D5AA99E7DC06";
paths = (
{
closed = 1;
nodes = (
"534 -12 OFFCURVE",
"631 75 OFFCURVE",
"631 199 CURVE SMOOTH",
"631 300 OFFCURVE",
"575 358 OFFCURVE",
"492 382 CURVE",
"551 405 OFFCURVE",
"596 454 OFFCURVE",
"596 530 CURVE SMOOTH",
"596 646 OFFCURVE",
"499 737 OFFCURVE",
"334 737 CURVE SMOOTH",
"161 737 OFFCURVE",
"54 633 OFFCURVE",
"54 477 CURVE SMOOTH",
"54 -160 LINE",
"244 -160 LINE",
"244 70 LINE",
"279 29 OFFCURVE",
"330 -12 OFFCURVE",
"413 -12 CURVE SMOOTH"
);
},
{
closed = 1;
nodes = (
"298 147 OFFCURVE",
"244 198 OFFCURVE",
"244 270 CURVE SMOOTH",
"244 479 LINE SMOOTH",
"244 542 OFFCURVE",
"285 576 OFFCURVE",
"331 576 CURVE SMOOTH",
"368 576 OFFCURVE",
"410 554 OFFCURVE",
"410 499 CURVE SMOOTH",
"410 470 OFFCURVE",
"401 416 OFFCURVE",
"329 416 CURVE",
"329 315 LINE",
"412 315 OFFCURVE",
"445 276 OFFCURVE",
"445 229 CURVE SMOOTH",
"445 184 OFFCURVE",
"409 147 OFFCURVE",
"358 147 CURVE SMOOTH"
);
}
);
width = 663;
}
);
unicode = 03B2;
},
{
glyphname = pi;
layers = (
{
hints = (
{
horizontal = 1;
place = "{0, 21}";
target = up;
type = BottomGhost;
},
{
horizontal = 1;
place = "{390, 151}";
type = Stem;
},
{
place = "{41, 190}";
type = Stem;
},
{
place = "{377, 190}";
type = Stem;
}
);
layerId = "D00CCA55-2E43-4B58-A869-D5AA99E7DC06";
paths = (
{
closed = 1;
nodes = (
"41 541 LINE",
"41 0 LINE",
"231 0 LINE",
"231 390 LINE",
"377 390 LINE",
"377 0 LINE",
"567 0 LINE",
"567 541 LINE"
);
}
);
width = 614;
}
);
unicode = 03C0;
},
{
glyphname = uni03BC;
layers = (
{
hints = (
{
place = "{58, 190}";
type = Stem;
},
{
place = "{404, 190}";
type = Stem;
},
{
horizontal = 1;
place = "{-160, 21}";
target = up;
type = BottomGhost;
},
{
horizontal = 1;
place = "{-12, 169}";
type = Stem;
},
{
horizontal = 1;
place = "{-12, 21}";
target = up;
type = BottomGhost;
},
{
horizontal = 1;
place = "{0, 21}";
target = up;
type = BottomGhost;
}
);
layerId = "D00CCA55-2E43-4B58-A869-D5AA99E7DC06";
paths = (
{
closed = 1;
nodes = (
"248 36 LINE",
"263 4 OFFCURVE",
"290 -12 OFFCURVE",
"318 -12 CURVE SMOOTH",
"365 -12 OFFCURVE",
"393 36 OFFCURVE",
"404 74 CURVE",
"594 0 LINE",
"594 541 LINE",
"404 541 LINE",
"404 248 LINE SMOOTH",
"404 200 OFFCURVE",
"378 157 OFFCURVE",
"325 157 CURVE SMOOTH",
"279 157 OFFCURVE",
"248 189 OFFCURVE",
"248 248 CURVE SMOOTH",
"248 541 LINE",
"58 541 LINE",
"58 -160 LINE",
"248 -160 LINE"
);
}
);
width = 611;
}
);
unicode = 03BC;
},
{
glyphname = tau;
layers = (
{
hints = (
{
place = "{114, 190}";
type = Stem;
},
{
horizontal = 1;
place = "{-11, 162}";
type = Stem;
},
{
horizontal = 1;
place = "{-11, 21}";
target = up;
type = BottomGhost;
},
{
horizontal = 1;
place = "{388, 153}";
type = Stem;
}
);
layerId = "D00CCA55-2E43-4B58-A869-D5AA99E7DC06";
paths = (
{
closed = 1;
nodes = (
"-12 541 LINE",
"-12 388 LINE",
"114 388 LINE",
"114 168 LINE SMOOTH",
"114 39 OFFCURVE",
"183 -11 OFFCURVE",
"296 -11 CURVE SMOOTH",
"349 -11 OFFCURVE",
"393 1 OFFCURVE",
"428 20 CURVE",
"428 169 LINE",
"405 158 OFFCURVE",
"379 151 OFFCURVE",
"356 151 CURVE SMOOTH",
"321 151 OFFCURVE",
"304 166 OFFCURVE",
"304 205 CURVE SMOOTH",
"304 388 LINE",
"430 388 LINE",
"430 541 LINE"
);
}
);
width = 439;
}
);
unicode = 03C4;
},
{
glyphname = Phi;
layers = (
{
hints = (
{
horizontal = 1;
place = "{-5, 21}";
target = up;
type = BottomGhost;
},
{
horizontal = 1;
place = "{51, 164}";
type = Stem;
},
{
horizontal = 1;
place = "{492, 167}";
type = Stem;
},
{
horizontal = 1;
place = "{705, -20}";
target = down;
type = TopGhost;
},
{
place = "{35, 197}";
type = Stem;
},
{
place = "{394, 184}";
type = Stem;
},
{
place = "{737, 197}";
type = Stem;
}
);
layerId = "D00CCA55-2E43-4B58-A869-D5AA99E7DC06";
paths = (
{
closed = 1;
nodes = (
"578 659 LINE",
"578 705 LINE",
"394 705 LINE",
"394 659 LINE",
"383 659 LINE SMOOTH",
"164 659 OFFCURVE",
"35 527 OFFCURVE",
"35 355 CURVE SMOOTH",
"35 183 OFFCURVE",
"164 51 OFFCURVE",
"383 51 CURVE SMOOTH",
"394 51 LINE",
"394 -5 LINE",
"578 -5 LINE",
"578 51 LINE",
"589 51 LINE SMOOTH",
"806 51 OFFCURVE",
"934 181 OFFCURVE",
"934 357 CURVE SMOOTH",
"934 529 OFFCURVE",
"806 659 OFFCURVE",
"589 659 CURVE SMOOTH"
);
},
{
closed = 1;
nodes = (
"578 492 LINE",
"663 492 OFFCURVE",
"737 436 OFFCURVE",
"737 353 CURVE SMOOTH",
"737 270 OFFCURVE",
"659 215 OFFCURVE",
"578 215 CURVE"
);
},
{
closed = 1;
nodes = (
"394 215 LINE",
"310 215 OFFCURVE",
"232 264 OFFCURVE",
"232 355 CURVE SMOOTH",
"232 444 OFFCURVE",
"310 492 OFFCURVE",
"394 492 CURVE"
);
}
);
width = 970;
}
);
unicode = 03A6;
},
{
glyphname = chi;
layers = (
{
hints = (
{
horizontal = 1;
place = "{-160, 21}";
target = up;
type = BottomGhost;
},
{
place = "{-5, 573}";
type = Stem;
}
);
layerId = "D00CCA55-2E43-4B58-A869-D5AA99E7DC06";
paths = (
{
closed = 1;
nodes = (
"283 368 LINE",
"203 541 LINE",
"-2 541 LINE",
"180 198 LINE",
"-5 -160 LINE",
"195 -160 LINE",
"280 20 LINE",
"363 -160 LINE",
"568 -160 LINE",
"382 201 LINE",
"564 541 LINE",
"363 541 LINE"
);
}
);
width = 566;
}
);
unicode = 03C7;
},
{
glyphname = sigma;
layers = (
{
hints = (
{
horizontal = 1;
place = "{-13, 161}";
type = Stem;
},
{
horizontal = 1;
place = "{380, 161}";
type = Stem;
},
{
place = "{32, 185}";
type = Stem;
},
{
place = "{445, 185}";
type = Stem;
}
);
layerId = "D00CCA55-2E43-4B58-A869-D5AA99E7DC06";
paths = (
{
closed = 1;
nodes = (
"697 388 LINE",
"697 541 LINE",
"332 541 LINE SMOOTH",
"155 541 OFFCURVE",
"32 421 OFFCURVE",
"32 264 CURVE SMOOTH",
"32 109 OFFCURVE",
"154 -13 OFFCURVE",
"330 -13 CURVE SMOOTH",
"482 -13 OFFCURVE",
"630 85 OFFCURVE",
"630 248 CURVE SMOOTH",
"630 316 OFFCURVE",
"596 361 OFFCURVE",
"551 388 CURVE"
);
},
{
closed = 1;
nodes = (
"445 199 OFFCURVE",
"401 148 OFFCURVE",
"332 148 CURVE SMOOTH",
"262 148 OFFCURVE",
"217 206 OFFCURVE",
"217 266 CURVE SMOOTH",
"217 335 OFFCURVE",
"261 380 OFFCURVE",
"330 380 CURVE SMOOTH",
"400 380 OFFCURVE",
"445 333 OFFCURVE",
"445 264 CURVE SMOOTH"
);
}
);
width = 706;
}
);
unicode = 03C3;
},
{
glyphname = theta;
layers = (
{
hints = (
{
horizontal = 1;
place = "{-13, 161}";
type = Stem;
},
{
horizontal = 1;
place = "{290, 151}";
type = Stem;
},
{
horizontal = 1;
place = "{576, 161}";
type = Stem;
},
{
place = "{32, 190}";
type = Stem;
},
{
place = "{413, 189}";
type = Stem;
}
);
layerId = "D00CCA55-2E43-4B58-A869-D5AA99E7DC06";
paths = (
{
closed = 1;
nodes = (
"139 737 OFFCURVE",
"32 588 OFFCURVE",
"32 361 CURVE SMOOTH",
"32 336 OFFCURVE",
"33 312 OFFCURVE",
"36 288 CURVE SMOOTH",
"57 103 OFFCURVE",
"161 -13 OFFCURVE",
"317 -13 CURVE SMOOTH",
"481 -13 OFFCURVE",
"584 112 OFFCURVE",
"600 310 CURVE",
"603 329 OFFCURVE",
"602 348 OFFCURVE",
"602 367 CURVE",
"599 543 OFFCURVE",
"527 737 OFFCURVE",
"319 737 CURVE SMOOTH"
);
},
{
closed = 1;
nodes = (
"222 441 LINE",
"227 481 OFFCURVE",
"237 511 OFFCURVE",
"249 531 CURVE SMOOTH",
"269 566 OFFCURVE",
"294 576 OFFCURVE",
"317 576 CURVE SMOOTH",
"348 576 OFFCURVE",
"368 558 OFFCURVE",
"383 534 CURVE SMOOTH",
"396 513 OFFCURVE",
"405 484 OFFCURVE",
"412 441 CURVE"
);
},
{
closed = 1;
nodes = (
"413 290 LINE",
"409 255 OFFCURVE",
"402 228 OFFCURVE",
"391 207 CURVE",
"388 203 OFFCURVE",
"388 199 OFFCURVE",
"385 196 CURVE",
"370 169 OFFCURVE",
"347 148 OFFCURVE",
"315 148 CURVE SMOOTH",
"295 148 OFFCURVE",
"274 157 OFFCURVE",
"255 182 CURVE",
"240 205 OFFCURVE",
"228 239 OFFCURVE",
"221 290 CURVE"
);
}
);
width = 635;
}
);
unicode = 03B8;
},
{
glyphname = lambda;
layers = (
{
hints = (
{
horizontal = 1;
place = "{0, 21}";
target = up;
type = BottomGhost;
},
{
horizontal = 1;
place = "{586, 151}";
type = Stem;
},
{
place = "{2, 604}";
type = Stem;
}
);
layerId = "D00CCA55-2E43-4B58-A869-D5AA99E7DC06";
paths = (
{
closed = 1;
nodes = (
"214 531 LINE",
"2 0 LINE",
"201 0 LINE",
"309 326 LINE",
"411 0 LINE",
"606 0 LINE",
"408 528 LINE SMOOTH",
"368 633 OFFCURVE",
"327 737 OFFCURVE",
"195 737 CURVE SMOOTH",
"136 737 OFFCURVE",
"78 718 OFFCURVE",
"27 690 CURVE",
"66 546 LINE",
"95 565 OFFCURVE",
"128 586 OFFCURVE",
"164 586 CURVE SMOOTH",
"195 586 OFFCURVE",
"214 562 OFFCURVE",
"214 532 CURVE"
);
}
);
width = 608;
}
);
unicode = 03BB;
},
{
glyphname = psi;
layers = (
{
hints = (
{
horizontal = 1;
place = "{-160, 21}";
target = up;
type = BottomGhost;
},
{
horizontal = 1;
place = "{-12, 162}";
type = Stem;
},
{
place = "{46, 190}";
type = Stem;
},
{
place = "{352, 190}";
type = Stem;
},
{
place = "{662, 190}";
type = Stem;
}
);
layerId = "D00CCA55-2E43-4B58-A869-D5AA99E7DC06";
paths = (
{
closed = 1;
nodes = (
"352 -160 LINE",
"542 -160 LINE",
"542 -12 LINE",
"706 -12 OFFCURVE",
"852 65 OFFCURVE",
"852 241 CURVE SMOOTH",
"852 541 LINE",
"662 541 LINE",
"662 241 LINE SMOOTH",
"662 182 OFFCURVE",
"618 150 OFFCURVE",
"542 150 CURVE",
"542 730 LINE",
"352 730 LINE",
"352 150 LINE",
"276 150 OFFCURVE",
"236 182 OFFCURVE",
"236 241 CURVE SMOOTH",
"236 541 LINE",
"46 541 LINE",
"46 237 LINE SMOOTH",
"46 62 OFFCURVE",
"195 -12 OFFCURVE",
"352 -12 CURVE"
);
}
);
width = 889;
}
);
unicode = 03C8;
},
{
glyphname = epsilon;
layers = (
{
hints = (
{
place = "{32, 185}";
type = Stem;
},
{
place = "{32, 469}";
type = Stem;
},
{
place = "{54, 185}";
type = Stem;
},
{
horizontal = 1;
place = "{-13, 161}";
type = Stem;
},
{
horizontal = 1;
place = "{203, 137}";
type = Stem;
},
{
horizontal = 1;
place = "{392, 161}";
type = Stem;
}
);
layerId = "D00CCA55-2E43-4B58-A869-D5AA99E7DC06";
paths = (
{
closed = 1;
nodes = (
"254 148 OFFCURVE",
"217 154 OFFCURVE",
"217 175 CURVE SMOOTH",
"217 192 OFFCURVE",
"236 203 OFFCURVE",
"292 203 CURVE SMOOTH",
"377 203 LINE",
"377 340 LINE",
"316 340 LINE SMOOTH",
"276 340 OFFCURVE",
"239 343 OFFCURVE",
"239 366 CURVE SMOOTH",
"239 383 OFFCURVE",
"267 392 OFFCURVE",
"302 392 CURVE SMOOTH",
"333 392 OFFCURVE",
"381 386 OFFCURVE",
"446 347 CURVE",
"493 493 LINE",
"424 537 OFFCURVE",
"352 553 OFFCURVE",
"284 553 CURVE SMOOTH",
"160 553 OFFCURVE",
"54 506 OFFCURVE",
"54 399 CURVE SMOOTH",
"54 343 OFFCURVE",
"87 302 OFFCURVE",
"144 279 CURVE",
"71 259 OFFCURVE",
"32 212 OFFCURVE",
"32 152 CURVE SMOOTH",
"32 44 OFFCURVE",
"153 -13 OFFCURVE",
"281 -13 CURVE SMOOTH",
"350 -13 OFFCURVE",
"429 3 OFFCURVE",
"501 38 CURVE",
"468 192 LINE",
"391 156 OFFCURVE",
"345 148 OFFCURVE",
"297 148 CURVE SMOOTH"
);
}
);
width = 524;
}
);
unicode = 03B5;
},
{
glyphname = delta;
layers = (
{
hints = (
{
horizontal = 1;
place = "{-13, 161}";
type = Stem;
},
{
horizontal = 1;
place = "{363, 125}";
type = Stem;
},
{
horizontal = 1;
place = "{584, 151}";
type = Stem;
},
{
place = "{32, 185}";
type = Stem;
},
{
place = "{439, 185}";
type = Stem;
}
);
layerId = "D00CCA55-2E43-4B58-A869-D5AA99E7DC06";
paths = (
{
closed = 1;
nodes = (
"367 584 LINE",
"537 584 LINE",
"537 735 LINE",
"89 735 LINE",
"89 584 LINE",
"277 487 LINE",
"269 488 OFFCURVE",
"261 488 OFFCURVE",
"253 488 CURVE SMOOTH",
"209 488 OFFCURVE",
"156 474 OFFCURVE",
"110 434 CURVE SMOOTH",
"64 393 OFFCURVE",
"32 331 OFFCURVE",
"32 254 CURVE SMOOTH",
"32 110 OFFCURVE",
"151 -13 OFFCURVE",
"327 -13 CURVE SMOOTH",
"504 -13 OFFCURVE",
"624 102 OFFCURVE",
"624 256 CURVE SMOOTH",
"624 374 OFFCURVE",
"568 456 OFFCURVE",
"466 520 CURVE"
);
},
{
closed = 1;
nodes = (
"439 198 OFFCURVE",
"397 148 OFFCURVE",
"329 148 CURVE SMOOTH",
"262 148 OFFCURVE",
"217 197 OFFCURVE",
"217 256 CURVE SMOOTH",
"217 308 OFFCURVE",
"255 363 OFFCURVE",
"326 363 CURVE SMOOTH",
"398 363 OFFCURVE",
"439 312 OFFCURVE",
"439 254 CURVE SMOOTH"
);
}
);
width = 658;
}
);
unicode = 03B4;
},
{
glyphname = alphatonos;
layers = (
{
hints = (
{
place = "{33, 187}";
type = Stem;
},
{
place = "{437, 190}";
type = Stem;
},
{
horizontal = 1;
place = "{-12, 159}";
type = Stem;
},
{
horizontal = 1;
place = "{0, 21}";
target = up;
type = BottomGhost;
},
{
horizontal = 1;
place = "{394, 147}";
type = Stem;
},
{
horizontal = 1;
place = "{394, 159}";
type = Stem;
},
{
horizontal = 1;
place = "{587, 185}";
type = Stem;
}
);
layerId = "D00CCA55-2E43-4B58-A869-D5AA99E7DC06";
paths = (
{
closed = 1;
nodes = (
"229 587 LINE",
"363 587 LINE",
"571 772 LINE",
"333 772 LINE"
);
},
{
closed = 1;
nodes = (
"627 0 LINE",
"627 541 LINE",
"437 541 LINE",
"437 469 LINE",
"394 524 OFFCURVE",
"342 553 OFFCURVE",
"273 553 CURVE SMOOTH",
"117 553 OFFCURVE",
"33 413 OFFCURVE",
"33 270 CURVE SMOOTH",
"33 129 OFFCURVE",
"117 -12 OFFCURVE",
"273 -12 CURVE SMOOTH",
"350 -12 OFFCURVE",
"389 18 OFFCURVE",
"437 72 CURVE"
);
},
{
closed = 1;
nodes = (
"398 394 OFFCURVE",
"440 336 OFFCURVE",
"440 272 CURVE SMOOTH",
"440 208 OFFCURVE",
"398 147 OFFCURVE",
"330 147 CURVE SMOOTH",
"266 147 OFFCURVE",
"220 208 OFFCURVE",
"220 269 CURVE SMOOTH",
"220 333 OFFCURVE",
"261 394 OFFCURVE",
"330 394 CURVE SMOOTH"
);
}
);
width = 642;
}
);
unicode = 03AC;
},
{
glyphname = etatonos;
layers = (
{
hints = (
{
place = "{41, 190}";
type = Stem;
},
{
place = "{387, 190}";
type = Stem;
},
{
horizontal = 1;
place = "{0, 21}";
target = up;
type = BottomGhost;
},
{
horizontal = 1;
place = "{384, 169}";
type = Stem;
},
{
horizontal = 1;
place = "{553, -20}";
target = down;
type = TopGhost;
},
{
horizontal = 1;
place = "{587, 185}";
type = Stem;
}
);
layerId = "D00CCA55-2E43-4B58-A869-D5AA99E7DC06";
paths = (
{
closed = 1;
nodes = (
"208 587 LINE",
"342 587 LINE",
"550 772 LINE",
"312 772 LINE"
);
},
{
closed = 1;
nodes = (
"316 553 OFFCURVE",
"266 510 OFFCURVE",
"231 465 CURVE",
"41 541 LINE",
"41 0 LINE",
"231 0 LINE",
"231 293 LINE SMOOTH",
"231 352 OFFCURVE",
"268 384 OFFCURVE",
"311 384 CURVE SMOOTH",
"354 384 OFFCURVE",
"387 352 OFFCURVE",
"387 293 CURVE SMOOTH",
"387 0 LINE",
"577 0 LINE",
"577 354 LINE SMOOTH",
"577 477 OFFCURVE",
"498 553 OFFCURVE",
"393 553 CURVE SMOOTH"
);
}
);
width = 624;
}
);
unicode = 03AE;
},
{
glyphname = iotatonos;
layers = (
{
hints = (
{
horizontal = 1;
place = "{0, 21}";
target = up;
type = BottomGhost;
},
{
horizontal = 1;
place = "{587, 185}";
type = Stem;
},
{
place = "{58, 190}";
type = Stem;
}
);
layerId = "D00CCA55-2E43-4B58-A869-D5AA99E7DC06";
paths = (
{
closed = 1;
nodes = (
"81 587 LINE",
"215 587 LINE",
"423 772 LINE",
"185 772 LINE"
);
},
{
closed = 1;
nodes = (
"248 541 LINE",
"58 541 LINE",
"58 0 LINE",
"248 0 LINE"
);
}
);
width = 267;
}
);
unicode = 03AF;
},
{
glyphname = omicrontonos;
layers = (
{
hints = (
{
horizontal = 1;
place = "{-13, 161}";
type = Stem;
},
{
horizontal = 1;
place = "{392, 161}";
type = Stem;
},
{
horizontal = 1;
place = "{587, 185}";
type = Stem;
},
{
place = "{32, 185}";
type = Stem;
},
{
place = "{445, 185}";
type = Stem;
}
);
layerId = "D00CCA55-2E43-4B58-A869-D5AA99E7DC06";
paths = (
{
closed = 1;
nodes = (
"251 587 LINE",
"385 587 LINE",
"593 772 LINE",
"355 772 LINE"
);
},
{
closed = 1;
nodes = (
"630 427 OFFCURVE",
"505 553 OFFCURVE",
"332 553 CURVE SMOOTH",
"159 553 OFFCURVE",
"32 425 OFFCURVE",
"32 270 CURVE SMOOTH",
"32 115 OFFCURVE",
"157 -13 OFFCURVE",
"330 -13 CURVE SMOOTH",
"503 -13 OFFCURVE",
"630 118 OFFCURVE",
"630 272 CURVE SMOOTH"
);
},
{
closed = 1;
nodes = (
"445 205 OFFCURVE",
"401 148 OFFCURVE",
"332 148 CURVE SMOOTH",
"265 148 OFFCURVE",
"217 205 OFFCURVE",
"217 272 CURVE SMOOTH",
"217 337 OFFCURVE",
"261 392 OFFCURVE",
"330 392 CURVE SMOOTH",
"397 392 OFFCURVE",
"445 336 OFFCURVE",
"445 270 CURVE SMOOTH"
);
}
);
width = 663;
}
);
unicode = 03CC;
},
{
glyphname = upsilontonos;
layers = (
{
hints = (
{
horizontal = 1;
place = "{-12, 162}";
type = Stem;
},
{
horizontal = 1;
place = "{587, 185}";
type = Stem;
},
{
place = "{36, 190}";
type = Stem;
},
{
place = "{382, 190}";
type = Stem;
}
);
layerId = "D00CCA55-2E43-4B58-A869-D5AA99E7DC06";
paths = (
{
closed = 1;
nodes = (
"227 587 LINE",
"361 587 LINE",
"569 772 LINE",
"331 772 LINE"
);
},
{
closed = 1;
nodes = (
"572 541 LINE",
"382 541 LINE",
"382 245 LINE SMOOTH",
"382 193 OFFCURVE",
"358 150 OFFCURVE",
"303 150 CURVE SMOOTH",
"247 150 OFFCURVE",
"226 193 OFFCURVE",
"226 245 CURVE SMOOTH",
"226 541 LINE",
"36 541 LINE",
"36 237 LINE SMOOTH",
"36 68 OFFCURVE",
"138 -12 OFFCURVE",
"303 -12 CURVE SMOOTH",
"464 -12 OFFCURVE",
"572 65 OFFCURVE",
"572 241 CURVE SMOOTH"
);
}
);
width = 610;
}
);
unicode = 03CD;
},
{
glyphname = iotadieresistonos;
layers = (
{
hints = (
{
place = "{-75, 155}";
type = Stem;
},
{
place = "{103, 190}";
type = Stem;
},
{
place = "{319, 152}";
type = Stem;
},
{
horizontal = 1;
place = "{0, 21}";
target = up;
type = BottomGhost;
},
{
horizontal = 1;
place = "{620, 152}";
type = Stem;
},
{
horizontal = 1;
place = "{621, 185}";
type = Stem;
},
{
horizontal = 1;
place = "{622, 155}";
type = Stem;
}
);
layerId = "D00CCA55-2E43-4B58-A869-D5AA99E7DC06";
paths = (
{
closed = 1;
nodes = (
"85 621 LINE",
"205 621 LINE",
"353 806 LINE",
"145 806 LINE"
);
},
{
closed = 1;
nodes = (
"441 622 OFFCURVE",
"471 660 OFFCURVE",
"471 699 CURVE SMOOTH",
"471 738 OFFCURVE",
"441 777 OFFCURVE",
"394 777 CURVE SMOOTH",
"350 777 OFFCURVE",
"319 738 OFFCURVE",
"319 699 CURVE SMOOTH",
"319 660 OFFCURVE",
"350 622 OFFCURVE",
"394 622 CURVE SMOOTH"
);
},
{
closed = 1;
nodes = (
"-75 650 OFFCURVE",
"-37 620 OFFCURVE",
"2 620 CURVE SMOOTH",
"41 620 OFFCURVE",
"80 650 OFFCURVE",
"80 697 CURVE SMOOTH",
"80 741 OFFCURVE",
"41 772 OFFCURVE",
"2 772 CURVE SMOOTH",
"-37 772 OFFCURVE",
"-75 741 OFFCURVE",
"-75 697 CURVE SMOOTH"
);
},
{
closed = 1;
nodes = (
"293 541 LINE",
"103 541 LINE",
"103 0 LINE",
"293 0 LINE"
);
}
);
width = 388;
}
);
unicode = 0390;
},
{
glyphname = iotadieresis;
layers = (
{
hints = (
{
place = "{-36, 176}";
type = Stem;
},
{
place = "{70, 190}";
type = Stem;
},
{
place = "{190, 176}";
type = Stem;
},
{
horizontal = 1;
place = "{0, 21}";
target = up;
type = BottomGhost;
},
{
horizontal = 1;
place = "{576, 171}";
type = Stem;
}
);
layerId = "D00CCA55-2E43-4B58-A869-D5AA99E7DC06";
paths = (
{
closed = 1;
nodes = (
"-36 606 OFFCURVE",
"3 576 OFFCURVE",
"52 576 CURVE SMOOTH",
"101 576 OFFCURVE",
"140 606 OFFCURVE",
"140 662 CURVE SMOOTH",
"140 718 OFFCURVE",
"101 747 OFFCURVE",
"52 747 CURVE SMOOTH",
"3 747 OFFCURVE",
"-36 718 OFFCURVE",
"-36 662 CURVE SMOOTH"
);
},
{
closed = 1;
nodes = (
"190 606 OFFCURVE",
"229 576 OFFCURVE",
"278 576 CURVE SMOOTH",
"327 576 OFFCURVE",
"366 606 OFFCURVE",
"366 662 CURVE SMOOTH",
"366 718 OFFCURVE",
"327 747 OFFCURVE",
"278 747 CURVE SMOOTH",
"229 747 OFFCURVE",
"190 718 OFFCURVE",
"190 662 CURVE SMOOTH"
);
},
{
closed = 1;
nodes = (
"260 541 LINE",
"70 541 LINE",
"70 0 LINE",
"260 0 LINE"
);
}
);
width = 329;
}
);
unicode = 03CA;
},
{
glyphname = upsilondieresis;
layers = (
{
hints = (
{
place = "{36, 190}";
type = Stem;
},
{
place = "{105, 176}";
type = Stem;
},
{
place = "{331, 176}";
type = Stem;
},
{
place = "{382, 190}";
type = Stem;
},
{
horizontal = 1;
place = "{-12, 162}";
type = Stem;
},
{
horizontal = 1;
place = "{576, 171}";
type = Stem;
}
);
layerId = "D00CCA55-2E43-4B58-A869-D5AA99E7DC06";
paths = (
{
closed = 1;
nodes = (
"105 606 OFFCURVE",
"144 576 OFFCURVE",
"193 576 CURVE SMOOTH",
"242 576 OFFCURVE",
"281 606 OFFCURVE",
"281 662 CURVE SMOOTH",
"281 718 OFFCURVE",
"242 747 OFFCURVE",
"193 747 CURVE SMOOTH",
"144 747 OFFCURVE",
"105 718 OFFCURVE",
"105 662 CURVE SMOOTH"
);
},
{
closed = 1;
nodes = (
"331 606 OFFCURVE",
"370 576 OFFCURVE",
"419 576 CURVE SMOOTH",
"468 576 OFFCURVE",
"507 606 OFFCURVE",
"507 662 CURVE SMOOTH",
"507 718 OFFCURVE",
"468 747 OFFCURVE",
"419 747 CURVE SMOOTH",
"370 747 OFFCURVE",
"331 718 OFFCURVE",
"331 662 CURVE SMOOTH"
);
},
{
closed = 1;
nodes = (
"572 541 LINE",
"382 541 LINE",
"382 245 LINE SMOOTH",
"382 193 OFFCURVE",
"358 150 OFFCURVE",
"303 150 CURVE SMOOTH",
"247 150 OFFCURVE",
"226 193 OFFCURVE",
"226 245 CURVE SMOOTH",
"226 541 LINE",
"36 541 LINE",
"36 237 LINE SMOOTH",
"36 68 OFFCURVE",
"138 -12 OFFCURVE",
"303 -12 CURVE SMOOTH",
"464 -12 OFFCURVE",
"572 65 OFFCURVE",
"572 241 CURVE SMOOTH"
);
}
);
width = 610;
}
);
unicode = 03CB;
},
{
glyphname = upsilondieresistonos;
layers = (
{
hints = (
{
place = "{36, 155}";
type = Stem;
},
{
place = "{49, 190}";
type = Stem;
},
{
place = "{395, 190}";
type = Stem;
},
{
place = "{430, 152}";
type = Stem;
},
{
horizontal = 1;
place = "{-12, 162}";
type = Stem;
},
{
horizontal = 1;
place = "{621, 152}";
type = Stem;
},
{
horizontal = 1;
place = "{622, 185}";
type = Stem;
},
{
horizontal = 1;
place = "{623, 155}";
type = Stem;
}
);
layerId = "D00CCA55-2E43-4B58-A869-D5AA99E7DC06";
paths = (
{
closed = 1;
nodes = (
"196 622 LINE",
"316 622 LINE",
"464 807 LINE",
"256 807 LINE"
);
},
{
closed = 1;
nodes = (
"552 623 OFFCURVE",
"582 661 OFFCURVE",
"582 700 CURVE SMOOTH",
"582 739 OFFCURVE",
"552 778 OFFCURVE",
"505 778 CURVE SMOOTH",
"461 778 OFFCURVE",
"430 739 OFFCURVE",
"430 700 CURVE SMOOTH",
"430 661 OFFCURVE",
"461 623 OFFCURVE",
"505 623 CURVE SMOOTH"
);
},
{
closed = 1;
nodes = (
"36 651 OFFCURVE",
"74 621 OFFCURVE",
"113 621 CURVE SMOOTH",
"152 621 OFFCURVE",
"191 651 OFFCURVE",
"191 698 CURVE SMOOTH",
"191 742 OFFCURVE",
"152 773 OFFCURVE",
"113 773 CURVE SMOOTH",
"74 773 OFFCURVE",
"36 742 OFFCURVE",
"36 698 CURVE SMOOTH"
);
},
{
closed = 1;
nodes = (
"585 541 LINE",
"395 541 LINE",
"395 245 LINE SMOOTH",
"395 193 OFFCURVE",
"371 150 OFFCURVE",
"316 150 CURVE SMOOTH",
"260 150 OFFCURVE",
"239 193 OFFCURVE",
"239 245 CURVE SMOOTH",
"239 541 LINE",
"49 541 LINE",
"49 237 LINE SMOOTH",
"49 68 OFFCURVE",
"151 -12 OFFCURVE",
"316 -12 CURVE SMOOTH",
"477 -12 OFFCURVE",
"585 65 OFFCURVE",
"585 241 CURVE SMOOTH"
);
}
);
width = 623;
}
);
unicode = 03B0;
},
{
glyphname = Omegatonos;
layers = (
{
hints = (
{
place = "{245, 351}";
type = Stem;
},
{
place = "{275, 199}";
type = Stem;
},
{
place = "{656, 351}";
type = Stem;
},
{
place = "{778, 199}";
type = Stem;
},
{
horizontal = 1;
place = "{2, 165}";
type = Stem;
},
{
horizontal = 1;
place = "{515, 185}";
type = Stem;
},
{
horizontal = 1;
place = "{539, 175}";
type = Stem;
}
);
layerId = "D00CCA55-2E43-4B58-A869-D5AA99E7DC06";
paths = (
{
closed = 1;
nodes = (
"656 2 LINE",
"1007 2 LINE",
"1007 167 LINE",
"844 167 LINE",
"930 205 OFFCURVE",
"977 317 OFFCURVE",
"977 405 CURVE SMOOTH",
"977 610 OFFCURVE",
"818 714 OFFCURVE",
"626 714 CURVE SMOOTH",
"434 714 OFFCURVE",
"275 610 OFFCURVE",
"275 405 CURVE SMOOTH",
"275 317 OFFCURVE",
"324 204 OFFCURVE",
"408 167 CURVE",
"245 167 LINE",
"245 2 LINE",
"596 2 LINE",
"596 177 LINE",
"515 209 OFFCURVE",
"474 282 OFFCURVE",
"474 367 CURVE SMOOTH",
"474 462 OFFCURVE",
"522 539 OFFCURVE",
"624 539 CURVE SMOOTH",
"728 539 OFFCURVE",
"778 466 OFFCURVE",
"778 367 CURVE SMOOTH",
"778 281 OFFCURVE",
"737 212 OFFCURVE",
"656 177 CURVE"
);
},
{
closed = 1;
nodes = (
"0 515 LINE",
"134 515 LINE",
"342 700 LINE",
"104 700 LINE"
);
}
);
width = 1041;
}
);
unicode = 038F;
},
{
glyphname = omega;
layers = (
{
hints = (
{
horizontal = 1;
place = "{-13, 161}";
type = Stem;
},
{
place = "{32, 185}";
type = Stem;
},
{
place = "{365, 190}";
type = Stem;
},
{
place = "{707, 185}";
type = Stem;
}
);
layerId = "D00CCA55-2E43-4B58-A869-D5AA99E7DC06";
paths = (
{
closed = 1;
nodes = (
"555 438 LINE",
"365 438 LINE",
"365 255 LINE SMOOTH",
"365 188 OFFCURVE",
"341 148 OFFCURVE",
"297 148 CURVE SMOOTH",
"247 148 OFFCURVE",
"217 200 OFFCURVE",
"217 287 CURVE SMOOTH",
"217 362 OFFCURVE",
"239 430 OFFCURVE",
"335 555 CURVE",
"145 555 LINE",
"57 455 OFFCURVE",
"32 360 OFFCURVE",
"32 276 CURVE SMOOTH",
"32 117 OFFCURVE",
"122 -13 OFFCURVE",
"290 -13 CURVE SMOOTH",
"381 -13 OFFCURVE",
"425 21 OFFCURVE",
"462 66 CURVE",
"499 21 OFFCURVE",
"545 -13 OFFCURVE",
"634 -13 CURVE SMOOTH",
"799 -13 OFFCURVE",
"892 104 OFFCURVE",
"892 276 CURVE SMOOTH",
"892 369 OFFCURVE",
"866 456 OFFCURVE",
"779 555 CURVE",
"589 555 LINE",
"685 430 OFFCURVE",
"707 362 OFFCURVE",
"707 287 CURVE SMOOTH",
"707 200 OFFCURVE",
"677 148 OFFCURVE",
"627 148 CURVE SMOOTH",
"583 148 OFFCURVE",
"555 188 OFFCURVE",
"555 255 CURVE SMOOTH"
);
}
);
width = 925;
}
);
unicode = 03C9;
},
{
glyphname = omegatonos;
layers = (
{
hints = (
{
horizontal = 1;
place = "{-13, 161}";
type = Stem;
},
{
horizontal = 1;
place = "{587, 185}";
type = Stem;
},
{
place = "{32, 185}";
type = Stem;
},
{
place = "{365, 190}";
type = Stem;
},
{
place = "{707, 185}";
type = Stem;
}
);
layerId = "D00CCA55-2E43-4B58-A869-D5AA99E7DC06";
paths = (
{
closed = 1;
nodes = (
"391 587 LINE",
"525 587 LINE",
"733 772 LINE",
"495 772 LINE"
);
},
{
closed = 1;
nodes = (
"555 438 LINE",
"365 438 LINE",
"365 255 LINE SMOOTH",
"365 188 OFFCURVE",
"341 148 OFFCURVE",
"297 148 CURVE SMOOTH",
"247 148 OFFCURVE",
"217 200 OFFCURVE",
"217 287 CURVE SMOOTH",
"217 362 OFFCURVE",
"239 430 OFFCURVE",
"335 555 CURVE",
"145 555 LINE",
"57 455 OFFCURVE",
"32 360 OFFCURVE",
"32 276 CURVE SMOOTH",
"32 117 OFFCURVE",
"122 -13 OFFCURVE",
"290 -13 CURVE SMOOTH",
"381 -13 OFFCURVE",
"425 21 OFFCURVE",
"462 66 CURVE",
"499 21 OFFCURVE",
"545 -13 OFFCURVE",
"634 -13 CURVE SMOOTH",
"799 -13 OFFCURVE",
"892 104 OFFCURVE",
"892 276 CURVE SMOOTH",
"892 369 OFFCURVE",
"866 456 OFFCURVE",
"779 555 CURVE",
"589 555 LINE",
"685 430 OFFCURVE",
"707 362 OFFCURVE",
"707 287 CURVE SMOOTH",
"707 200 OFFCURVE",
"677 148 OFFCURVE",
"627 148 CURVE SMOOTH",
"583 148 OFFCURVE",
"555 188 OFFCURVE",
"555 255 CURVE SMOOTH"
);
}
);
width = 924;
}
);
unicode = 03CE;
},
{
glyphname = epsilontonos;
layers = (
{
hints = (
{
place = "{32, 185}";
type = Stem;
},
{
place = "{32, 503}";
type = Stem;
},
{
place = "{54, 185}";
type = Stem;
},
{
horizontal = 1;
place = "{-13, 161}";
type = Stem;
},
{
horizontal = 1;
place = "{203, 137}";
type = Stem;
},
{
horizontal = 1;
place = "{392, 161}";
type = Stem;
},
{
horizontal = 1;
place = "{587, 185}";
type = Stem;
}
);
layerId = "D00CCA55-2E43-4B58-A869-D5AA99E7DC06";
paths = (
{
closed = 1;
nodes = (
"193 587 LINE",
"327 587 LINE",
"535 772 LINE",
"297 772 LINE"
);
},
{
closed = 1;
nodes = (
"254 148 OFFCURVE",
"217 154 OFFCURVE",
"217 175 CURVE SMOOTH",
"217 192 OFFCURVE",
"236 203 OFFCURVE",
"292 203 CURVE SMOOTH",
"377 203 LINE",
"377 340 LINE",
"316 340 LINE SMOOTH",
"276 340 OFFCURVE",
"239 343 OFFCURVE",
"239 366 CURVE SMOOTH",
"239 383 OFFCURVE",
"267 392 OFFCURVE",
"302 392 CURVE SMOOTH",
"333 392 OFFCURVE",
"381 386 OFFCURVE",
"446 347 CURVE",
"493 493 LINE",
"424 537 OFFCURVE",
"352 553 OFFCURVE",
"284 553 CURVE SMOOTH",
"160 553 OFFCURVE",
"54 506 OFFCURVE",
"54 399 CURVE SMOOTH",
"54 343 OFFCURVE",
"87 302 OFFCURVE",
"144 279 CURVE",
"71 259 OFFCURVE",
"32 212 OFFCURVE",
"32 152 CURVE SMOOTH",
"32 44 OFFCURVE",
"153 -13 OFFCURVE",
"281 -13 CURVE SMOOTH",
"350 -13 OFFCURVE",
"429 3 OFFCURVE",
"501 38 CURVE",
"468 192 LINE",
"391 156 OFFCURVE",
"345 148 OFFCURVE",
"297 148 CURVE SMOOTH"
);
}
);
width = 558;
}
);
unicode = 03AD;
},
{
glyphname = xi;
layers = (
{
hints = (
{
place = "{32, 183}";
type = Stem;
},
{
place = "{62, 202}";
type = Stem;
},
{
place = "{294, 169}";
type = Stem;
},
{
horizontal = 1;
place = "{-161, 21}";
target = up;
type = BottomGhost;
},
{
horizontal = 1;
place = "{297, 152}";
type = Stem;
},
{
horizontal = 1;
place = "{576, 159}";
type = Stem;
}
);
layerId = "D00CCA55-2E43-4B58-A869-D5AA99E7DC06";
paths = (
{
closed = 1;
nodes = (
"290 -23 OFFCURVE",
"294 -57 OFFCURVE",
"294 -71 CURVE SMOOTH",
"294 -99 OFFCURVE",
"278 -130 OFFCURVE",
"263 -154 CURVE",
"421 -167 LINE",
"445 -119 OFFCURVE",
"463 -76 OFFCURVE",
"463 -24 CURVE SMOOTH",
"463 30 OFFCURVE",
"442 106 OFFCURVE",
"325 130 CURVE SMOOTH",
"254 145 OFFCURVE",
"215 175 OFFCURVE",
"215 216 CURVE SMOOTH",
"215 284 OFFCURVE",
"297 297 OFFCURVE",
"414 297 CURVE",
"414 449 LINE",
"305 449 OFFCURVE",
"264 481 OFFCURVE",
"264 514 CURVE SMOOTH",
"264 571 OFFCURVE",
"351 576 OFFCURVE",
"468 576 CURVE",
"468 735 LINE",
"62 735 LINE",
"62 583 LINE",
"151 583 LINE",
"114 564 OFFCURVE",
"81 535 OFFCURVE",
"81 490 CURVE SMOOTH",
"81 433 OFFCURVE",
"134 400 OFFCURVE",
"201 376 CURVE",
"92 349 OFFCURVE",
"32 278 OFFCURVE",
"32 191 CURVE SMOOTH",
"32 79 OFFCURVE",
"117 8 OFFCURVE",
"220 -10 CURVE SMOOTH"
);
}
);
width = 475;
}
);
unicode = 03BE;
},
{
glyphname = zeta;
layers = (
{
hints = (
{
place = "{35, 182}";
type = Stem;
},
{
place = "{82, 403}";
type = Stem;
},
{
place = "{315, 169}";
type = Stem;
},
{
horizontal = 1;
place = "{-161, 21}";
target = up;
type = BottomGhost;
},
{
horizontal = 1;
place = "{585, 150}";
type = Stem;
}
);
layerId = "D00CCA55-2E43-4B58-A869-D5AA99E7DC06";
paths = (
{
closed = 1;
nodes = (
"485 735 LINE",
"82 735 LINE",
"82 585 LINE",
"252 585 LINE",
"112 482 OFFCURVE",
"35 360 OFFCURVE",
"35 239 CURVE SMOOTH",
"35 96 OFFCURVE",
"127 25 OFFCURVE",
"250 -7 CURVE SMOOTH",
"301 -20 OFFCURVE",
"315 -41 OFFCURVE",
"315 -67 CURVE SMOOTH",
"315 -96 OFFCURVE",
"298 -130 OFFCURVE",
"283 -154 CURVE",
"442 -167 LINE",
"466 -119 OFFCURVE",
"484 -72 OFFCURVE",
"484 -21 CURVE SMOOTH",
"484 54 OFFCURVE",
"446 104 OFFCURVE",
"339 131 CURVE",
"254 154 OFFCURVE",
"217 189 OFFCURVE",
"217 253 CURVE SMOOTH",
"217 366 OFFCURVE",
"318 493 OFFCURVE",
"485 596 CURVE"
);
}
);
width = 488;
}
);
unicode = 03B6;
},
{
glyphname = uni03C2;
layers = (
{
hints = (
{
horizontal = 1;
place = "{-161, 21}";
target = up;
type = BottomGhost;
},
{
horizontal = 1;
place = "{392, 160}";
type = Stem;
},
{
place = "{30, 183}";
type = Stem;
},
{
place = "{291, 170}";
type = Stem;
}
);
layerId = "D00CCA55-2E43-4B58-A869-D5AA99E7DC06";
paths = (
{
closed = 1;
nodes = (
"409 -167 LINE",
"432 -120 OFFCURVE",
"461 -77 OFFCURVE",
"461 -24 CURVE SMOOTH",
"461 38 OFFCURVE",
"415 90 OFFCURVE",
"332 130 CURVE SMOOTH",
"293 148 OFFCURVE",
"213 195 OFFCURVE",
"213 282 CURVE SMOOTH",
"213 341 OFFCURVE",
"255 392 OFFCURVE",
"315 392 CURVE SMOOTH",
"358 392 OFFCURVE",
"395 371 OFFCURVE",
"419 336 CURVE",
"513 461 LINE",
"461 522 OFFCURVE",
"381 552 OFFCURVE",
"301 552 CURVE SMOOTH",
"136 552 OFFCURVE",
"30 420 OFFCURVE",
"30 263 CURVE SMOOTH",
"30 111 OFFCURVE",
"113 37 OFFCURVE",
"208 -5 CURVE SMOOTH",
"244 -21 OFFCURVE",
"291 -41 OFFCURVE",
"291 -81 CURVE SMOOTH",
"291 -112 OFFCURVE",
"269 -137 OFFCURVE",
"246 -154 CURVE"
);
}
);
width = 553;
}
);
unicode = 03C2;
},
{
glyphname = phi;
layers = (
{
hints = (
{
horizontal = 1;
place = "{-160, 21}";
target = up;
type = BottomGhost;
},
{
horizontal = 1;
place = "{-3, 147}";
type = Stem;
},
{
horizontal = 1;
place = "{395, 160}";
type = Stem;
},
{
place = "{32, 177}";
type = Stem;
},
{
place = "{345, 183}";
type = Stem;
},
{
place = "{675, 178}";
type = Stem;
}
);
layerId = "D00CCA55-2E43-4B58-A869-D5AA99E7DC06";
paths = (
{
closed = 1;
nodes = (
"345 -160 LINE",
"528 -160 LINE",
"528 -3 LINE",
"720 5 OFFCURVE",
"853 155 OFFCURVE",
"853 303 CURVE SMOOTH",
"853 440 OFFCURVE",
"761 555 OFFCURVE",
"588 555 CURVE SMOOTH",
"403 555 OFFCURVE",
"345 431 OFFCURVE",
"345 271 CURVE SMOOTH",
"345 144 LINE",
"233 144 OFFCURVE",
"209 228 OFFCURVE",
"209 328 CURVE SMOOTH",
"209 389 OFFCURVE",
"237 455 OFFCURVE",
"314 555 CURVE",
"136 555 LINE",
"60 467 OFFCURVE",
"32 382 OFFCURVE",
"32 306 CURVE SMOOTH",
"32 116 OFFCURVE",
"169 10 OFFCURVE",
"345 -3 CURVE"
);
},
{
closed = 1;
nodes = (
"528 295 LINE",
"533 354 OFFCURVE",
"551 395 OFFCURVE",
"603 395 CURVE SMOOTH",
"671 395 OFFCURVE",
"675 324 OFFCURVE",
"675 302 CURVE SMOOTH",
"675 295 OFFCURVE",
"675 287 OFFCURVE",
"674 280 CURVE SMOOTH",
"663 189 OFFCURVE",
"619 144 OFFCURVE",
"528 144 CURVE"
);
}
);
width = 886;
}
);
unicode = 03C6;
},
{
glyphname = Agrave;
layers = (
{
hints = (
{
horizontal = 1;
place = "{0, 21}";
target = up;
type = BottomGhost;
},
{
horizontal = 1;
place = "{125, 151}";
type = Stem;
},
{
horizontal = 1;
place = "{705, -20}";
target = down;
type = TopGhost;
},
{
place = "{15, 783}";
type = Stem;
}
);
layerId = "D00CCA55-2E43-4B58-A869-D5AA99E7DC06";
paths = (
{
closed = 1;
nodes = (
"373 744 LINE",
"507 744 LINE",
"403 929 LINE",
"226 872 LINE"
);
},
{
closed = 1;
nodes = (
"539 125 LINE",
"590 0 LINE",
"798 0 LINE",
"500 705 LINE",
"313 705 LINE",
"15 0 LINE",
"219 0 LINE",
"269 125 LINE"
);
},
{
closed = 1;
nodes = (
"405 475 LINE",
"483 276 LINE",
"326 276 LINE"
);
}
);
width = 823;
}
);
unicode = 00C0;
},
{
glyphname = Aacute;
layers = (
{
hints = (
{
horizontal = 1;
place = "{0, 21}";
target = up;
type = BottomGhost;
},
{
horizontal = 1;
place = "{125, 151}";
type = Stem;
},
{
horizontal = 1;
place = "{705, -20}";
target = down;
type = TopGhost;
},
{
place = "{15, 783}";
type = Stem;
}
);
layerId = "D00CCA55-2E43-4B58-A869-D5AA99E7DC06";
paths = (
{
closed = 1;
nodes = (
"627 872 LINE",
"450 929 LINE",
"346 744 LINE",
"480 744 LINE"
);
},
{
closed = 1;
nodes = (
"539 125 LINE",
"590 0 LINE",
"798 0 LINE",
"500 705 LINE",
"313 705 LINE",
"15 0 LINE",
"219 0 LINE",
"269 125 LINE"
);
},
{
closed = 1;
nodes = (
"405 475 LINE",
"483 276 LINE",
"326 276 LINE"
);
}
);
width = 823;
}
);
unicode = 00C1;
},
{
glyphname = Acircumflex;
layers = (
{
hints = (
{
horizontal = 1;
place = "{0, 21}";
target = up;
type = BottomGhost;
},
{
horizontal = 1;
place = "{125, 151}";
type = Stem;
},
{
horizontal = 1;
place = "{705, -20}";
target = down;
type = TopGhost;
},
{
horizontal = 1;
place = "{755, 186}";
type = Stem;
},
{
place = "{15, 783}";
type = Stem;
}
);
layerId = "D00CCA55-2E43-4B58-A869-D5AA99E7DC06";
paths = (
{
closed = 1;
nodes = (
"456 941 LINE",
"357 941 LINE",
"217 755 LINE",
"348 755 LINE",
"407 816 LINE",
"466 755 LINE",
"596 755 LINE"
);
},
{
closed = 1;
nodes = (
"539 125 LINE",
"590 0 LINE",
"798 0 LINE",
"500 705 LINE",
"313 705 LINE",
"15 0 LINE",
"219 0 LINE",
"269 125 LINE"
);
},
{
closed = 1;
nodes = (
"405 475 LINE",
"483 276 LINE",
"326 276 LINE"
);
}
);
width = 823;
}
);
unicode = 00C2;
},
